<svg width="175" height="102" viewBox="0 0 175 102" fill="none" xmlns="http://www.w3.org/2000/svg">
<path d="M81.256 34C81.2425 35.8343 81.2154 37.6686 81.2019 39.5029C81.1884 40.5662 81.2019 41.6163 81.2019 42.7195C59.8941 42.7195 38.6537 42.7195 17.3594 42.7195C17.4269 42.56 17.4675 42.467 17.5215 42.3739C18.8862 40.2605 20.2509 38.1471 21.6291 36.047C22.5073 34.7178 23.7234 34.093 25.3718 34.1063C30.3441 34.1462 35.3164 34.1329 40.2887 34.1063C40.9777 34.1063 41.1669 34.2924 41.1534 34.957C41.1129 37.2299 41.1399 39.5162 41.1399 41.7891C41.1939 41.8024 41.248 41.8157 41.302 41.8423C41.3831 41.6163 41.4777 41.4036 41.5587 41.1777C42.7343 37.6952 45.0583 35.3691 48.6794 34.3722C49.2604 34.2127 49.8549 34.1329 50.4494 34C60.7183 34 70.9871 34 81.256 34Z" fill="white"/>
<path d="M163.945 34C163.945 36.685 163.931 39.3566 163.972 42.0416C163.985 42.6264 163.809 42.7992 163.215 42.7859C158.675 42.7593 154.122 42.7593 149.582 42.7593C140.691 42.7593 131.8 42.7593 122.91 42.7593C122.626 42.7593 122.329 42.7593 121.977 42.7593C121.977 42.4403 121.923 42.1745 121.991 41.9352C123.058 37.7749 126.207 34.864 130.139 34.1861C130.463 34.1329 130.787 34.0665 131.125 34C142.056 34 153 34 163.945 34Z" fill="white"/>
<path d="M82.8884 58.0848C82.8074 58.5633 82.7398 58.8956 82.6858 59.2412C81.9832 63.2553 78.7133 66.4586 74.5923 67.1365C74.3491 67.1764 74.1059 67.1764 73.8492 67.1764C60.1889 67.1764 46.5151 67.1764 32.8548 67.1897C32.1927 67.1897 31.9766 67.0435 31.9766 66.3523C32.0036 59.4672 31.9901 52.5821 31.9901 45.6837C31.9901 45.4444 32.0171 45.2052 32.0306 44.8862C33.2331 44.9526 34.3681 45.0058 35.5166 45.0855C37.0434 45.1919 38.5702 45.3514 40.0971 45.4178C40.651 45.4444 40.7726 45.6305 40.7726 46.1223C40.7591 49.9503 40.7591 53.7916 40.7726 57.6196C40.7726 57.9253 40.7997 58.2311 40.8267 58.6032C41.0969 58.6032 41.3266 58.6032 41.5428 58.6032C51.8387 58.6032 62.121 58.6032 72.4169 58.6032C73.9437 58.6032 74.7679 57.7393 74.5653 56.3968C74.4437 55.5727 73.9032 55.0543 72.9574 54.9746C70.8766 54.7752 68.7958 54.6157 66.7015 54.4429C63.1209 54.1505 59.5268 53.8448 55.9462 53.5524C54.0816 53.4062 52.2305 53.2068 50.3659 53.1137C46.4205 52.9277 42.6778 49.8706 41.8671 46.0824C41.8401 45.9362 41.8401 45.79 41.8266 45.564C42.7589 45.6305 43.6506 45.6837 44.5424 45.7501C47.7447 46.0027 50.9469 46.2552 54.1627 46.5077C57.8649 46.8002 61.5536 47.0926 65.2557 47.385C68.1472 47.611 71.0387 47.9034 73.9302 48.0629C76.8352 48.2224 79.0917 49.525 80.7806 51.7713C81.6319 52.9144 82.2669 54.217 82.983 55.4265C82.983 55.3069 82.983 55.0942 82.983 54.8682C82.983 51.3725 82.9965 47.8635 82.9695 44.3678C82.9695 43.7431 83.1046 43.5038 83.7937 43.557C86.4555 43.7697 89.1308 43.9292 91.9142 44.1285C91.9142 44.3944 91.9142 44.6602 91.9142 44.9127C91.9142 48.4351 91.9142 51.9574 91.9142 55.4797C91.9142 57.5266 93.0357 58.6564 95.1165 58.6697C99.8726 58.683 104.615 58.683 109.371 58.6697C111.898 58.6697 112.925 57.6329 112.925 55.1474C112.925 52.2232 112.925 49.299 112.925 46.3748C112.925 46.1356 112.925 45.8963 112.925 45.6039C113.533 45.6039 114.1 45.5773 114.654 45.6039C116.789 45.7235 118.924 45.883 121.059 45.9628C121.653 45.9894 121.802 46.1622 121.802 46.747C121.775 50.6946 121.856 54.629 121.775 58.5766C121.707 62.0724 119.964 64.9965 115.735 66.5251C114.479 66.977 113.195 67.203 111.844 67.203C105.52 67.1764 99.197 67.1897 92.86 67.1897C88.0229 67.1897 84.3072 64.3585 83.1452 59.7463C82.9965 59.2545 82.983 58.7494 82.8884 58.0848Z" fill="white"/>
<path d="M122.532 46.0947C123.802 46.1612 125.018 46.2011 126.221 46.2675C129.883 46.4802 133.544 46.6929 137.206 46.9188C142.624 47.2511 148.029 47.5967 153.433 47.9423C154.312 47.9955 155.203 47.9955 156.055 48.1683C160.068 48.9924 162.675 51.5178 163.608 55.2927C164.918 60.636 161.459 66.2585 155.69 67.0693C155.095 67.149 154.487 67.2022 153.879 67.2022C143.516 67.2155 133.166 67.2022 122.802 67.2022C122.532 67.2022 122.276 67.2022 121.951 67.2022C121.938 66.8965 121.924 66.6572 121.924 66.418C121.924 64.0653 121.965 61.726 121.911 59.3733C121.897 58.6688 122.127 58.5359 122.789 58.5359C132.788 58.5492 142.786 58.5492 152.785 58.5359C153.312 58.5359 153.866 58.4827 154.379 58.3498C155.257 58.1239 155.744 57.4194 155.676 56.582C155.609 55.6649 155.055 55.0534 154.109 54.9604C152.001 54.761 149.893 54.6015 147.785 54.4154C144.718 54.1629 141.651 53.9103 138.571 53.6578C136.084 53.4584 133.598 53.2856 131.099 53.073C127.14 52.7672 123.397 49.9095 122.532 46.0947Z" fill="white"/>
<path d="M1.23828 67.1242C2.84617 64.6785 4.38649 62.3392 5.92682 59.9998C9.42633 54.6699 12.9394 49.3399 16.4389 44.0099C16.6686 43.651 16.8983 43.4117 17.3982 43.4649C20.4518 43.7972 23.519 44.1162 26.5726 44.4352C26.6131 44.4352 26.6402 44.4884 26.7212 44.5415C26.6131 44.7143 26.505 44.9004 26.3969 45.0865C21.6544 52.264 16.9118 59.4416 12.1827 66.6191C11.926 67.0179 11.6422 67.1774 11.1558 67.1774C8.10219 67.1508 5.03505 67.1641 1.96791 67.1641C1.76524 67.1641 1.56256 67.1508 1.23828 67.1242Z" fill="white"/>
<path d="M91.8603 34.189C91.8603 37.0601 91.8603 39.8647 91.8603 42.7225C91.6441 42.7358 91.4414 42.7756 91.2522 42.7756C88.685 42.7756 86.1178 42.7623 83.5641 42.7889C83.0371 42.7889 82.875 42.6427 82.875 42.1243C82.902 39.6653 82.8885 37.2063 82.8885 34.7606C82.8885 34.3884 82.902 34.1226 83.402 34.1226C86.1043 34.1359 88.8066 34.1359 91.4955 34.1359C91.6035 34.1226 91.7116 34.1624 91.8603 34.189Z" fill="white"/>
<path d="M112.805 34.1636C115.818 34.1636 118.75 34.1636 121.736 34.1636C121.736 37.0346 121.736 39.8524 121.736 42.7234C118.763 42.7234 115.804 42.7234 112.805 42.7234C112.805 39.8657 112.805 37.0479 112.805 34.1636Z" fill="white"/>
<path d="M170.377 34.5054C171.012 34.5054 171.647 34.6649 172.255 34.9972C172.863 35.3162 173.336 35.7814 173.687 36.3795C174.025 36.9776 174.201 37.6156 174.201 38.2669C174.201 38.9182 174.038 39.5429 173.701 40.1278C173.363 40.7126 172.89 41.1911 172.295 41.5234C171.701 41.8557 171.052 42.0152 170.39 42.0152C169.728 42.0152 169.093 41.8557 168.485 41.5234C167.877 41.1911 167.404 40.7259 167.066 40.1278C166.729 39.5296 166.566 38.9049 166.566 38.2669C166.566 37.6156 166.742 36.9909 167.08 36.3795C167.418 35.7814 167.904 35.3162 168.512 34.9972C169.107 34.6649 169.742 34.5054 170.377 34.5054ZM170.377 35.1301C169.836 35.1301 169.323 35.263 168.809 35.5421C168.296 35.808 167.904 36.1934 167.62 36.6985C167.337 37.2036 167.188 37.722 167.188 38.2669C167.188 38.8119 167.323 39.3303 167.607 39.8221C167.891 40.3138 168.282 40.6993 168.782 40.9784C169.282 41.2576 169.823 41.3905 170.363 41.3905C170.917 41.3905 171.444 41.2576 171.944 40.9784C172.444 40.6993 172.849 40.3138 173.12 39.8221C173.403 39.3303 173.538 38.8119 173.538 38.2669C173.538 37.722 173.39 37.2036 173.106 36.6985C172.822 36.1934 172.417 35.808 171.917 35.5421C171.431 35.263 170.904 35.1301 170.377 35.1301ZM168.701 40.3404V36.2998H170.106C170.593 36.2998 170.944 36.3396 171.16 36.4061C171.377 36.4858 171.552 36.6055 171.674 36.7915C171.795 36.9776 171.863 37.177 171.863 37.3897C171.863 37.6821 171.755 37.9479 171.539 38.1606C171.323 38.3733 171.039 38.5062 170.687 38.5328C170.836 38.5859 170.944 38.6657 171.039 38.7454C171.201 38.9049 171.404 39.1708 171.647 39.5429L172.147 40.3404H171.336L170.971 39.7024C170.687 39.1973 170.458 38.8916 170.282 38.7587C170.161 38.6657 169.985 38.6258 169.755 38.6258H169.363V40.3404H168.701ZM169.363 38.0675H170.174C170.552 38.0675 170.823 38.0144 170.958 37.8948C171.093 37.7884 171.174 37.6289 171.174 37.4428C171.174 37.3232 171.147 37.2169 171.079 37.1238C171.012 37.0308 170.917 36.9643 170.796 36.9112C170.674 36.8713 170.458 36.8447 170.133 36.8447H169.377V38.0675H169.363Z" fill="white"/>
</svg>
