<svg width="217" height="102" viewBox="0 0 217 102" fill="none" xmlns="http://www.w3.org/2000/svg">
<path d="M12.9357 88.0884H10.3365V87.0394H12.9357C13.4391 87.0394 13.8466 86.9592 14.1585 86.7989C14.4703 86.6385 14.6974 86.4158 14.84 86.1307C14.987 85.8456 15.0605 85.5204 15.0605 85.1552C15.0605 84.8211 14.987 84.5071 14.84 84.2131C14.6974 83.9191 14.4703 83.683 14.1585 83.5048C13.8466 83.3222 13.4391 83.2309 12.9357 83.2309H10.6372V91.9037H9.34766V82.1752H12.9357C13.6707 82.1752 14.2921 82.3021 14.7999 82.556C15.3077 82.8099 15.693 83.1618 15.9558 83.6117C16.2186 84.0572 16.35 84.5672 16.35 85.1418C16.35 85.7654 16.2186 86.2977 15.9558 86.7387C15.693 87.1797 15.3077 87.516 14.7999 87.7477C14.2921 87.9748 13.6707 88.0884 12.9357 88.0884Z" fill="white"/>
<path d="M17.3723 88.3691V88.2154C17.3723 87.6942 17.4481 87.2109 17.5995 86.7655C17.751 86.3156 17.9692 85.9258 18.2543 85.5962C18.5394 85.2621 18.8846 85.0037 19.29 84.8211C19.6953 84.634 20.1497 84.5405 20.653 84.5405C21.1608 84.5405 21.6174 84.634 22.0228 84.8211C22.4326 85.0037 22.78 85.2621 23.0651 85.5962C23.3547 85.9258 23.5752 86.3156 23.7266 86.7655C23.8781 87.2109 23.9538 87.6942 23.9538 88.2154V88.3691C23.9538 88.8902 23.8781 89.3735 23.7266 89.819C23.5752 90.2644 23.3547 90.6542 23.0651 90.9883C22.78 91.3179 22.4348 91.5763 22.0295 91.7634C21.6286 91.946 21.1742 92.0373 20.6664 92.0373C20.1586 92.0373 19.702 91.946 19.2967 91.7634C18.8913 91.5763 18.5439 91.3179 18.2543 90.9883C17.9692 90.6542 17.751 90.2644 17.5995 89.819C17.4481 89.3735 17.3723 88.8902 17.3723 88.3691ZM18.6084 88.2154V88.3691C18.6084 88.7299 18.6508 89.0706 18.7354 89.3914C18.82 89.7076 18.947 89.9883 19.1163 90.2332C19.29 90.4782 19.506 90.672 19.7644 90.8146C20.0227 90.9526 20.3234 91.0217 20.6664 91.0217C21.0049 91.0217 21.3012 90.9526 21.5551 90.8146C21.8134 90.672 22.0272 90.4782 22.1965 90.2332C22.3658 89.9883 22.4927 89.7076 22.5774 89.3914C22.6664 89.0706 22.711 88.7299 22.711 88.3691V88.2154C22.711 87.859 22.6664 87.5227 22.5774 87.2065C22.4927 86.8857 22.3635 86.6029 22.1898 86.3579C22.0206 86.1084 21.8067 85.9124 21.5484 85.7699C21.2945 85.6274 20.996 85.5561 20.653 85.5561C20.3145 85.5561 20.0161 85.6274 19.7577 85.7699C19.5038 85.9124 19.29 86.1084 19.1163 86.3579C18.947 86.6029 18.82 86.8857 18.7354 87.2065C18.6508 87.5227 18.6084 87.859 18.6084 88.2154Z" fill="white"/>
<path d="M27.3347 90.6208L29.1922 84.6741H30.0074L29.847 85.8568L27.9561 91.9037H27.161L27.3347 90.6208ZM26.0852 84.6741L27.6688 90.6876L27.7824 91.9037H26.9472L24.8491 84.6741H26.0852ZM31.7847 90.6408L33.2948 84.6741H34.5242L32.4261 91.9037H31.5976L31.7847 90.6408ZM30.1878 84.6741L32.0052 90.5206L32.2123 91.9037H31.4239L29.4795 85.8434L29.3192 84.6741H30.1878Z" fill="white"/>
<path d="M38.7938 92.0373C38.2904 92.0373 37.8338 91.9527 37.424 91.7834C37.0187 91.6097 36.669 91.3669 36.375 91.0551C36.0855 90.7433 35.8627 90.3736 35.7068 89.9459C35.5509 89.5183 35.473 89.0506 35.473 88.5428V88.2622C35.473 87.6742 35.5598 87.1508 35.7336 86.692C35.9073 86.2287 36.1434 85.8367 36.4418 85.516C36.7403 85.1953 37.0788 84.9525 37.4574 84.7877C37.8361 84.6229 38.2281 84.5405 38.6334 84.5405C39.1501 84.5405 39.5956 84.6296 39.9697 84.8077C40.3484 84.9859 40.658 85.2354 40.8985 85.5561C41.139 85.8723 41.3172 86.2465 41.433 86.6786C41.5488 87.1062 41.6067 87.5739 41.6067 88.0818V88.6363H36.208V87.6274H40.3706V87.5339C40.3528 87.2131 40.286 86.9013 40.1702 86.5984C40.0588 86.2955 39.8806 86.0461 39.6357 85.8501C39.3907 85.6541 39.0566 85.5561 38.6334 85.5561C38.3528 85.5561 38.0944 85.6162 37.8583 85.7365C37.6222 85.8523 37.4196 86.026 37.2503 86.2577C37.081 86.4893 36.9496 86.7721 36.8561 87.1062C36.7625 87.4403 36.7158 87.8256 36.7158 88.2622V88.5428C36.7158 88.8858 36.7625 89.2087 36.8561 89.5116C36.9541 89.8101 37.0944 90.0729 37.277 90.3001C37.4641 90.5272 37.6891 90.7054 37.9519 90.8346C38.2191 90.9638 38.522 91.0284 38.8606 91.0284C39.2971 91.0284 39.6668 90.9393 39.9697 90.7611C40.2726 90.5829 40.5377 90.3446 40.7649 90.0462L41.5132 90.6408C41.3573 90.8769 41.1591 91.1019 40.9185 91.3157C40.678 91.5295 40.3818 91.7032 40.0299 91.8369C39.6824 91.9705 39.2704 92.0373 38.7938 92.0373Z" fill="white"/>
<path d="M44.2861 85.81V91.9037H43.05V84.6741H44.2527L44.2861 85.81ZM46.5445 84.634L46.5378 85.7833C46.4354 85.761 46.3374 85.7476 46.2438 85.7432C46.1547 85.7343 46.0523 85.7298 45.9365 85.7298C45.6514 85.7298 45.3997 85.7744 45.1814 85.8634C44.9632 85.9525 44.7783 86.0773 44.6269 86.2376C44.4754 86.398 44.3551 86.5895 44.2661 86.8122C44.1814 87.0305 44.1257 87.271 44.099 87.5339L43.7516 87.7343C43.7516 87.2978 43.7939 86.888 43.8785 86.5049C43.9676 86.1218 44.1035 85.7833 44.2861 85.4893C44.4687 85.1908 44.7004 84.9592 44.981 84.7944C45.2661 84.6251 45.6046 84.5405 45.9966 84.5405C46.0857 84.5405 46.1881 84.5516 46.304 84.5739C46.4198 84.5917 46.5 84.6117 46.5445 84.634Z" fill="white"/>
<path d="M50.5535 92.0373C50.0501 92.0373 49.5936 91.9527 49.1838 91.7834C48.7784 91.6097 48.4287 91.3669 48.1347 91.0551C47.8452 90.7433 47.6225 90.3736 47.4666 89.9459C47.3107 89.5183 47.2327 89.0506 47.2327 88.5428V88.2622C47.2327 87.6742 47.3196 87.1508 47.4933 86.692C47.667 86.2287 47.9031 85.8367 48.2016 85.516C48.5 85.1953 48.8385 84.9525 49.2172 84.7877C49.5958 84.6229 49.9878 84.5405 50.3931 84.5405C50.9099 84.5405 51.3553 84.6296 51.7295 84.8077C52.1081 84.9859 52.4177 85.2354 52.6582 85.5561C52.8988 85.8723 53.0769 86.2465 53.1928 86.6786C53.3086 87.1062 53.3665 87.5739 53.3665 88.0818V88.6363H47.9677V87.6274H52.1304V87.5339C52.1126 87.2131 52.0457 86.9013 51.9299 86.5984C51.8186 86.2955 51.6404 86.0461 51.3954 85.8501C51.1504 85.6541 50.8163 85.5561 50.3931 85.5561C50.1125 85.5561 49.8542 85.6162 49.6181 85.7365C49.382 85.8523 49.1793 86.026 49.01 86.2577C48.8408 86.4893 48.7094 86.7721 48.6158 87.1062C48.5223 87.4403 48.4755 87.8256 48.4755 88.2622V88.5428C48.4755 88.8858 48.5223 89.2087 48.6158 89.5116C48.7138 89.8101 48.8541 90.0729 49.0368 90.3001C49.2239 90.5272 49.4488 90.7054 49.7116 90.8346C49.9789 90.9638 50.2818 91.0284 50.6203 91.0284C51.0569 91.0284 51.4266 90.9393 51.7295 90.7611C52.0324 90.5829 52.2974 90.3446 52.5246 90.0462L53.2729 90.6408C53.117 90.8769 52.9188 91.1019 52.6783 91.3157C52.4377 91.5295 52.1415 91.7032 51.7896 91.8369C51.4422 91.9705 51.0301 92.0373 50.5535 92.0373Z" fill="white"/>
<path d="M59.3666 90.5005V81.6406H60.6094V91.9037H59.4735L59.3666 90.5005ZM54.5024 88.3691V88.2287C54.5024 87.6764 54.5692 87.1753 54.7028 86.7254C54.8409 86.271 55.0347 85.8813 55.2841 85.5561C55.538 85.2309 55.8387 84.9815 56.1861 84.8077C56.538 84.6296 56.93 84.5405 57.3621 84.5405C57.8165 84.5405 58.2129 84.6206 58.5515 84.781C58.8944 84.9369 59.184 85.1663 59.4201 85.4692C59.6606 85.7677 59.8499 86.1285 59.988 86.5517C60.1261 86.9748 60.2219 87.4537 60.2753 87.9882V88.6029C60.2263 89.133 60.1306 89.6096 59.988 90.0328C59.8499 90.456 59.6606 90.8168 59.4201 91.1152C59.184 91.4137 58.8944 91.6431 58.5515 91.8034C58.2085 91.9593 57.8076 92.0373 57.3488 92.0373C56.9256 92.0373 56.538 91.946 56.1861 91.7634C55.8387 91.5807 55.538 91.3246 55.2841 90.995C55.0347 90.6653 54.8409 90.2778 54.7028 89.8323C54.5692 89.3825 54.5024 88.8947 54.5024 88.3691ZM55.7452 88.2287V88.3691C55.7452 88.7299 55.7808 89.0684 55.8521 89.3847C55.9278 89.7009 56.0436 89.9793 56.1995 90.2199C56.3554 90.4604 56.5536 90.6497 56.7942 90.7878C57.0347 90.9215 57.322 90.9883 57.6561 90.9883C58.0659 90.9883 58.4022 90.9014 58.665 90.7277C58.9323 90.554 59.1461 90.3246 59.3065 90.0395C59.4668 89.7544 59.5916 89.4448 59.6807 89.1107V87.5004C59.6272 87.2555 59.5493 87.0194 59.4468 86.7922C59.3488 86.5606 59.2196 86.3557 59.0593 86.1775C58.9034 85.9948 58.7096 85.8501 58.478 85.7432C58.2508 85.6363 57.9813 85.5828 57.6695 85.5828C57.3309 85.5828 57.0392 85.6541 56.7942 85.7966C56.5536 85.9347 56.3554 86.1263 56.1995 86.3712C56.0436 86.6118 55.9278 86.8924 55.8521 87.2131C55.7808 87.5294 55.7452 87.8679 55.7452 88.2287Z" fill="white"/>
<path d="M65.9213 81.6406H67.1641V90.5005L67.0572 91.9037H65.9213V81.6406ZM72.0484 88.2287V88.3691C72.0484 88.8947 71.9861 89.3825 71.8613 89.8323C71.7366 90.2778 71.554 90.6653 71.3134 90.995C71.0729 91.3246 70.7789 91.5807 70.4315 91.7634C70.084 91.946 69.6853 92.0373 69.2354 92.0373C68.7766 92.0373 68.3735 91.9593 68.0261 91.8034C67.6831 91.6431 67.3935 91.4137 67.1574 91.1152C66.9214 90.8168 66.732 90.456 66.5895 90.0328C66.4514 89.6096 66.3556 89.133 66.3022 88.6029V87.9882C66.3556 87.4537 66.4514 86.9748 66.5895 86.5517C66.732 86.1285 66.9214 85.7677 67.1574 85.4692C67.3935 85.1663 67.6831 84.9369 68.0261 84.781C68.3691 84.6206 68.7677 84.5405 69.2221 84.5405C69.6764 84.5405 70.0796 84.6296 70.4315 84.8077C70.7834 84.9815 71.0774 85.2309 71.3134 85.5561C71.554 85.8813 71.7366 86.271 71.8613 86.7254C71.9861 87.1753 72.0484 87.6764 72.0484 88.2287ZM70.8056 88.3691V88.2287C70.8056 87.8679 70.7722 87.5294 70.7054 87.2131C70.6386 86.8924 70.5317 86.6118 70.3847 86.3712C70.2377 86.1263 70.0439 85.9347 69.8034 85.7966C69.5628 85.6541 69.2666 85.5828 68.9147 85.5828C68.6029 85.5828 68.3312 85.6363 68.0996 85.7432C67.8724 85.8501 67.6786 85.9948 67.5183 86.1775C67.3579 86.3557 67.2265 86.5606 67.124 86.7922C67.026 87.0194 66.9525 87.2555 66.9035 87.5004V89.1107C66.9748 89.4225 67.0906 89.7232 67.251 90.0128C67.4158 90.2978 67.6341 90.5317 67.9058 90.7143C68.182 90.897 68.5227 90.9883 68.9281 90.9883C69.2622 90.9883 69.5473 90.9215 69.7833 90.7878C70.0239 90.6497 70.2176 90.4604 70.3646 90.2199C70.5161 89.9793 70.6275 89.7009 70.6987 89.3847C70.77 89.0684 70.8056 88.7299 70.8056 88.3691Z" fill="white"/>
<path d="M75.563 91.1553L77.5742 84.6741H78.8971L75.9973 93.0195C75.9305 93.1977 75.8414 93.3892 75.73 93.5941C75.6231 93.8035 75.485 94.0017 75.3158 94.1888C75.1465 94.3759 74.9416 94.5273 74.701 94.6432C74.465 94.7634 74.1821 94.8236 73.8525 94.8236C73.7545 94.8236 73.6298 94.8102 73.4783 94.7835C73.3269 94.7567 73.2199 94.7345 73.1576 94.7166L73.1509 93.7144C73.1865 93.7189 73.2422 93.7233 73.3179 93.7278C73.3981 93.7367 73.4538 93.7411 73.485 93.7411C73.7656 93.7411 74.0039 93.7033 74.1999 93.6275C74.3959 93.5563 74.5607 93.4338 74.6944 93.26C74.8325 93.0908 74.9505 92.8569 75.0485 92.5585L75.563 91.1553ZM74.0863 84.6741L75.9639 90.2867L76.2846 91.5896L75.3959 92.044L72.7366 84.6741H74.0863Z" fill="white"/>
<path d="M87.0621 87.3535H84.5966L84.5832 86.3178H86.8216C87.1913 86.3178 87.5143 86.2554 87.7904 86.1307C88.0666 86.006 88.2804 85.8278 88.4319 85.5962C88.5878 85.3601 88.6657 85.0795 88.6657 84.7543C88.6657 84.3979 88.5967 84.1084 88.4586 83.8857C88.325 83.6585 88.1178 83.4937 87.8372 83.3912C87.561 83.2843 87.2091 83.2309 86.7815 83.2309H84.8839V91.9037H83.5943V82.1752H86.7815C87.2804 82.1752 87.7258 82.2264 88.1178 82.3288C88.5098 82.4268 88.8417 82.5827 89.1134 82.7966C89.3896 83.0059 89.5989 83.2732 89.7415 83.5984C89.884 83.9235 89.9553 84.3133 89.9553 84.7676C89.9553 85.1685 89.8528 85.5316 89.6479 85.8568C89.443 86.1775 89.158 86.4403 88.7927 86.6452C88.4319 86.8501 88.0087 86.9815 87.5232 87.0394L87.0621 87.3535ZM87.002 91.9037H84.0888L84.8171 90.8546H87.002C87.4118 90.8546 87.7593 90.7834 88.0443 90.6408C88.3339 90.4983 88.5544 90.2978 88.7058 90.0395C88.8573 89.7767 88.933 89.4671 88.933 89.1107C88.933 88.7499 88.8684 88.4381 88.7392 88.1753C88.6101 87.9125 88.4074 87.7098 88.1312 87.5673C87.855 87.4247 87.4987 87.3535 87.0621 87.3535H85.2247L85.238 86.3178H87.7503L88.0243 86.692C88.492 86.7321 88.8885 86.8657 89.2136 87.0929C89.5388 87.3156 89.786 87.6007 89.9553 87.9481C90.129 88.2956 90.2159 88.6786 90.2159 89.0974C90.2159 89.7032 90.0822 90.2154 89.815 90.6341C89.5522 91.0484 89.1802 91.3647 88.6991 91.5829C88.2181 91.7968 87.6523 91.9037 87.002 91.9037Z" fill="white"/>
<path d="M93.2761 84.6741V91.9037H92.0333V84.6741H93.2761ZM91.9398 82.7565C91.9398 82.556 91.9999 82.3867 92.1202 82.2487C92.2449 82.1106 92.4275 82.0415 92.6681 82.0415C92.9041 82.0415 93.0845 82.1106 93.2093 82.2487C93.3384 82.3867 93.403 82.556 93.403 82.7565C93.403 82.948 93.3384 83.1128 93.2093 83.2509C93.0845 83.3845 92.9041 83.4514 92.6681 83.4514C92.4275 83.4514 92.2449 83.3845 92.1202 83.2509C91.9999 83.1128 91.9398 82.948 91.9398 82.7565Z" fill="white"/>
<path d="M96.4967 86.2176V91.9037H95.2605V84.6741H96.4298L96.4967 86.2176ZM96.2027 88.0149L95.6882 87.9949C95.6926 87.5004 95.7661 87.0439 95.9087 86.6251C96.0512 86.202 96.2517 85.8345 96.51 85.5227C96.7684 85.2109 97.0757 84.9703 97.4321 84.8011C97.7929 84.6273 98.1916 84.5405 98.6281 84.5405C98.9845 84.5405 99.3052 84.5895 99.5903 84.6875C99.8753 84.781 100.118 84.9325 100.319 85.1418C100.523 85.3512 100.679 85.6229 100.786 85.957C100.893 86.2866 100.947 86.6897 100.947 87.1664V91.9037H99.7038V87.153C99.7038 86.7744 99.6482 86.4715 99.5368 86.2443C99.4254 86.0127 99.2629 85.8456 99.049 85.7432C98.8352 85.6363 98.5724 85.5828 98.2606 85.5828C97.9532 85.5828 97.6726 85.6474 97.4187 85.7766C97.1693 85.9058 96.9532 86.0839 96.7706 86.3111C96.5924 86.5383 96.4521 86.7989 96.3496 87.0929C96.2517 87.3824 96.2027 87.6898 96.2027 88.0149Z" fill="white"/>
<path d="M106.479 87.3535H104.014L104 86.3178H106.239C106.608 86.3178 106.931 86.2554 107.207 86.1307C107.484 86.006 107.697 85.8278 107.849 85.5962C108.005 85.3601 108.083 85.0795 108.083 84.7543C108.083 84.3979 108.014 84.1084 107.876 83.8857C107.742 83.6585 107.535 83.4937 107.254 83.3912C106.978 83.2843 106.626 83.2309 106.198 83.2309H104.301V91.9037H103.011V82.1752H106.198C106.697 82.1752 107.143 82.2264 107.535 82.3288C107.927 82.4268 108.259 82.5827 108.53 82.7966C108.807 83.0059 109.016 83.2732 109.158 83.5984C109.301 83.9235 109.372 84.3133 109.372 84.7676C109.372 85.1685 109.27 85.5316 109.065 85.8568C108.86 86.1775 108.575 86.4403 108.21 86.6452C107.849 86.8501 107.426 86.9815 106.94 87.0394L106.479 87.3535ZM106.419 91.9037H103.506L104.234 90.8546H106.419C106.829 90.8546 107.176 90.7834 107.461 90.6408C107.751 90.4983 107.971 90.2978 108.123 90.0395C108.274 89.7767 108.35 89.4671 108.35 89.1107C108.35 88.7499 108.285 88.4381 108.156 88.1753C108.027 87.9125 107.824 87.7098 107.548 87.5673C107.272 87.4247 106.916 87.3535 106.479 87.3535H104.642L104.655 86.3178H107.167L107.441 86.692C107.909 86.7321 108.305 86.8657 108.631 87.0929C108.956 87.3156 109.203 87.6007 109.372 87.9481C109.546 88.2956 109.633 88.6786 109.633 89.0974C109.633 89.7032 109.499 90.2154 109.232 90.6341C108.969 91.0484 108.597 91.3647 108.116 91.5829C107.635 91.7968 107.069 91.9037 106.419 91.9037Z" fill="white"/>
<path d="M111.023 88.3691V88.2154C111.023 87.6942 111.098 87.2109 111.25 86.7655C111.401 86.3156 111.619 85.9258 111.905 85.5962C112.19 85.2621 112.535 85.0037 112.94 84.8211C113.346 84.634 113.8 84.5405 114.303 84.5405C114.811 84.5405 115.268 84.634 115.673 84.8211C116.083 85.0037 116.43 85.2621 116.715 85.5962C117.005 85.9258 117.225 86.3156 117.377 86.7655C117.528 87.2109 117.604 87.6942 117.604 88.2154V88.3691C117.604 88.8902 117.528 89.3735 117.377 89.819C117.225 90.2644 117.005 90.6542 116.715 90.9883C116.43 91.3179 116.085 91.5763 115.68 91.7634C115.279 91.946 114.824 92.0373 114.317 92.0373C113.809 92.0373 113.352 91.946 112.947 91.7634C112.542 91.5763 112.194 91.3179 111.905 90.9883C111.619 90.6542 111.401 90.2644 111.25 89.819C111.098 89.3735 111.023 88.8902 111.023 88.3691ZM112.259 88.2154V88.3691C112.259 88.7299 112.301 89.0706 112.386 89.3914C112.47 89.7076 112.597 89.9883 112.767 90.2332C112.94 90.4782 113.156 90.672 113.415 90.8146C113.673 90.9526 113.974 91.0217 114.317 91.0217C114.655 91.0217 114.951 90.9526 115.205 90.8146C115.464 90.672 115.677 90.4782 115.847 90.2332C116.016 89.9883 116.143 89.7076 116.228 89.3914C116.317 89.0706 116.361 88.7299 116.361 88.3691V88.2154C116.361 87.859 116.317 87.5227 116.228 87.2065C116.143 86.8857 116.014 86.6029 115.84 86.3579C115.671 86.1084 115.457 85.9124 115.199 85.7699C114.945 85.6274 114.646 85.5561 114.303 85.5561C113.965 85.5561 113.666 85.6274 113.408 85.7699C113.154 85.9124 112.94 86.1084 112.767 86.3579C112.597 86.6029 112.47 86.8857 112.386 87.2065C112.301 87.5227 112.259 87.859 112.259 88.2154Z" fill="white"/>
<path d="M119.842 84.6741L121.426 87.3067L123.03 84.6741H124.479L122.114 88.2421L124.553 91.9037H123.123L121.453 89.1909L119.782 91.9037H118.346L120.778 88.2421L118.419 84.6741H119.842Z" fill="white"/>
<path d="M132.01 91.9037H129.978L129.992 90.8546H132.01C132.705 90.8546 133.284 90.7099 133.747 90.4203C134.21 90.1263 134.558 89.7165 134.789 89.1909C135.025 88.6608 135.143 88.0417 135.143 87.3334V86.7387C135.143 86.1819 135.077 85.6875 134.943 85.2554C134.809 84.8189 134.613 84.4514 134.355 84.1529C134.097 83.85 133.78 83.6206 133.406 83.4647C133.036 83.3088 132.611 83.2309 132.13 83.2309H129.938V82.1752H132.13C132.767 82.1752 133.348 82.2821 133.874 82.4959C134.4 82.7052 134.852 83.0104 135.23 83.4113C135.613 83.8077 135.907 84.2888 136.112 84.8545C136.317 85.4158 136.42 86.0483 136.42 86.7521V87.3334C136.42 88.0372 136.317 88.672 136.112 89.2377C135.907 89.7989 135.611 90.2778 135.224 90.6742C134.841 91.0707 134.377 91.3758 133.834 91.5896C133.295 91.799 132.687 91.9037 132.01 91.9037ZM130.667 82.1752V91.9037H129.377V82.1752H130.667Z" fill="white"/>
<path d="M142.433 90.6676V86.9459C142.433 86.6608 142.375 86.4136 142.259 86.2042C142.148 85.9904 141.979 85.8256 141.752 85.7098C141.524 85.5939 141.244 85.536 140.91 85.536C140.598 85.536 140.324 85.5895 140.088 85.6964C139.856 85.8033 139.674 85.9436 139.54 86.1173C139.411 86.2911 139.346 86.4782 139.346 86.6786H138.11C138.11 86.4202 138.177 86.1641 138.311 85.9102C138.444 85.6563 138.636 85.4269 138.885 85.222C139.139 85.0126 139.442 84.8478 139.794 84.7276C140.15 84.6028 140.547 84.5405 140.983 84.5405C141.509 84.5405 141.972 84.6296 142.373 84.8077C142.778 84.9859 143.095 85.2554 143.322 85.6162C143.553 85.9726 143.669 86.4202 143.669 86.9592V90.3268C143.669 90.5673 143.689 90.8235 143.729 91.0952C143.774 91.3669 143.838 91.6008 143.923 91.7968V91.9037H142.634C142.571 91.7611 142.522 91.5718 142.487 91.3357C142.451 91.0952 142.433 90.8725 142.433 90.6676ZM142.647 87.5205L142.66 88.3891H141.411C141.059 88.3891 140.745 88.4181 140.469 88.476C140.193 88.5294 139.961 88.6118 139.774 88.7232C139.587 88.8346 139.444 88.9749 139.346 89.1441C139.248 89.309 139.199 89.5027 139.199 89.7254C139.199 89.9526 139.25 90.1598 139.353 90.3468C139.455 90.5339 139.609 90.6831 139.814 90.7945C140.023 90.9014 140.279 90.9549 140.582 90.9549C140.961 90.9549 141.295 90.8747 141.585 90.7143C141.874 90.554 142.103 90.358 142.273 90.1263C142.446 89.8947 142.54 89.6698 142.553 89.4515L143.081 90.0462C143.05 90.2332 142.965 90.4404 142.827 90.6676C142.689 90.8947 142.504 91.113 142.273 91.3224C142.046 91.5273 141.774 91.6988 141.458 91.8369C141.146 91.9705 140.794 92.0373 140.402 92.0373C139.912 92.0373 139.482 91.9415 139.112 91.75C138.747 91.5584 138.462 91.3023 138.257 90.9816C138.057 90.6564 137.956 90.2934 137.956 89.8925C137.956 89.5049 138.032 89.1642 138.184 88.8702C138.335 88.5717 138.553 88.3245 138.838 88.1285C139.123 87.9281 139.466 87.7766 139.867 87.6742C140.268 87.5717 140.716 87.5205 141.21 87.5205H142.647Z" fill="white"/>
<path d="M148.64 84.6741V85.6229H144.732V84.6741H148.64ZM146.055 82.9168H147.291V90.113C147.291 90.358 147.329 90.5428 147.404 90.6676C147.48 90.7923 147.578 90.8747 147.698 90.9148C147.819 90.9549 147.948 90.9749 148.086 90.9749C148.188 90.9749 148.295 90.966 148.407 90.9482C148.522 90.9259 148.609 90.9081 148.667 90.8947L148.674 91.9037C148.576 91.9348 148.447 91.9638 148.286 91.9905C148.13 92.0217 147.941 92.0373 147.718 92.0373C147.415 92.0373 147.137 91.9772 146.883 91.8569C146.629 91.7366 146.427 91.5362 146.275 91.2555C146.128 90.9705 146.055 90.5874 146.055 90.1063V82.9168Z" fill="white"/>
<path d="M154.353 90.6676V86.9459C154.353 86.6608 154.295 86.4136 154.179 86.2042C154.068 85.9904 153.899 85.8256 153.672 85.7098C153.445 85.5939 153.164 85.536 152.83 85.536C152.518 85.536 152.244 85.5895 152.008 85.6964C151.776 85.8033 151.594 85.9436 151.46 86.1173C151.331 86.2911 151.266 86.4782 151.266 86.6786H150.03C150.03 86.4202 150.097 86.1641 150.231 85.9102C150.364 85.6563 150.556 85.4269 150.805 85.222C151.059 85.0126 151.362 84.8478 151.714 84.7276C152.07 84.6028 152.467 84.5405 152.903 84.5405C153.429 84.5405 153.892 84.6296 154.293 84.8077C154.698 84.9859 155.015 85.2554 155.242 85.6162C155.473 85.9726 155.589 86.4202 155.589 86.9592V90.3268C155.589 90.5673 155.609 90.8235 155.649 91.0952C155.694 91.3669 155.759 91.6008 155.843 91.7968V91.9037H154.554C154.491 91.7611 154.442 91.5718 154.407 91.3357C154.371 91.0952 154.353 90.8725 154.353 90.6676ZM154.567 87.5205L154.58 88.3891H153.331C152.979 88.3891 152.665 88.4181 152.389 88.476C152.113 88.5294 151.881 88.6118 151.694 88.7232C151.507 88.8346 151.364 88.9749 151.266 89.1441C151.168 89.309 151.119 89.5027 151.119 89.7254C151.119 89.9526 151.171 90.1598 151.273 90.3468C151.375 90.5339 151.529 90.6831 151.734 90.7945C151.943 90.9014 152.199 90.9549 152.502 90.9549C152.881 90.9549 153.215 90.8747 153.505 90.7143C153.794 90.554 154.024 90.358 154.193 90.1263C154.367 89.8947 154.46 89.6698 154.473 89.4515L155.001 90.0462C154.97 90.2332 154.886 90.4404 154.747 90.6676C154.609 90.8947 154.424 91.113 154.193 91.3224C153.966 91.5273 153.694 91.6988 153.378 91.8369C153.066 91.9705 152.714 92.0373 152.322 92.0373C151.832 92.0373 151.402 91.9415 151.032 91.75C150.667 91.5584 150.382 91.3023 150.177 90.9816C149.977 90.6564 149.876 90.2934 149.876 89.8925C149.876 89.5049 149.952 89.1642 150.104 88.8702C150.255 88.5717 150.473 88.3245 150.758 88.1285C151.044 87.9281 151.387 87.7766 151.787 87.6742C152.188 87.5717 152.636 87.5205 153.13 87.5205H154.567Z" fill="white"/>
<path d="M166.988 88.8101H168.271C168.204 89.4248 168.028 89.9749 167.743 90.4604C167.458 90.946 167.055 91.3313 166.534 91.6164C166.013 91.897 165.362 92.0373 164.583 92.0373C164.013 92.0373 163.494 91.9304 163.026 91.7166C162.563 91.5028 162.164 91.1999 161.83 90.8079C161.496 90.4114 161.238 89.937 161.055 89.3847C160.877 88.8279 160.788 88.2087 160.788 87.5272V86.5583C160.788 85.8768 160.877 85.2599 161.055 84.7075C161.238 84.1507 161.498 83.6741 161.837 83.2776C162.18 82.8812 162.592 82.5761 163.073 82.3622C163.554 82.1484 164.095 82.0415 164.696 82.0415C165.431 82.0415 166.053 82.1796 166.561 82.4558C167.068 82.732 167.463 83.115 167.743 83.605C168.028 84.0906 168.204 84.6541 168.271 85.2955H166.988C166.926 84.8411 166.81 84.4514 166.641 84.1262C166.472 83.7966 166.231 83.5427 165.919 83.3645C165.607 83.1863 165.2 83.0972 164.696 83.0972C164.264 83.0972 163.883 83.1796 163.554 83.3445C163.229 83.5093 162.955 83.7431 162.732 84.046C162.514 84.3489 162.349 84.712 162.238 85.1351C162.126 85.5583 162.071 86.0283 162.071 86.545V87.5272C162.071 88.0038 162.12 88.4515 162.218 88.8702C162.32 89.2889 162.474 89.6564 162.679 89.9727C162.883 90.2889 163.144 90.5384 163.46 90.721C163.777 90.8992 164.151 90.9883 164.583 90.9883C165.131 90.9883 165.567 90.9014 165.892 90.7277C166.218 90.554 166.463 90.3045 166.627 89.9793C166.797 89.6542 166.917 89.2644 166.988 88.8101Z" fill="white"/>
<path d="M172.841 92.0373C172.338 92.0373 171.881 91.9527 171.472 91.7834C171.066 91.6097 170.717 91.3669 170.423 91.0551C170.133 90.7433 169.91 90.3736 169.754 89.9459C169.599 89.5183 169.521 89.0506 169.521 88.5428V88.2622C169.521 87.6742 169.607 87.1508 169.781 86.692C169.955 86.2287 170.191 85.8367 170.489 85.516C170.788 85.1953 171.126 84.9525 171.505 84.7877C171.884 84.6229 172.276 84.5405 172.681 84.5405C173.198 84.5405 173.643 84.6296 174.017 84.8077C174.396 84.9859 174.706 85.2354 174.946 85.5561C175.187 85.8723 175.365 86.2465 175.481 86.6786C175.596 87.1062 175.654 87.5739 175.654 88.0818V88.6363H170.256V87.6274H174.418V87.5339C174.4 87.2131 174.334 86.9013 174.218 86.5984C174.106 86.2955 173.928 86.0461 173.683 85.8501C173.438 85.6541 173.104 85.5561 172.681 85.5561C172.4 85.5561 172.142 85.6162 171.906 85.7365C171.67 85.8523 171.467 86.026 171.298 86.2577C171.129 86.4893 170.997 86.7721 170.904 87.1062C170.81 87.4403 170.763 87.8256 170.763 88.2622V88.5428C170.763 88.8858 170.81 89.2087 170.904 89.5116C171.002 89.8101 171.142 90.0729 171.325 90.3001C171.512 90.5272 171.737 90.7054 171.999 90.8346C172.267 90.9638 172.57 91.0284 172.908 91.0284C173.345 91.0284 173.714 90.9393 174.017 90.7611C174.32 90.5829 174.585 90.3446 174.812 90.0462L175.561 90.6408C175.405 90.8769 175.207 91.1019 174.966 91.3157C174.726 91.5295 174.429 91.7032 174.077 91.8369C173.73 91.9705 173.318 92.0373 172.841 92.0373Z" fill="white"/>
<path d="M178.334 86.2176V91.9037H177.098V84.6741H178.267L178.334 86.2176ZM178.04 88.0149L177.525 87.9949C177.53 87.5004 177.603 87.0439 177.746 86.6251C177.888 86.202 178.089 85.8345 178.347 85.5227C178.605 85.2109 178.913 84.9703 179.269 84.8011C179.63 84.6273 180.029 84.5405 180.465 84.5405C180.822 84.5405 181.142 84.5895 181.427 84.6875C181.712 84.781 181.955 84.9325 182.156 85.1418C182.361 85.3512 182.516 85.6229 182.623 85.957C182.73 86.2866 182.784 86.6897 182.784 87.1664V91.9037H181.541V87.153C181.541 86.7744 181.485 86.4715 181.374 86.2443C181.263 86.0127 181.1 85.8456 180.886 85.7432C180.672 85.6363 180.409 85.5828 180.098 85.5828C179.79 85.5828 179.51 85.6474 179.256 85.7766C179.006 85.9058 178.79 86.0839 178.608 86.3111C178.429 86.5383 178.289 86.7989 178.187 87.0929C178.089 87.3824 178.04 87.6898 178.04 88.0149Z" fill="white"/>
<path d="M187.688 84.6741V85.6229H183.779V84.6741H187.688ZM185.102 82.9168H186.338V90.113C186.338 90.358 186.376 90.5428 186.452 90.6676C186.528 90.7923 186.626 90.8747 186.746 90.9148C186.866 90.9549 186.995 90.9749 187.133 90.9749C187.236 90.9749 187.343 90.966 187.454 90.9482C187.57 90.9259 187.657 90.9081 187.715 90.8947L187.721 91.9037C187.623 91.9348 187.494 91.9638 187.334 91.9905C187.178 92.0217 186.989 92.0373 186.766 92.0373C186.463 92.0373 186.185 91.9772 185.931 91.8569C185.677 91.7366 185.474 91.5362 185.323 91.2555C185.176 90.9705 185.102 90.5874 185.102 90.1063V82.9168Z" fill="white"/>
<path d="M192.138 92.0373C191.635 92.0373 191.178 91.9527 190.768 91.7834C190.363 91.6097 190.013 91.3669 189.719 91.0551C189.43 90.7433 189.207 90.3736 189.051 89.9459C188.895 89.5183 188.817 89.0506 188.817 88.5428V88.2622C188.817 87.6742 188.904 87.1508 189.078 86.692C189.252 86.2287 189.488 85.8367 189.786 85.516C190.085 85.1953 190.423 84.9525 190.802 84.7877C191.18 84.6229 191.572 84.5405 191.978 84.5405C192.494 84.5405 192.94 84.6296 193.314 84.8077C193.693 84.9859 194.002 85.2354 194.243 85.5561C194.483 85.8723 194.661 86.2465 194.777 86.6786C194.893 87.1062 194.951 87.5739 194.951 88.0818V88.6363H189.552V87.6274H193.715V87.5339C193.697 87.2131 193.63 86.9013 193.514 86.5984C193.403 86.2955 193.225 86.0461 192.98 85.8501C192.735 85.6541 192.401 85.5561 191.978 85.5561C191.697 85.5561 191.439 85.6162 191.203 85.7365C190.967 85.8523 190.764 86.026 190.595 86.2577C190.425 86.4893 190.294 86.7721 190.2 87.1062C190.107 87.4403 190.06 87.8256 190.06 88.2622V88.5428C190.06 88.8858 190.107 89.2087 190.2 89.5116C190.298 89.8101 190.439 90.0729 190.621 90.3001C190.808 90.5272 191.033 90.7054 191.296 90.8346C191.563 90.9638 191.866 91.0284 192.205 91.0284C192.641 91.0284 193.011 90.9393 193.314 90.7611C193.617 90.5829 193.882 90.3446 194.109 90.0462L194.857 90.6408C194.702 90.8769 194.503 91.1019 194.263 91.3157C194.022 91.5295 193.726 91.7032 193.374 91.8369C193.027 91.9705 192.615 92.0373 192.138 92.0373Z" fill="white"/>
<path d="M197.63 85.81V91.9037H196.394V84.6741H197.597L197.63 85.81ZM199.889 84.634L199.882 85.7833C199.78 85.761 199.682 85.7476 199.588 85.7432C199.499 85.7343 199.397 85.7298 199.281 85.7298C198.996 85.7298 198.744 85.7744 198.526 85.8634C198.307 85.9525 198.123 86.0773 197.971 86.2376C197.82 86.398 197.699 86.5895 197.61 86.8122C197.526 87.0305 197.47 87.271 197.443 87.5339L197.096 87.7343C197.096 87.2978 197.138 86.888 197.223 86.5049C197.312 86.1218 197.448 85.7833 197.63 85.4893C197.813 85.1908 198.045 84.9592 198.325 84.7944C198.61 84.6251 198.949 84.5405 199.341 84.5405C199.43 84.5405 199.532 84.5516 199.648 84.5739C199.764 84.5917 199.844 84.6117 199.889 84.634Z" fill="white"/>
<path d="M205.241 89.986C205.241 89.8078 205.201 89.643 205.121 89.4916C205.045 89.3357 204.887 89.1954 204.646 89.0706C204.41 88.9415 204.054 88.8301 203.577 88.7366C203.176 88.6519 202.813 88.5517 202.488 88.4359C202.167 88.3201 201.893 88.1798 201.666 88.0149C201.443 87.8501 201.272 87.6564 201.152 87.4336C201.031 87.2109 200.971 86.9503 200.971 86.6519C200.971 86.3668 201.034 86.0973 201.158 85.8434C201.287 85.5895 201.468 85.3645 201.7 85.1685C201.936 84.9725 202.218 84.8189 202.548 84.7075C202.878 84.5961 203.245 84.5405 203.651 84.5405C204.23 84.5405 204.724 84.6429 205.134 84.8478C205.544 85.0527 205.858 85.3267 206.076 85.6697C206.294 86.0082 206.403 86.3846 206.403 86.7989H205.167C205.167 86.5984 205.107 86.4047 204.987 86.2176C204.871 86.026 204.7 85.8679 204.472 85.7432C204.25 85.6184 203.976 85.5561 203.651 85.5561C203.308 85.5561 203.029 85.6095 202.815 85.7164C202.606 85.8189 202.452 85.9503 202.354 86.1107C202.261 86.271 202.214 86.4403 202.214 86.6185C202.214 86.7521 202.236 86.8724 202.281 86.9793C202.33 87.0817 202.414 87.1775 202.535 87.2666C202.655 87.3512 202.824 87.4314 203.043 87.5071C203.261 87.5829 203.539 87.6586 203.878 87.7343C204.47 87.8679 204.958 88.0283 205.341 88.2154C205.724 88.4025 206.009 88.6319 206.196 88.9036C206.383 89.1753 206.477 89.5049 206.477 89.8925C206.477 90.2087 206.41 90.4983 206.276 90.7611C206.147 91.0239 205.958 91.2511 205.709 91.4426C205.464 91.6297 205.17 91.7767 204.827 91.8836C204.488 91.9861 204.107 92.0373 203.684 92.0373C203.047 92.0373 202.508 91.9237 202.067 91.6965C201.626 91.4694 201.292 91.1754 201.065 90.8146C200.838 90.4537 200.724 90.0729 200.724 89.672H201.967C201.985 90.0105 202.083 90.28 202.261 90.4805C202.439 90.6765 202.657 90.8168 202.916 90.9014C203.174 90.9816 203.43 91.0217 203.684 91.0217C204.022 91.0217 204.305 90.9771 204.533 90.8881C204.764 90.799 204.94 90.6765 205.06 90.5206C205.181 90.3647 205.241 90.1865 205.241 89.986Z" fill="white"/>
<path fill-rule="evenodd" clip-rule="evenodd" d="M28.1158 23.9338C28.1158 33.9559 23.9687 38.4486 23.9687 38.4486C23.9687 38.4486 26.8486 41.6741 27.655 46.0515C28.4614 50.429 28.231 60.1054 25.2359 64.2525C21.6648 69.206 16.9417 70.2427 13.3706 70.2427H0.238281V7H13.7162C13.7162 7 20.5128 7.34559 23.6231 10.8015C27.655 15.2941 28.1158 18.75 28.1158 23.9338ZM8.18682 62.4094H14.177C15.7898 62.4094 20.3976 62.179 20.3976 52.1569C20.3976 42.4915 15.4757 42.5652 13.6196 42.593C13.529 42.5944 13.4457 42.5956 13.3706 42.5956H8.18682V62.4094ZM8.18682 34.7623H14.177C15.7898 34.7623 20.3976 34.5319 20.3976 24.5098C20.3976 14.8444 15.4757 14.9181 13.6196 14.9459L13.6196 14.9459C13.529 14.9473 13.4457 14.9485 13.3706 14.9485H8.18682V34.7623ZM108.638 23.9338C108.638 33.9559 104.491 38.4486 104.491 38.4486C104.491 38.4486 107.371 41.6741 108.177 46.0515C108.984 50.429 108.753 60.1054 105.758 64.2525C102.187 69.206 97.4642 70.2427 93.8931 70.2427H80.7607V7H94.2387C94.2387 7 101.035 7.34559 104.146 10.8015C108.177 15.2941 108.638 18.75 108.638 23.9338ZM88.7093 62.4094H94.6995C96.197 62.4094 100.92 62.179 100.92 52.1569C100.92 42.4915 95.9981 42.5652 94.1421 42.593C94.0515 42.5944 93.9682 42.5956 93.8931 42.5956H88.7093V62.4094ZM88.7093 34.7623H94.6995C96.197 34.7623 100.92 34.5319 100.92 24.5098C100.92 14.8444 95.9981 14.9181 94.1421 14.9459C94.0515 14.9473 93.9682 14.9485 93.8931 14.9485H88.7093V34.7623ZM40.3266 7.11528H32.3781V70.358H40.3266V7.11528ZM69.2411 48.2403V7.11528H77.1896V70.358H69.2411L54.1504 30.3849V70.0124H46.3171V7.57606H54.1504L69.2411 48.2403ZM162.837 30.9619V22.207H154.082V30.9619H162.837ZM162.898 35.0536V43.8085H154.143V35.0536H162.898ZM162.843 56.6551V47.9002H154.088V56.6551H162.843ZM149.603 34.986V43.7409H140.848V34.986H149.603ZM149.547 56.5875V47.8326H140.792V56.5875H149.547ZM136.227 47.903V56.6579H127.472V47.903H136.227ZM167.503 22.09V61.6023H122.922V17.1366H163.702V8.38165H114.167V16.4454V17.1366V70.3572H121.77H122.922H167.503H176.258V61.6023V22.09H167.503ZM204.135 25.315H215.655L202.292 47.8935L215.655 70.3567H204.135L196.532 57.4548L188.814 70.3567H177.64L190.888 47.8935L177.64 25.315H188.814L196.532 38.3322L204.135 25.315Z" fill="white"/>
</svg>
