<svg width="158" height="102" viewBox="0 0 158 102" fill="none" xmlns="http://www.w3.org/2000/svg">
<path d="M0 60.826C0.0645838 60.2007 0.129168 59.5754 0.184525 58.9411C0.710422 52.7788 2.79556 47.124 6.08933 41.886C9.02328 37.219 12.7046 33.1863 16.8656 29.5614C16.9302 29.507 17.004 29.4617 17.1332 29.3711C17.1332 30.6942 17.1424 31.9629 17.1239 33.2225C17.1239 33.3675 16.9948 33.5216 16.8841 33.6394C12.9998 37.9258 10.1304 42.8013 8.23905 48.2205C6.62445 52.8422 5.84022 57.5818 6.28308 62.4663C6.9935 70.3323 10.5087 76.7121 16.9394 81.506C21.2758 84.7412 26.1841 86.8074 31.3693 88.3027C35.7887 89.5804 40.3095 90.3598 44.8857 90.8673C51.3903 91.6013 57.9132 91.7463 64.4546 91.4835C67.9698 91.3385 71.485 91.1391 74.991 90.8219C83.1563 90.0879 91.1739 88.5564 99.09 86.4993C107.126 84.415 114.996 81.8322 122.552 78.4067C125.154 77.2196 127.664 75.833 130.219 74.5372C130.312 74.4918 130.404 74.4375 130.552 74.365C130.57 74.51 130.588 74.6187 130.588 74.7275C130.588 78.3342 130.579 81.95 130.598 85.5568C130.598 85.9102 130.432 86.028 130.173 86.164C126.197 88.2573 122.091 90.0517 117.875 91.6194C110.042 94.5375 101.996 96.7396 93.8126 98.4251C88.5075 99.5217 83.1655 100.41 77.7681 100.935C74.8803 101.216 71.9833 101.425 69.0862 101.597C66.955 101.724 64.8145 101.742 62.6832 101.814C62.554 101.814 62.4156 101.869 62.2865 101.896C61.4561 101.896 60.6257 101.896 59.7954 101.896C59.6201 101.869 59.4356 101.823 59.2603 101.814C58.0055 101.778 56.7415 101.796 55.4867 101.715C52.359 101.497 49.2313 101.307 46.1221 100.972C40.1065 100.328 34.211 99.0867 28.4815 97.1474C22.4752 95.1174 16.8748 92.3535 11.9941 88.2936C7.53785 84.569 4.16104 80.1195 2.1774 74.6912C1.07947 71.7007 0.488992 68.5923 0.193751 65.4296C0.129168 64.7409 0.0645838 64.0522 0 63.3634C0 62.5207 0 61.6688 0 60.826Z" fill="white"/>
<path d="M104.257 0.0181244C104.562 0.0453111 104.857 0.0906221 105.162 0.108747C107.45 0.24468 109.738 0.299053 112.017 0.507484C120.717 1.30496 129.168 3.07209 137.121 6.76947C141.402 8.76316 145.324 11.2825 148.673 14.6083C153.304 19.2209 156.1 24.7308 156.939 31.174C158.167 40.5534 155.602 48.9088 149.734 56.3126C145.646 61.478 140.526 65.3748 134.326 67.8488C134.187 67.9031 134.04 67.9575 133.892 68.0028C133.855 68.0119 133.8 68.0028 133.717 68.0028C133.717 67.8397 133.717 67.6947 133.717 67.5497C133.717 65.0848 133.726 62.6289 133.708 60.164C133.708 59.8106 133.828 59.6293 134.132 59.4481C139.391 56.2491 143.617 52.0805 146.449 46.6341C148.534 42.6286 149.595 38.3785 149.3 33.8745C148.903 28.0294 146.661 22.9365 142.602 18.6319C139.29 15.1158 135.258 12.6146 130.82 10.6934C126.391 8.78128 121.769 7.53976 117.017 6.69697C112.939 5.98106 108.834 5.57326 104.7 5.41014C99.2107 5.20171 93.7303 5.35577 88.2591 5.86325C77.326 6.86916 66.6789 9.0894 56.2532 12.3427C49.3243 14.5086 42.5983 17.1638 36.0846 20.3265C35.5495 20.5893 35.0143 20.8431 34.47 21.1059C34.4608 21.115 34.4423 21.1059 34.3408 21.1059C34.3408 20.5622 34.3962 20.0094 34.3316 19.4656C34.2117 18.5866 34.5623 18.1154 35.3465 17.6622C44.1114 12.6146 53.3931 8.72691 63.1083 5.83606C68.7733 4.15049 74.5212 2.80022 80.3707 1.86682C83.5076 1.36839 86.663 0.960594 89.8276 0.661541C92.9553 0.371551 96.1107 0.262804 99.2476 0.0815599C99.3768 0.0724977 99.5152 0.0271866 99.6443 0C101.185 0.0181244 102.717 0.0181244 104.257 0.0181244Z" fill="white"/>
<path d="M109.358 59.0688C110.991 60.6094 112.597 62.1228 114.368 63.7811C114.147 63.9171 113.934 63.9986 113.778 64.1436C110.576 67.2338 106.683 68.5932 102.245 68.6113C100.03 68.6204 97.8531 68.3757 95.768 67.6145C92.1144 66.2914 89.4941 63.8627 88.1379 60.2831C86.228 55.2173 86.1081 50.0519 88.1379 45.0042C90.1769 39.9203 94.1534 37.1292 99.6522 36.4495C102.245 36.1323 104.782 36.3498 107.19 37.4282C110.696 38.996 112.837 41.7418 114.1 45.2308C114.866 47.3423 115.162 49.5353 115.198 51.7737C115.217 52.6618 115.189 53.559 115.208 54.4471C115.217 54.7914 115.115 54.882 114.765 54.882C108.306 54.873 101.848 54.873 95.3897 54.873C95.2974 54.873 95.2052 54.882 95.1129 54.873C94.7992 54.8549 94.6977 54.9636 94.7069 55.2989C94.8546 59.531 97.8808 62.1681 102.337 62.0503C104.976 61.9778 107.227 61.135 109.091 59.2863C109.155 59.2228 109.229 59.1775 109.358 59.0688ZM100.962 49.5897C102.881 49.5897 104.8 49.5806 106.729 49.5988C107.135 49.5988 107.319 49.481 107.227 49.0822C107.015 48.1579 106.904 47.1973 106.563 46.3183C105.908 44.5964 104.699 43.3912 102.808 42.9562C98.6373 42.0046 94.9099 44.823 94.7254 49.046C94.7069 49.4991 94.8638 49.6078 95.2882 49.5988C97.1796 49.5806 99.071 49.5897 100.962 49.5897Z" fill="white"/>
<path d="M38.2983 52.4873C38.2983 47.4578 38.3075 42.4283 38.2891 37.3988C38.2891 36.9638 38.3998 36.8369 38.8519 36.8369C42.1272 36.855 45.4025 36.846 48.6778 36.846C50.8921 36.846 53.1065 36.855 55.3208 36.8822C57.8211 36.9185 60.0907 37.5619 61.8991 39.3743C63.3107 40.788 64.0211 42.537 64.2887 44.4673C64.3717 45.0291 64.3902 45.6091 64.3902 46.18C64.3994 53.2666 64.3902 60.3442 64.3902 67.4308C64.3902 68.0924 64.3902 68.0924 63.7074 68.0924C61.5116 68.0924 59.3065 68.0924 57.1107 68.0924C56.4464 68.0924 56.4464 68.0924 56.4464 67.449C56.4464 60.5345 56.4464 53.6201 56.4371 46.6966C56.4371 46.2435 56.4187 45.7903 56.3264 45.3463C56.0958 44.1863 55.2839 43.4704 54.0199 43.2439C53.7338 43.1895 53.4386 43.1533 53.1526 43.1533C51.0121 43.1442 48.8808 43.1623 46.7403 43.1442C46.2698 43.1442 46.279 43.3889 46.279 43.7242C46.279 51.6264 46.279 59.5195 46.279 67.4218C46.279 68.1014 46.279 68.1014 45.5778 68.1014C43.3635 68.1014 41.1492 68.1014 38.9349 68.1014C38.2983 68.1014 38.2983 68.1014 38.2983 67.4943C38.2983 62.4829 38.2983 57.4896 38.2983 52.4873Z" fill="white"/>
<path d="M70.5717 44.4055C70.5717 39.24 70.5717 34.0745 70.5717 28.9091C70.5717 28.311 70.5717 28.3019 71.1622 28.3019C73.4226 28.3019 75.6831 28.32 77.9435 28.2928C78.4325 28.2838 78.5248 28.4469 78.5248 28.8819C78.5063 31.3468 78.5248 33.8027 78.5063 36.2676C78.5063 36.7116 78.6263 36.8748 79.0968 36.8657C80.7575 36.8385 82.4183 36.8657 84.079 36.8476C84.5126 36.8385 84.6234 36.9835 84.6141 37.3913C84.5957 39.1403 84.5957 40.8984 84.6141 42.6474C84.6141 43.0371 84.5126 43.173 84.0975 43.1639C82.4367 43.1458 80.776 43.1639 79.1153 43.1458C78.6632 43.1367 78.4971 43.2546 78.4971 43.7258C78.5156 48.6828 78.5063 53.6308 78.5063 58.5878C78.5063 58.7509 78.5156 58.9231 78.534 59.0862C78.7093 60.6993 79.6043 61.524 81.2558 61.5602C82.2061 61.5874 83.1656 61.5874 84.1159 61.5602C84.5126 61.5512 84.6049 61.6871 84.6049 62.0587C84.5864 63.8983 84.5864 65.747 84.6049 67.5866C84.6049 67.9491 84.5126 68.0941 84.1159 68.085C82.2245 68.0488 80.3239 68.1666 78.451 67.9853C73.6164 67.5141 70.5717 64.1067 70.5625 59.3219C70.5625 54.3377 70.5717 49.3715 70.5717 44.4055Z" fill="white"/>
<path d="M120.016 23.8616C121.51 23.8616 122.922 23.8616 124.343 23.8616C125.431 23.8616 126.529 23.8707 127.618 23.8525C127.959 23.8435 128.107 23.9613 128.061 24.2966C128.052 24.3963 128.061 24.505 128.061 24.6138C128.061 38.7599 128.061 52.906 128.061 67.0611C128.061 67.2786 128.061 67.5052 128.061 67.777C126.695 67.6502 125.45 67.3692 124.278 66.8164C121.381 65.448 120.108 63.0375 120.071 60.0107C119.997 54.5281 120.034 49.0455 120.034 43.5719C120.034 37.183 120.034 30.7942 120.034 24.4144C120.016 24.2422 120.016 24.0791 120.016 23.8616Z" fill="white"/>
<path d="M30.9983 68.4004C26.2837 68.0379 23.5435 65.5277 23.0729 61.5675C23.0083 61.0419 22.9807 60.5163 22.9807 59.9907C22.9714 52.4872 22.9807 44.9838 22.9807 37.4803C22.9807 36.855 22.9807 36.846 23.6357 36.846C25.9146 36.846 28.1843 36.855 30.4632 36.8369C30.9061 36.8369 31.0352 36.9638 31.0352 37.3988C31.026 47.6027 31.026 57.8067 31.026 68.0107C31.0168 68.1376 31.0076 68.2554 30.9983 68.4004Z" fill="white"/>
<path d="M26.9875 32.4245C25.8065 32.4245 24.6256 32.4155 23.4354 32.4336C23.0663 32.4426 22.9648 32.3158 22.9648 31.9714C22.9741 29.7874 22.9741 27.5943 22.9648 25.4102C22.9648 25.0658 23.0571 24.939 23.4262 24.939C25.7881 24.9571 28.1592 24.948 30.5211 24.939C30.8902 24.939 30.9917 25.0568 30.9917 25.4102C30.9824 27.5943 30.9824 29.7874 30.9917 31.9714C30.9917 32.3158 30.8994 32.4426 30.5211 32.4426C29.3586 32.4064 28.1777 32.4245 26.9875 32.4245Z" fill="white"/>
<path d="M136.873 30.1047C135.074 30.1047 133.699 28.7363 133.699 26.9692C133.699 25.2202 135.111 23.8518 136.901 23.8609C138.691 23.8699 140.084 25.2474 140.065 27.0054C140.065 28.7725 138.681 30.1137 136.873 30.1047ZM136.873 29.6606C138.368 29.6697 139.613 28.4644 139.632 27.0054C139.65 25.5374 138.386 24.2777 136.892 24.2777C135.425 24.2777 134.161 25.5102 134.161 26.9692C134.151 28.4372 135.378 29.6606 136.873 29.6606Z" fill="white"/>
<path d="M137.573 27.2948C137.859 27.7932 138.135 28.2554 138.421 28.7629C137.96 28.8988 137.637 28.8988 137.425 28.4548C137.287 28.1557 137.111 27.8657 136.899 27.6029C136.798 27.476 136.585 27.4307 136.419 27.3492C136.364 27.4851 136.272 27.621 136.253 27.766C136.225 27.9926 136.235 28.2191 136.244 28.4457C136.253 28.6904 136.207 28.8445 135.903 28.8535C135.58 28.8626 135.515 28.7085 135.524 28.4366C135.533 27.4579 135.533 26.4792 135.524 25.5005C135.524 25.1742 135.644 25.0292 135.986 25.0473C136.382 25.0564 136.788 25.0292 137.185 25.0564C137.803 25.1017 138.117 25.3373 138.246 25.8267C138.394 26.3886 138.237 26.8236 137.757 27.1589C137.692 27.177 137.656 27.2223 137.573 27.2948ZM136.207 26.1167C136.207 26.7873 136.235 26.8236 136.714 26.8145C137.268 26.8054 137.563 26.6061 137.573 26.2073C137.582 25.7814 137.296 25.6092 136.696 25.582C136.189 25.5639 136.189 25.8539 136.207 26.1167Z" fill="white"/>
</svg>
