<svg width="168" height="102" viewBox="0 0 168 102" fill="none" xmlns="http://www.w3.org/2000/svg">
<path d="M146.803 24.9118L147.333 25.2034L147.26 25.36L124.697 73.3825C123.233 76.4041 120.934 78 118.049 78C115.263 78 112.928 76.3997 111.298 73.3728L88.8397 25.2043L89.3765 24.9048C90.9826 23.9665 92.9226 23.7464 94.6972 24.2987C96.5331 24.8712 98.0108 26.1818 98.8568 27.9886C104.647 39.8954 114.887 62.0968 117.888 68.6176L118.034 68.9383L137.174 28.1438C138.068 26.27 139.596 24.9132 141.475 24.3238C143.273 23.7649 145.164 23.9736 146.803 24.9118ZM0.679688 32.062C0.679688 27.6765 3.96329 24.1088 7.99899 24.1088H8.54375V69.9752C8.54375 74.2442 5.19222 77.8502 1.2249 77.8502H0.679688V32.062ZM19.66 51.1194L51.6791 74.3155C50.4886 76.0601 48.6086 77.315 46.5887 77.6957C44.8159 78.0287 43.0925 77.6586 41.7401 76.6511L13.1052 55.3112C11.7995 54.3382 11.0439 52.834 11.0342 51.1847C11.0245 49.5349 11.7615 48.0211 13.0566 47.0316L41.1093 25.5828C42.3021 24.6715 43.7185 24.1951 45.1926 24.1951C45.5958 24.1951 46.0021 24.2312 46.4101 24.3031C48.3924 24.6521 50.1908 25.8289 51.3893 27.5523C43.4185 33.6577 20.2776 50.6646 20.0438 50.838L19.66 51.1194ZM74.1674 24.1089H74.7117V69.9752C74.7117 74.2438 71.3602 77.8499 67.3933 77.8499H66.8477V32.062C66.8477 27.6766 70.1313 24.1089 74.1674 24.1089ZM166.245 24.1089H166.79V69.9752C166.79 74.2438 163.438 77.8499 159.471 77.8499H158.926V32.062C158.926 27.6766 162.21 24.1089 166.245 24.1089Z" fill="white"/>
</svg>
