<svg width="275" height="102" viewBox="0 0 275 102" fill="none" xmlns="http://www.w3.org/2000/svg">
<path d="M0.238281 46.7992C8.47292 39.5601 17.4808 33.9833 28.6729 32.5722C28.6729 30.3976 28.6729 28.2616 28.6729 26C44.6879 26 60.6063 26 76.6117 26C76.6117 42.7302 76.6117 59.4605 76.6117 76.3164C60.732 76.3164 44.8136 76.3164 28.7889 76.3164C28.7889 74.48 28.7889 72.6243 28.7889 70.5946C21.4048 69.8504 15.1708 66.7576 9.95168 61.6544C5.66039 57.4695 2.45158 52.5306 0.238281 46.7992ZM28.9532 36.303C33.3895 36.0227 37.4295 36.9409 41.2182 38.9705C44.9972 41.0002 48.2254 43.6677 50.8639 47.0699C47.8194 51.0519 44.4463 54.4443 40.271 56.9766C37.4585 58.6873 34.4333 59.6538 31.0699 59.3252C30.3933 59.2575 29.7457 58.8612 28.9435 59.1222C28.8566 60.166 28.8469 61.2099 28.9532 62.2923C33.4958 63.1815 37.6614 62.186 41.6628 60.3497C46.6016 58.088 50.8446 54.8019 54.7203 51.0422C56.0927 49.7084 57.5232 48.4326 58.7023 46.7509C50.7576 37.917 41.3728 32.2533 29.0209 32.6496C28.8082 33.906 28.8952 35.0078 28.9532 36.303ZM29.0112 70.5656C29.7554 70.5656 30.3643 70.556 30.9635 70.5656C36.6273 70.7106 42.1267 69.6765 47.5681 68.2654C54.7783 66.3903 61.7758 63.9451 68.1161 59.9147C69.0053 59.3542 69.9138 58.7936 70.716 57.9141C67.9614 55.8941 64.9363 54.6279 62.1817 52.8302C61.7855 53.1685 61.4279 53.4681 61.0702 53.7677C57.9291 56.4256 54.6913 58.9676 51.1539 61.1035C46.0894 64.1674 40.6866 66.197 34.7329 66.6899C32.8289 66.8446 30.9346 66.8832 28.9532 66.6996C28.8662 67.9851 28.8372 69.1739 29.0112 70.5656ZM13.8854 48.1137C18.08 44.006 22.9995 41.6767 28.6536 40.8842C28.6536 39.3958 28.6536 38.0137 28.6536 36.6412C28.093 36.5156 26.363 36.7862 25.8604 36.8635C21.4531 37.5981 17.4808 39.3958 13.895 42.0344C11.7107 43.6484 9.75838 45.5041 8.19264 47.6691C9.13981 50.3946 10.3769 52.8399 11.8944 55.1402C14.4846 59.0642 17.7031 62.331 21.9654 64.4477C24.053 65.4818 26.218 66.2647 28.6536 66.4097C28.6536 65.0565 28.6536 63.8098 28.6536 62.447C25.0679 61.6738 21.9074 60.079 19.3268 57.4211C16.7945 54.8019 14.9775 51.7477 13.8854 48.1137ZM43.8761 47.0988C40.6286 42.6046 33.2735 39.7921 28.9435 41.2418C28.8952 42.421 28.8276 43.6194 28.9822 44.7889C32.8966 45.7071 33.9984 46.5189 36.115 49.979C36.5886 50.7619 37.0719 51.5448 37.6035 52.4146C39.7684 50.5686 41.8271 48.8289 43.8761 47.0988ZM28.6826 44.9822C25.0389 44.7309 22.5163 46.5383 20.2353 48.8096C21.1728 52.8786 25.3868 58.175 28.6826 58.349C28.6826 53.9611 28.6826 49.5828 28.6826 44.9822Z" fill="white"/>
<path d="M177.89 35.3935C184.327 35.6061 190.687 35.0552 197.018 35.7221C202.188 36.273 206.267 38.554 208.393 43.5605C209.689 46.6243 210.036 49.8718 209.959 53.1579C209.901 55.3519 209.621 57.5265 209.002 59.6528C207.553 64.698 204.131 67.4235 199.057 68.2741C197.627 68.5157 196.177 68.6123 194.727 68.6123C189.353 68.622 183.97 68.6123 178.596 68.6123C178.374 68.6123 178.151 68.593 177.871 68.5833C177.89 57.5362 177.89 46.5663 177.89 35.3935ZM187.198 61.5085C189.489 61.4505 191.634 61.6535 193.77 61.2862C196.931 60.745 199.241 59.1309 200.197 55.9801C200.932 53.5638 200.932 51.0896 200.313 48.6346C199.589 45.7448 197.733 43.9374 194.882 43.1545C192.369 42.4683 189.807 42.7389 187.198 42.6809C187.198 49.0019 187.198 55.1586 187.198 61.5085Z" fill="white"/>
<path d="M89.1641 68.5356C89.1641 57.4498 89.1641 46.5089 89.1641 35.6454C89.3284 35.3844 89.5217 35.3941 89.7053 35.3941C96.0649 35.4038 102.434 35.3941 108.794 35.4521C110.572 35.4617 112.331 35.8097 114.032 36.3413C118.942 37.878 121.445 41.4154 122.219 46.3543C122.441 47.7944 122.518 49.2345 122.509 50.6842C122.489 56.1547 122.499 61.6348 122.499 67.1052C122.499 67.5691 122.499 68.0234 122.499 68.5549C119.406 68.5549 116.4 68.5549 113.404 68.5549C113.182 68.033 113.288 67.5691 113.278 67.1052C113.249 61.915 113.249 56.7152 113.22 51.5251C113.211 49.9304 112.988 48.3646 112.438 46.8472C111.616 44.5372 109.963 43.2615 107.566 43.0198C104.638 42.7202 101.69 42.9425 98.6552 42.8845C98.6552 51.4574 98.6552 59.953 98.6552 68.5356C95.4657 68.5356 92.3632 68.5356 89.1641 68.5356Z" fill="white"/>
<path d="M266.229 68.5649C262.721 68.5649 259.463 68.5649 256.177 68.5649C255.375 66.6899 254.979 64.7085 254.128 62.8818C248.996 62.8818 243.912 62.8818 238.761 62.8818C238.075 64.7858 237.398 66.6609 236.712 68.5746C233.648 68.5746 230.623 68.5746 227.414 68.5746C231.783 57.479 236.113 46.4899 240.452 35.4717C244.657 35.4717 248.813 35.4717 253.075 35.4717C257.443 46.4319 261.802 57.4114 266.229 68.5649ZM246.764 42.0729C246.657 42.0633 246.541 42.0536 246.435 42.0536C244.579 46.9924 242.724 51.9313 240.839 56.9571C244.705 56.9571 248.339 56.9571 252.176 56.9571C250.349 51.912 248.561 46.9924 246.764 42.0729Z" fill="white"/>
<path d="M149.244 35.4717C152.453 35.4717 155.574 35.4717 158.88 35.4717C155.284 46.5382 151.718 57.5274 148.142 68.5552C143.599 68.5552 139.124 68.5552 134.514 68.5552C130.986 57.595 127.439 46.6058 123.863 35.5103C127.294 35.5103 130.629 35.5103 134.05 35.5103C136.486 44.0639 138.931 52.6272 141.367 61.1904C141.434 61.2001 141.502 61.2098 141.57 61.2291C144.131 52.6368 146.683 44.0543 149.244 35.4717Z" fill="white"/>
<path d="M162.785 35.4819C165.955 35.4819 169.029 35.4819 172.151 35.4819C172.151 46.5001 172.151 57.47 172.151 68.5268C169.048 68.5268 165.955 68.5268 162.785 68.5268C162.785 57.5376 162.785 46.5774 162.785 35.4819Z" fill="white"/>
<path d="M214.359 35.4819C217.481 35.4819 220.506 35.4819 223.59 35.4819C223.59 46.5001 223.59 57.47 223.59 68.5365C220.535 68.5365 217.481 68.5365 214.359 68.5365C214.359 57.5473 214.359 46.5678 214.359 35.4819Z" fill="white"/>
<path d="M274.168 66.718C274.158 68.4577 272.921 69.6852 271.152 69.6852C269.335 69.6852 267.992 68.3611 268.04 66.631C268.089 64.9396 269.393 63.7412 271.181 63.7605C272.989 63.7701 274.168 64.9396 274.168 66.718ZM272.303 65.3649C272.776 66.0898 272.409 66.6407 271.868 67.1046C272.167 67.5009 272.235 67.9551 272.68 68.1001C273.501 66.7663 273.482 66.3797 272.525 65.1523C271.616 64.495 270.205 64.5337 269.519 65.2392C268.891 65.8868 268.843 67.3366 269.451 68.0711C269.587 68.2354 269.78 68.593 270.07 68.1871C269.867 68.3127 269.848 68.477 270.06 68.593C270.853 69.0473 271.636 69.0279 272.583 68.3417C271.442 68.5447 271.413 67.5492 270.93 67.1723C270.341 67.3462 271.094 68.506 270.031 68.2161C269.761 67.2302 269.954 66.2347 269.906 65.1426C270.795 65.2102 271.568 64.9783 272.303 65.3649Z" fill="white"/>
</svg>
