<svg width="182" height="102" viewBox="0 0 182 102" fill="none" xmlns="http://www.w3.org/2000/svg">
<path d="M61.8459 34.697H52.1768V47.3004H42.1116V34.697H32.4425V66.406H42.1116V53.9333H52.1768V66.406H61.8459V34.697ZM95.4806 60.0344V34.697H85.8115V66.406H103.295L104.749 60.0344H95.4806ZM78.6633 34.697H68.9942V66.406H78.6633V34.697ZM117.862 34.697H108.197V66.406H117.862V34.697ZM165.532 42.7898C165.532 41.064 167.256 40.2665 170.033 40.2665C173.081 40.2665 176.394 40.9334 178.645 41.8661L177.852 34.9629C175.332 34.4312 173.081 34.0346 168.98 34.0346C161.166 34.0346 155.867 37.1213 155.867 43.5874C155.867 54.7308 170.97 52.4778 170.97 57.6508C170.97 59.6379 169.507 60.6968 165.933 60.6968C162.759 60.6968 157.852 59.6379 154.94 58.178L156.002 65.4777C158.915 66.5412 162.885 67.0684 166.068 67.0684C174.143 67.0684 180.765 64.4143 180.765 56.4521C180.765 45.8449 165.532 47.8321 165.532 42.7898ZM138.258 58.8448C147.256 58.8448 152.955 54.1991 152.955 46.1063C152.955 37.2204 146.864 34.0346 136.93 34.0346C133.09 34.0346 128.454 34.3005 125.145 34.697V66.406H134.814V58.8448H138.258ZM143.421 46.2415C143.421 50.351 141.436 53.1402 136.399 53.1402H134.814V40.0367C135.377 40.0051 135.903 40.0051 136.399 40.0051C141.166 40.0051 143.421 42.2581 143.421 46.2415ZM13.9056 58.8448C22.9085 58.8448 28.6028 54.1991 28.6028 46.1063C28.6028 37.2204 22.5124 34.0346 12.5822 34.0346C8.738 34.0346 4.10602 34.3005 0.792969 34.697V66.406H10.4621V58.8448H13.9056ZM19.0733 46.2415C19.0733 50.351 17.0837 53.1402 12.0511 53.1402H10.4621V40.0367C11.0247 40.0051 11.5559 40.0051 12.0511 40.0051C16.8181 40.0051 19.0733 42.2581 19.0733 46.2415Z" fill="white"/>
</svg>
