<svg width="233" height="102" viewBox="0 0 233 102" fill="none" xmlns="http://www.w3.org/2000/svg">
<path d="M79.344 46.8625H58.9393V34.9937H48.3945V66.0356H58.9393V53.5636H79.344V66.0356H89.8876V34.9937H79.344V46.8625Z" fill="white"/>
<path d="M107.502 53.5621L114.845 41.5082L121.963 53.5621H107.502ZM110.755 34.9922L91.8438 66.0342H99.9049L103.773 59.6828H125.575L129.327 66.0342H142.199L123.293 34.9922H110.755Z" fill="white"/>
<path d="M184.022 48.446C186.533 45.1562 186.193 40.3368 181.37 37.5768C176.876 34.9971 168.298 34.0479 162.938 34.0479C154.364 34.0479 148.844 34.6306 144.148 35.4332V66.0354H154.69V40.0772C158.487 39.325 162.342 39.3082 163.783 39.3755C167.968 39.5606 170.324 40.2118 172.206 41.5467C174.151 42.9345 174.68 46.002 172.157 48.1312C170.265 49.7184 166.431 50.9656 157.856 49.6572L156.645 51.6457L172.858 66.0354H187.213L172.791 53.5634C176.256 53.114 181.511 51.7286 184.022 48.446Z" fill="white"/>
<path d="M25.2884 45.7194C19.2002 44.5359 14.0263 43.8006 14.0263 41.8252C14.0263 39.6384 18.2101 39.0749 24.1385 39.7033C29.745 40.2969 35.0318 41.764 39.9629 43.8619L43.7081 37.7183C39.7226 36.2008 31.5088 34.2567 24.0508 34.0356C15.8803 33.7989 2.08534 34.5318 1.48937 42.7937C0.945073 50.3562 11.7218 52.1633 18.788 53.8071C25.6801 55.4111 32.1408 55.9915 32.1408 58.3778C32.1408 60.0551 29.8639 61.3648 23.8406 60.913C16.5904 60.3711 10.4217 58.3898 4.26855 55.3318L0.179688 62.0461C7.00448 64.7135 15.9548 66.8559 24.0184 66.9892C33.6055 67.149 44.4303 65.6027 44.6754 57.3913C44.876 50.5389 37.7773 48.1454 25.2884 45.7194Z" fill="white"/>
<path d="M218.092 48.1913C216.27 49.6836 213.609 50.2123 209.408 50.2003C206.311 50.1894 203.105 49.6199 200.493 49.0275V40.0772C204.287 39.325 208.212 39.3142 209.652 39.3743C213.86 39.5521 216.315 40.2647 218.139 41.5467C220.037 42.8792 220.67 46.0777 218.092 48.1913ZM227.308 37.5768C223.015 35.0355 214.977 34.0479 208.808 34.0479C200.23 34.0479 194.645 34.6306 189.949 35.432V66.0354H200.493V54.8238C203.753 55.3681 207.837 55.6841 211.37 55.6577C219.998 55.5844 226.409 53.5574 229.328 50.3805C233.486 45.8603 232.09 40.4016 227.308 37.5768Z" fill="white"/>
</svg>
