<svg width="240" height="102" viewBox="0 0 240 102" fill="none" xmlns="http://www.w3.org/2000/svg">
<path d="M23.7797 57.4372C23.7797 64.3744 17.5651 67 10.8447 67C8.53224 67 4.46144 66.9277 0.679688 65.5066V59.8942C3.28115 60.8577 7.03881 61.7007 9.56801 61.7007C13.5184 61.7007 15.8308 60.0387 15.8308 58.208C15.8308 56.1365 14.3374 55.2934 8.62859 52.4993C6.50888 51.4635 0.968739 49.5847 0.968739 42.9606C0.968739 37.4686 5.40086 34.0241 12.9403 34.0241C16.987 34.0241 19.2271 34.4817 21.5877 35.3971V40.6241C19.733 39.7328 17.5169 38.5766 14.2651 38.5766C10.676 38.5766 8.2191 39.9978 8.2191 42.527C8.2191 43.5146 8.38772 44.7912 12.3381 46.6942C17.1797 48.9825 23.7797 50.5 23.7797 57.4372ZM230.933 34.6744V47.7781H219.058V34.6744H211.807V66.3496H219.058V53.246H230.933V66.3496H238.183V34.6744H230.933ZM152.745 50.5241C152.745 55.727 152.094 59.9423 148.192 63.4109C145.47 65.8438 141.737 67 137.883 67C134.053 67 130.319 65.8438 127.573 63.4109C123.695 59.9664 123.021 55.727 123.021 50.5241C123.021 45.3212 123.671 41.0577 127.573 37.589C130.295 35.1562 134.029 34 137.883 34C141.713 34 145.446 35.1562 148.192 37.589C152.094 41.0577 152.745 45.3212 152.745 50.5241ZM145.157 50.5241C145.157 47.6095 145.061 43.6832 142.893 41.3949C141.64 40.046 139.737 39.2993 137.907 39.2993C136.076 39.2993 134.173 40.0701 132.921 41.3949C130.729 43.6832 130.656 47.6095 130.656 50.5241C130.656 53.4387 130.753 57.3409 132.921 59.6051C134.173 60.954 136.076 61.7007 137.907 61.7007C139.737 61.7007 141.64 60.9299 142.893 59.6051C145.061 57.3409 145.157 53.4387 145.157 50.5241ZM109.845 54.8839L104.425 34.6744H98.4753L93.0556 54.8839L88.5753 34.6744H81.6381L88.6717 66.3496H95.7775L101.462 45.1526L107.147 66.3496H114.253L121.262 34.6744H114.325L109.845 54.8839ZM67.3301 48.019L60.706 34.6744H53.4074L63.0184 53.535V66.3496H70.606V53.246L81.3249 34.6744H74.3877L67.3301 48.019ZM27.3928 66.3496H34.6432V34.6744H27.3928V66.3496ZM45.9884 34.6744L36.6665 48.5971L45.1454 66.3496H53.0461L44.6155 47.6336L53.2629 34.6985H45.9884V34.6744ZM181.602 44.2372C181.602 38.4562 176.784 34.6744 171.003 34.6744H157.177V66.3496H164.114V39.2993H169.558C172.786 39.2993 174.183 41.9489 174.183 44.2372C174.183 46.6942 172.304 49.2956 166.836 50.9577L174.664 66.3496H182.589L175.772 52.9569C179.94 50.8854 181.602 47.5131 181.602 44.2372ZM209.158 39.9496L206.773 34.6744H182.107L184.492 39.9496H192.176V66.3496H199.426V39.9496H209.158Z" fill="white"/>
</svg>
