<svg xmlns="http://www.w3.org/2000/svg" display="none">
	<symbol viewBox="0 0 20 20" fill="none" id="united_kingdom">
		<g clip-path="url(#clip0_1945_636)">
<path d="M10 20C15.5228 20 20 15.5228 20 10C20 4.47715 15.5228 0 10 0C4.47715 0 0 4.47715 0 10C0 15.5228 4.47715 20 10 20Z" fill="#F0F0F0"/>
<path d="M2.06742 3.91174C1.28191 4.93374 0.689609 6.11167 0.344727 7.39131H5.54699L2.06742 3.91174Z" fill="#0052B4"/>
<path d="M19.6553 7.3914C19.3104 6.11179 18.7181 4.93386 17.9326 3.91187L14.4531 7.3914H19.6553Z" fill="#0052B4"/>
<path d="M0.344727 12.6088C0.689649 13.8884 1.28195 15.0663 2.06742 16.0883L5.54688 12.6088H0.344727Z" fill="#0052B4"/>
<path d="M16.0889 2.06722C15.0669 1.28171 13.889 0.689404 12.6094 0.344482V5.54671L16.0889 2.06722Z" fill="#0052B4"/>
<path d="M3.91211 17.9327C4.9341 18.7182 6.11203 19.3105 7.39164 19.6554V14.4532L3.91211 17.9327Z" fill="#0052B4"/>
<path d="M7.3916 0.344482C6.11199 0.689404 4.93406 1.28171 3.91211 2.06718L7.3916 5.54667V0.344482Z" fill="#0052B4"/>
<path d="M12.6094 19.6554C13.889 19.3105 15.0669 18.7182 16.0889 17.9327L12.6094 14.4532V19.6554Z" fill="#0052B4"/>
<path d="M14.4531 12.6088L17.9326 16.0883C18.7181 15.0663 19.3104 13.8884 19.6553 12.6088H14.4531Z" fill="#0052B4"/>
<path d="M19.9154 8.69566H11.3044H11.3044V0.0846484C10.8774 0.0290625 10.4421 0 10 0C9.55785 0 9.12262 0.0290625 8.69566 0.0846484V8.69559V8.69563H0.0846484C0.0290625 9.12262 0 9.55793 0 10C0 10.4421 0.0290625 10.8774 0.0846484 11.3043H8.69559H8.69563V19.9154C9.12262 19.9709 9.55785 20 10 20C10.4421 20 10.8774 19.971 11.3043 19.9154V11.3044V11.3044H19.9154C19.9709 10.8774 20 10.4421 20 10C20 9.55793 19.9709 9.12262 19.9154 8.69566Z" fill="#D80027"/>
<path d="M12.6084 12.6088L17.0707 17.0712C17.276 16.866 17.4718 16.6515 17.6586 16.4292L13.8382 12.6088H12.6084V12.6088Z" fill="#D80027"/>
<path d="M7.39109 12.6088H7.39101L2.92871 17.0711C3.13387 17.2763 3.34836 17.4721 3.5707 17.6589L7.39109 13.8384V12.6088Z" fill="#D80027"/>
<path d="M7.39098 7.39141V7.39134L2.92863 2.92896C2.7234 3.13411 2.52762 3.3486 2.34082 3.57095L6.16125 7.39138H7.39098V7.39141Z" fill="#D80027"/>
<path d="M12.6084 7.39138L17.0708 2.92896C16.8656 2.72373 16.6511 2.52794 16.4288 2.34119L12.6084 6.16162V7.39138Z" fill="#D80027"/>
</g>
<defs>
<clipPath id="clip0_1945_636">
<rect width="20" height="20" fill="white"/>
</clipPath>
</defs>
	</symbol>

	<symbol viewBox="0 0 20 20" fill="none" id="czech_respublic">
		<g clip-path="url(#clip0_1945_710)">
<path d="M10 20C15.5228 20 20 15.5228 20 10C20 4.47715 15.5228 0 10 0C4.47715 0 0 4.47715 0 10C0 15.5228 4.47715 20 10 20Z" fill="#F0F0F0"/>
<path d="M9.13023 10C9.13023 10 2.93457 17.0725 2.92871 17.0711C4.73832 18.8807 7.23836 20 9.9998 20C15.5226 20 19.9998 15.5228 19.9998 10H9.13023Z" fill="#D80027"/>
<path d="M2.92893 2.92896C-0.976309 6.83419 -0.976309 13.1659 2.92893 17.0711C4.54271 15.4574 6.09478 13.9053 10 10L2.92893 2.92896Z" fill="#0052B4"/>
</g>
<defs>
<clipPath id="clip0_1945_710">
<rect width="20" height="20" fill="white"/>
</clipPath>
</defs>
	</symbol>

	<symbol viewBox="0 0 20 20" fill="none" id="france">
		<g clip-path="url(#clip0_1945_656)">
<path d="M10 20C15.5228 20 20 15.5228 20 10C20 4.47715 15.5228 0 10 0C4.47715 0 0 4.47715 0 10C0 15.5228 4.47715 20 10 20Z" fill="#F0F0F0"/>
<path d="M20.0003 10.0001C20.0003 5.70043 17.2865 2.035 13.4785 0.62207V19.3781C17.2865 17.9652 20.0003 14.2997 20.0003 10.0001Z" fill="#D80027"/>
<path d="M0 10.0001C0 14.2997 2.71379 17.9652 6.52176 19.3781V0.62207C2.71379 2.035 0 5.70043 0 10.0001Z" fill="#0052B4"/>
</g>
<defs>
<clipPath id="clip0_1945_656">
<rect width="20" height="20" fill="white"/>
</clipPath>
</defs>
	</symbol>

	<symbol viewBox="0 0 20 20" fill="none" id="germany">
		<g clip-path="url(#clip0_1945_663)">
<path d="M0.62207 13.4783C2.035 17.2863 5.70043 20.0001 10.0001 20.0001C14.2997 20.0001 17.9652 17.2863 19.3781 13.4783L10.0001 12.6088L0.62207 13.4783Z" fill="#FFDA44"/>
<path d="M10.0001 0C5.70043 0 2.035 2.71375 0.62207 6.52176L10.0001 7.39129L19.3781 6.52172C17.9652 2.71375 14.2997 0 10.0001 0Z" fill="black"/>
<path d="M0.621992 6.52173C0.220039 7.60505 0 8.77677 0 9.99997C0 11.2232 0.220039 12.3949 0.621992 13.4782H19.378C19.78 12.3949 20 11.2232 20 9.99997C20 8.77677 19.78 7.60505 19.378 6.52173H0.621992Z" fill="#D80027"/>
</g>
<defs>
<clipPath id="clip0_1945_663">
<rect width="20" height="20" fill="white"/>
</clipPath>
</defs>
	</symbol>

	<symbol id="italy" viewBox="0 0 20 20" fill="none">
	<g clip-path="url(#clip0_1945_670)">
<path d="M10 20C15.5228 20 20 15.5228 20 10C20 4.47715 15.5228 0 10 0C4.47715 0 0 4.47715 0 10C0 15.5228 4.47715 20 10 20Z" fill="#F0F0F0"/>
<path d="M20.0003 10.0001C20.0003 5.70043 17.2865 2.035 13.4785 0.62207V19.3781C17.2865 17.9652 20.0003 14.2997 20.0003 10.0001Z" fill="#D80027"/>
<path d="M0 10.0001C0 14.2997 2.71375 17.9652 6.52176 19.3781V0.62207C2.71375 2.035 0 5.70043 0 10.0001Z" fill="#6DA544"/>
</g>
<defs>
<clipPath id="clip0_1945_670">
<rect width="20" height="20" fill="white"/>
</clipPath>
</defs>
	</symbol>

	<symbol id="spain" viewBox="0 0 20 20" fill="none">
		<g clip-path="url(#clip0_1945_677)">
<path d="M0 10C0 11.2232 0.220039 12.395 0.621992 13.4783L10 14.3479L19.378 13.4783C19.78 12.395 20 11.2232 20 10C20 8.77684 19.78 7.60512 19.378 6.52179L10 5.65222L0.621992 6.52179C0.220039 7.60512 0 8.77684 0 10Z" fill="#FFDA44"/>
<path d="M19.3781 6.52176C17.9652 2.71379 14.2997 0 10.0001 0C5.70043 0 2.035 2.71379 0.62207 6.52176H19.3781Z" fill="#D80027"/>
<path d="M0.62207 13.4783C2.035 17.2862 5.70043 20 10.0001 20C14.2997 20 17.9652 17.2862 19.3781 13.4783H0.62207Z" fill="#D80027"/>
</g>
<defs>
<clipPath id="clip0_1945_677">
<rect width="20" height="20" fill="white"/>
</clipPath>
</defs>
	</symbol>

	<symbol viewBox="0 0 20 20" fill="none" id="ukraine">
		<g clip-path="url(#clip0_1945_685)">
<path d="M10 20C15.5228 20 20 15.5228 20 10C20 4.47715 15.5228 0 10 0C4.47715 0 0 4.47715 0 10C0 15.5228 4.47715 20 10 20Z" fill="#FFDA44"/>
<path d="M0 10C0 4.47719 4.47719 0 10 0C15.5228 0 20 4.47719 20 10" fill="#338AF3"/>
</g>
<defs>
<clipPath id="clip0_1945_685">
<rect width="20" height="20" fill="white"/>
</clipPath>
</defs>
	</symbol>

	<symbol viewBox="0 0 20 20" fill="none" id="romania">
		<g clip-path="url(#clip0_1945_629)">
<path d="M13.4784 0.621953C12.395 0.220039 11.2234 5.19912e-09 10.0002 5.19912e-09C8.77695 -3.90573e-05 7.60523 0.220039 6.52191 0.621953L5.65234 9.99996L6.52191 19.378C7.6052 19.78 8.77691 20 10.0002 20C11.2233 20 12.3951 19.78 13.4784 19.378L14.3479 10L13.4784 0.621953Z" fill="#FFDA44"/>
<path d="M20.0003 10.0001C20.0003 5.70047 17.2865 2.03496 13.4785 0.62207V19.3782C17.2865 17.9651 20.0002 14.2998 20.0003 10.0001Z" fill="#D80027"/>
<path d="M0 10C0 14.2997 2.71375 17.9651 6.52168 19.3781L6.52172 0.62207C2.71375 2.03496 0 5.70035 0 10Z" fill="#0052B4"/>
</g>
<defs>
<clipPath id="clip0_1945_629">
<rect width="20" height="20" fill="white"/>
</clipPath>
</defs>
	</symbol>

	<symbol viewBox="0 0 20 20" fill="none" id="portugal">
		<g clip-path="url(#clip0_1945_620)">
<path d="M0 10.0001C0 14.2997 2.71375 17.9651 6.52168 19.378L7.39129 10L6.52168 0.62207C2.71375 2.03504 0 5.70043 0 10.0001Z" fill="#6DA544"/>
<path d="M19.9998 10C19.9998 4.47719 15.5226 0 9.9998 0C8.7766 0 7.60484 0.220039 6.52148 0.621992V19.378C7.60484 19.78 8.7766 20 9.9998 20C15.5226 20 19.9998 15.5228 19.9998 10Z" fill="#D80027"/>
<path d="M6.52219 13.4782C8.44317 13.4782 10.0004 11.921 10.0004 9.99997C10.0004 8.07899 8.44317 6.52173 6.52219 6.52173C4.60121 6.52173 3.04395 8.07899 3.04395 9.99997C3.04395 11.921 4.60121 13.4782 6.52219 13.4782Z" fill="#FFDA44"/>
<path d="M4.56543 8.26086V10.4348C4.56543 11.5153 5.44137 12.3913 6.52195 12.3913C7.60253 12.3913 8.47847 11.5154 8.47847 10.4348V8.26086H4.56543Z" fill="#D80027"/>
<path d="M6.52133 11.0869C6.16172 11.0869 5.86914 10.7943 5.86914 10.4347V9.56519H7.17348V10.4348C7.17348 10.7943 6.8809 11.0869 6.52133 11.0869Z" fill="#F0F0F0"/>
</g>
<defs>
<clipPath id="clip0_1945_620">
<rect width="20" height="20" fill="white"/>
</clipPath>
</defs>
	</symbol>

	<symbol viewBox="0 0 20 20" fill="none" id="serbia">
		<g clip-path="url(#clip0_1945_691)">
<path d="M10 20C15.5228 20 20 15.5228 20 10C20 4.47715 15.5228 0 10 0C4.47715 0 0 4.47715 0 10C0 15.5228 4.47715 20 10 20Z" fill="#F0F0F0"/>
<path d="M10 0C4.47719 0 0 4.47719 0 10C0 11.2232 0.220039 12.395 0.621992 13.4782H19.378C19.78 12.395 20 11.2232 20 10C20 4.47719 15.5228 0 10 0Z" fill="#0052B4"/>
<path d="M10.0001 0C5.70043 0 2.035 2.71375 0.62207 6.52176H19.3781C17.9652 2.71375 14.2997 0 10.0001 0Z" fill="#D80027"/>
<path d="M2.58594 5.65222V10.6407C2.58594 13.4784 6.29301 14.3479 6.29301 14.3479C6.29301 14.3479 10 13.4784 10 10.6407V5.65222H2.58594Z" fill="#D80027"/>
<path d="M4.11914 6.5218H8.46699V4.78266L7.59742 5.21743L6.29309 3.91309L4.98871 5.21743L4.11914 4.78266V6.5218Z" fill="#FFDA44"/>
<path d="M9.1307 11.3353L6.30461 8.50916L3.47852 11.3353L4.40082 12.2576L6.30461 10.3538L8.2084 12.2576L9.1307 11.3353Z" fill="#FFDA44"/>
<path d="M9.1307 8.69574H7.81211C7.88625 8.56777 7.92938 8.41957 7.92938 8.26105C7.92938 7.78074 7.54004 7.39148 7.0598 7.39148C6.72797 7.39148 6.4398 7.57734 6.2932 7.85058C6.1466 7.57738 5.85844 7.39148 5.5266 7.39148C5.04637 7.39148 4.65703 7.78074 4.65703 8.26105C4.65703 8.41957 4.70016 8.56781 4.7743 8.69574H3.47852C3.47852 9.17601 3.89684 9.56531 4.37703 9.56531H4.34809C4.34809 10.0456 4.73738 10.4349 5.21766 10.4349C5.21766 10.8601 5.52305 11.2134 5.92637 11.289L5.24121 12.836C5.56957 12.9694 5.9284 13.0436 6.30465 13.0436C6.6809 13.0436 7.03973 12.9694 7.36809 12.836L6.68293 11.289C7.08625 11.2135 7.39164 10.8602 7.39164 10.4349C7.87191 10.4349 8.26121 10.0456 8.26121 9.56531H8.23227C8.71242 9.56531 9.1307 9.17597 9.1307 8.69574Z" fill="#F0F0F0"/>
</g>
<defs>
<clipPath id="clip0_1945_691">
<rect width="20" height="20" fill="white"/>
</clipPath>
</defs>
	</symbol>

	<symbol viewBox="0 0 20 20" fill="none" id="poland">
		<g clip-path="url(#clip0_1945_704)">
<path d="M10 20C15.5228 20 20 15.5228 20 10C20 4.47715 15.5228 0 10 0C4.47715 0 0 4.47715 0 10C0 15.5228 4.47715 20 10 20Z" fill="#F0F0F0"/>
<path d="M20 10C20 15.5228 15.5228 20 10 20C4.47719 20 0 15.5228 0 10" fill="#D80027"/>
</g>
<defs>
<clipPath id="clip0_1945_704">
<rect width="20" height="20" fill="white"/>
</clipPath>
</defs>
	</symbol>

	<symbol viewBox="0 0 20 20" fill="none" id="greece">
		<g clip-path="url(#clip0_1945_716)">
<path d="M10 20C15.5228 20 20 15.5228 20 10C20 4.47715 15.5228 0 10 0C4.47715 0 0 4.47715 0 10C0 15.5228 4.47715 20 10 20Z" fill="#F0F0F0"/>
<path d="M10 7.39131H19.6555C19.4048 6.46107 19.0237 5.58447 18.5323 4.78259H10V7.39131Z" fill="#338AF3"/>
<path d="M3.77516 17.8261H16.2249C17.1375 17.0992 17.9202 16.2164 18.5323 15.2174H1.46777C2.07992 16.2163 2.86258 17.0992 3.77516 17.8261Z" fill="#338AF3"/>
<path d="M3.47828 2.41943C2.69211 3.09642 2.01246 3.89365 1.46777 4.78256H3.47828V2.41943Z" fill="#338AF3"/>
<path d="M10 10.0001C10 8.98148 10 8.12902 10 7.39136H6.08695V10.0001H3.47824V7.39136H0.344492C0.120313 8.22316 0 9.09746 0 10.0001C0 10.9027 0.120313 11.777 0.344492 12.6088H19.6555C19.8797 11.777 20 10.9027 20 10.0001H10Z" fill="#338AF3"/>
<path d="M9.99997 0C8.61133 0 7.28887 0.28332 6.08691 0.794844V4.78262H9.99997C9.99997 3.87199 9.99997 3.0975 9.99997 2.17391H16.2249C14.5166 0.813438 12.3534 0 9.99997 0Z" fill="#338AF3"/>
</g>
<defs>
<clipPath id="clip0_1945_716">
<rect width="20" height="20" fill="white"/>
</clipPath>
</defs>
	</symbol>

	<symbol viewBox="0 0 20 20" fill="none" id="magyar">
		<g clip-path="url(#clip0_1945_726)">
<path d="M0 10.0001C0 14.2997 2.71375 17.9651 6.52168 19.378L7.39129 10L6.52168 0.62207C2.71375 2.03504 0 5.70043 0 10.0001Z" fill="#6DA544"/>
<path d="M19.9998 10C19.9998 4.47719 15.5226 0 9.9998 0C8.7766 0 7.60484 0.220039 6.52148 0.621992V19.378C7.60484 19.78 8.7766 20 9.9998 20C15.5226 20 19.9998 15.5228 19.9998 10Z" fill="#D80027"/>
<path d="M6.52219 13.4782C8.44317 13.4782 10.0004 11.921 10.0004 9.99997C10.0004 8.07899 8.44317 6.52173 6.52219 6.52173C4.60121 6.52173 3.04395 8.07899 3.04395 9.99997C3.04395 11.921 4.60121 13.4782 6.52219 13.4782Z" fill="#FFDA44"/>
<path d="M4.56543 8.26086V10.4348C4.56543 11.5153 5.44137 12.3913 6.52195 12.3913C7.60253 12.3913 8.47847 11.5154 8.47847 10.4348V8.26086H4.56543Z" fill="#D80027"/>
<path d="M6.52133 11.0869C6.16172 11.0869 5.86914 10.7943 5.86914 10.4347V9.56519H7.17348V10.4348C7.17348 10.7943 6.8809 11.0869 6.52133 11.0869Z" fill="#F0F0F0"/>
<g clip-path="url(#clip1_1945_726)">
<path d="M0 10C0 11.2232 0.220039 12.395 0.621992 13.4783L10 14.3479L19.378 13.4783C19.78 12.395 20 11.2232 20 10C20 8.77684 19.78 7.60512 19.378 6.52179L10 5.65222L0.621992 6.52179C0.220039 7.60512 0 8.77684 0 10Z" fill="#F8F8F8"/>
<path d="M19.3781 6.52176C17.9652 2.71379 14.2997 0 10.0001 0C5.70043 0 2.035 2.71379 0.62207 6.52176H19.3781Z" fill="#D00F11"/>
<path d="M0.62207 13.4783C2.035 17.2862 5.70043 20 10.0001 20C14.2997 20 17.9652 17.2862 19.3781 13.4783H0.62207Z" fill="#416B4B"/>
</g>
</g>
<defs>
<clipPath id="clip0_1945_726">
<rect width="20" height="20" fill="white"/>
</clipPath>
<clipPath id="clip1_1945_726">
<rect width="20" height="20" fill="white"/>
</clipPath>
</defs>
	</symbol>

	<symbol viewBox="0 0 20 20" fill="none" id="turkey">
		<g clip-path="url(#clip0_1945_738)">
<path d="M0 10.0001C0 14.2997 2.71375 17.9651 6.52168 19.378L7.39129 10L6.52168 0.62207C2.71375 2.03504 0 5.70043 0 10.0001Z" fill="#6DA544"/>
<path d="M19.9998 10C19.9998 4.47719 15.5226 0 9.9998 0C8.7766 0 7.60484 0.220039 6.52148 0.621992V19.378C7.60484 19.78 8.7766 20 9.9998 20C15.5226 20 19.9998 15.5228 19.9998 10Z" fill="#D80027"/>
<path d="M6.52219 13.4782C8.44317 13.4782 10.0004 11.921 10.0004 9.99997C10.0004 8.07899 8.44317 6.52173 6.52219 6.52173C4.60121 6.52173 3.04395 8.07899 3.04395 9.99997C3.04395 11.921 4.60121 13.4782 6.52219 13.4782Z" fill="#FFDA44"/>
<path d="M4.56543 8.26086V10.4348C4.56543 11.5153 5.44137 12.3913 6.52195 12.3913C7.60253 12.3913 8.47847 11.5154 8.47847 10.4348V8.26086H4.56543Z" fill="#D80027"/>
<path d="M6.52133 11.0869C6.16172 11.0869 5.86914 10.7943 5.86914 10.4347V9.56519H7.17348V10.4348C7.17348 10.7943 6.8809 11.0869 6.52133 11.0869Z" fill="#F0F0F0"/>
<g clip-path="url(#clip1_1945_738)">
<path d="M0 10C0 15.5228 4.47715 20 10 20C15.5228 20 20 15.5228 20 10C20 4.47715 15.5228 0 10 0C4.47715 0 0 4.47715 0 10Z" fill="#E30A17"/>
<path d="M7.625 15C10.3864 15 12.625 12.7614 12.625 10C12.625 7.23858 10.3864 5 7.625 5C4.86358 5 2.625 7.23858 2.625 10C2.625 12.7614 4.86358 15 7.625 15Z" fill="white"/>
<path d="M8.87505 14C11.0842 14 12.8751 12.2092 12.8751 10C12.8751 7.79087 11.0842 6 8.87505 6C6.66588 6 4.875 7.79087 4.875 10C4.875 12.2092 6.66588 14 8.87505 14Z" fill="#E30A17"/>
<path d="M11.583 9.99996L16.1055 11.4695L13.3104 7.62231V12.3776L16.1055 8.53049L11.583 9.99996Z" fill="white"/>
</g>
</g>
<defs>
<clipPath id="clip0_1945_738">
<rect width="20" height="20" fill="white"/>
</clipPath>
<clipPath id="clip1_1945_738">
<rect width="20" height="20" fill="white"/>
</clipPath>
</defs>
	</symbol>
</svg>