<svg width="0" height="0" xmlns="http://www.w3.org/2000/svg">
  <symbol xmlns="http://www.w3.org/2000/svg" viewBox="0 0 40 40" id="1">
    <path d="M20.0015 2C10.0619 2 2.00146 10.0604 2.00146 20C2.00146 29.9396 10.0619 38 20.0015 38C29.9411 38 38.0015 29.9396 38.0015 20C38.0015 10.0604 29.9411 2 20.0015 2Z" fill="black"></path>
    <path d="M23.8281 20C23.8281 22.1143 22.1143 23.8281 20 23.8281C17.8857 23.8281 16.1719 22.1143 16.1719 20C16.1719 17.8857 17.8857 16.1719 20 16.1719C22.1143 16.1719 23.8281 17.8857 23.8281 20Z"></path>
    <path d="M28.9524 13.2269C28.7684 12.7282 28.4748 12.2769 28.0933 11.9064C27.7228 11.5249 27.2718 11.2313 26.7728 11.0473C26.3682 10.8901 25.7603 10.7031 24.6406 10.6521C23.4293 10.5969 23.0662 10.585 19.9998 10.585C16.933 10.585 16.5699 10.5966 15.3589 10.6518C14.2393 10.7031 13.631 10.8901 13.2267 11.0473C12.7277 11.2313 12.2764 11.5249 11.9062 11.9064C11.5247 12.2769 11.2311 12.7279 11.0468 13.2269C10.8896 13.6315 10.7026 14.2397 10.6516 15.3594C10.5964 16.5704 10.5845 16.9335 10.5845 20.0002C10.5845 23.0667 10.5964 23.4298 10.6516 24.6411C10.7026 25.7607 10.8896 26.3687 11.0468 26.7733C11.2311 27.2723 11.5244 27.7233 11.9059 28.0938C12.2764 28.4753 12.7274 28.7689 13.2264 28.9529C13.631 29.1104 14.2393 29.2974 15.3589 29.3484C16.5699 29.4036 16.9327 29.4152 19.9995 29.4152C23.0665 29.4152 23.4296 29.4036 24.6403 29.3484C25.7599 29.2974 26.3682 29.1104 26.7728 28.9529C27.7744 28.5665 28.566 27.7749 28.9524 26.7733C29.1096 26.3687 29.2966 25.7607 29.3479 24.6411C29.4031 23.4298 29.4147 23.0667 29.4147 20.0002C29.4147 16.9335 29.4031 16.5704 29.3479 15.3594C29.2969 14.2397 29.1099 13.6315 28.9524 13.2269ZM19.9998 25.8972C16.7426 25.8972 14.1022 23.2571 14.1022 19.9999C14.1022 16.7428 16.7426 14.1027 19.9998 14.1027C23.2566 14.1027 25.897 16.7428 25.897 19.9999C25.897 23.2571 23.2566 25.8972 19.9998 25.8972ZM26.1301 15.2477C25.369 15.2477 24.752 14.6307 24.752 13.8696C24.752 13.1085 25.369 12.4914 26.1301 12.4914C26.8912 12.4914 27.5083 13.1085 27.5083 13.8696C27.508 14.6307 26.8912 15.2477 26.1301 15.2477Z"></path>
    <path d="M20 0C8.95599 0 0 8.95599 0 20C0 31.044 8.95599 40 20 40C31.044 40 40 31.044 40 20C40 8.95599 31.044 0 20 0ZM31.4151 24.7348C31.3596 25.9573 31.1652 26.792 30.8813 27.5226C30.2847 29.0652 29.0652 30.2847 27.5226 30.8813C26.7923 31.1652 25.9573 31.3593 24.7351 31.4151C23.5104 31.4709 23.1192 31.4844 20.0003 31.4844C16.8811 31.4844 16.4902 31.4709 15.2652 31.4151C14.043 31.3593 13.208 31.1652 12.4777 30.8813C11.7111 30.593 11.0172 30.141 10.4434 29.5566C9.85931 28.9832 9.40735 28.2889 9.11896 27.5226C8.83514 26.7923 8.64075 25.9573 8.58521 24.7351C8.52875 23.5101 8.51562 23.1189 8.51562 20C8.51562 16.8811 8.52875 16.4899 8.5849 15.2652C8.64044 14.0427 8.83453 13.208 9.11835 12.4774C9.40674 11.7111 9.85901 11.0168 10.4434 10.4434C11.0168 9.85901 11.7111 9.40704 12.4774 9.11865C13.208 8.83484 14.0427 8.64075 15.2652 8.5849C16.4899 8.52905 16.8811 8.51562 20 8.51562C23.1189 8.51562 23.5101 8.52905 24.7348 8.58521C25.9573 8.64075 26.792 8.83484 27.5226 9.11835C28.2889 9.40674 28.9832 9.85901 29.5569 10.4434C30.141 11.0172 30.5933 11.7111 30.8813 12.4774C31.1655 13.208 31.3596 14.0427 31.4154 15.2652C31.4713 16.4899 31.4844 16.8811 31.4844 20C31.4844 23.1189 31.4713 23.5101 31.4151 24.7348Z"></path>
  </symbol>
  <symbol xmlns="http://www.w3.org/2000/svg" viewBox="0 0 40 40" id="2">
    <rect x="8.99951" y="8" width="21" height="25" fill="black"></rect>
    <path d="M20 0C8.97205 0 0 8.97205 0 20C0 31.0271 8.97205 40 20 40C31.0271 40 40 31.0271 40 20C40 8.97205 31.0288 0 20 0ZM24.9738 20.7041H21.72C21.72 25.9027 21.72 32.3016 21.72 32.3016H16.8984C16.8984 32.3016 16.8984 25.9647 16.8984 20.7041H14.6065V16.6052H16.8984V13.9539C16.8984 12.0551 17.8007 9.08805 21.7643 9.08805L25.3371 9.10175V13.0806C25.3371 13.0806 23.166 13.0806 22.7439 13.0806C22.3218 13.0806 21.7216 13.2917 21.7216 14.1972V16.606H25.3952L24.9738 20.7041Z"></path>
  </symbol>
  <symbol xmlns="http://www.w3.org/2000/svg" viewBox="0 0 40 40" id="3">
    <rect x="6.33398" y="9" width="28" height="21" fill="black"></rect>
    <path d="M17.5093 23.7468L24.015 19.9999L17.5093 16.2529V23.7468Z"></path>
    <path d="M20 0C8.95599 0 0 8.95599 0 20C0 31.044 8.95599 40 20 40C31.044 40 40 31.044 40 20C40 8.95599 31.044 0 20 0ZM32.4969 20.0204C32.4969 20.0204 32.4969 24.0765 31.9824 26.0324C31.694 27.103 30.8499 27.9471 29.7794 28.2352C27.8235 28.75 20 28.75 20 28.75C20 28.75 12.197 28.75 10.2206 28.2147C9.15009 27.9266 8.30597 27.0822 8.01758 26.0117C7.50275 24.0765 7.50275 20 7.50275 20C7.50275 20 7.50275 15.9442 8.01758 13.9883C8.30566 12.9178 9.17053 12.0529 10.2206 11.7648C12.1765 11.25 20 11.25 20 11.25C20 11.25 27.8235 11.25 29.7794 11.7853C30.8499 12.0734 31.694 12.9178 31.9824 13.9883C32.5177 15.9442 32.4969 20.0204 32.4969 20.0204Z"></path>
  </symbol>
  <symbol xmlns="http://www.w3.org/2000/svg" viewBox="0 0 40 40" id="4">
    <rect x="7.6665" y="9.99994" width="26" height="21" fill="black"></rect>
    <path d="M20 0C8.95599 0 0 8.95599 0 20C0 31.044 8.95599 40 20 40C31.044 40 40 31.044 40 20C40 8.95599 31.044 0 20 0ZM29.1318 15.5939C29.1406 15.7907 29.1449 15.9885 29.1449 16.1871C29.1449 22.2531 24.5276 29.248 16.0837 29.2484H16.084H16.0837C13.4912 29.2484 11.0788 28.4885 9.04724 27.1863C9.40643 27.2287 9.77203 27.2498 10.1422 27.2498C12.2931 27.2498 14.2725 26.5161 15.8438 25.2847C13.8342 25.2475 12.1399 23.9203 11.5552 22.0963C11.835 22.15 12.1228 22.1793 12.4179 22.1793C12.8369 22.1793 13.2428 22.1228 13.6285 22.0175C11.528 21.597 9.94568 19.7406 9.94568 17.5177C9.94568 17.4969 9.94568 17.4783 9.94629 17.4591C10.5649 17.803 11.2723 18.0099 12.0255 18.0331C10.7928 17.2107 9.9826 15.8047 9.9826 14.212C9.9826 13.371 10.21 12.583 10.6042 11.9046C12.868 14.6823 16.2512 16.5091 20.0665 16.701C19.9878 16.3647 19.9472 16.0144 19.9472 15.6543C19.9472 13.1201 22.0032 11.0641 24.5383 11.0641C25.8588 11.0641 27.0514 11.6223 27.8891 12.5146C28.9349 12.3083 29.917 11.9263 30.8041 11.4005C30.4608 12.4719 29.7333 13.371 28.7854 13.9395C29.7141 13.8284 30.5991 13.5822 31.4215 13.2166C30.8072 14.1373 30.0281 14.946 29.1318 15.5939Z"></path>
  </symbol>
  <symbol xmlns="http://www.w3.org/2000/svg" viewBox="0 0 40 40" id="5">
    <rect x="6.00049" y="8.99982" width="28" height="21" fill="black"></rect>
    <path fill-rule="evenodd" clip-rule="evenodd" d="M20 40C31.0457 40 40 31.0457 40 20C40 8.9543 31.0457 0 20 0C8.9543 0 0 8.9543 0 20C0 31.0457 8.9543 40 20 40ZM15.4378 28.7652L15.8238 23.1813L25.7669 13.9983C26.1996 13.6043 25.6736 13.3863 25.0951 13.7803L12.803 21.6913L7.51108 19.9983C6.35994 19.6313 6.33855 18.8213 7.75122 18.2573L28.4503 10.1063C29.409 9.73933 30.247 10.3243 29.935 11.8203L29.934 11.8213L26.4125 28.7932C26.1471 29.9912 25.4539 30.2882 24.47 29.7242L19.1051 25.6832L16.516 28.2282C16.2292 28.5212 15.99 28.7652 15.4378 28.7652Z"></path>
  </symbol>
  <symbol xmlns="http://www.w3.org/2000/svg" viewBox="0 0 40 40" id="6">
    <rect x="6.00049" y="8.99982" width="28" height="21" fill="black"></rect>
    <path d="M40 20C40 31.0457 31.0457 40 20 40C8.9543 40 0 31.0457 0 20C0 8.9543 8.9543 0 20 0C31.0457 0 40 8.9543 40 20Z"></path>
    <path d="M20.128 9.76071C21.2187 9.7439 22.3031 9.75386 23.3863 9.7439C23.4519 11.0152 23.9107 12.3102 24.8445 13.2091C25.7764 14.1304 27.0946 14.5521 28.3772 14.6947V18.0391C27.1753 17.9998 25.9677 17.7507 24.877 17.2349C24.402 17.0206 23.9595 16.7447 23.5263 16.4625C23.5207 18.8893 23.5363 21.313 23.5107 23.7299C23.4457 24.891 23.0613 26.0464 22.3838 27.0032C21.2937 28.596 19.4017 29.6343 17.4585 29.6667C16.2666 29.7346 15.0759 29.4107 14.0602 28.814C12.377 27.8248 11.1925 26.014 11.02 24.0706C11 23.6551 10.9931 23.2403 11.01 22.8348C11.16 21.2545 11.9445 19.7427 13.162 18.7143C14.5421 17.5164 16.4753 16.9459 18.2854 17.2835C18.3023 18.5137 18.2529 19.7427 18.2529 20.9729C17.426 20.7063 16.4597 20.7811 15.7372 21.2813C15.2096 21.622 14.809 22.144 14.6002 22.7345C14.4277 23.1556 14.4771 23.6234 14.4871 24.0706C14.6852 25.4335 16.0003 26.579 17.4041 26.4551C18.3348 26.4451 19.2267 25.9069 19.7117 25.1189C19.8686 24.843 20.0443 24.5608 20.0536 24.2363C20.1355 22.7507 20.103 21.2713 20.113 19.7857C20.1199 16.4376 20.103 13.0988 20.1286 9.76134L20.128 9.76071Z" fill="black"></path>
  </symbol>
</svg>