<svg width="35" height="35" viewBox="0 0 35 35" fill="none" xmlns="http://www.w3.org/2000/svg">
<path d="M20.8014 23.4401C20.0398 24.2017 18.408 24.4735 17.2451 24.4735C16.0788 24.4735 14.4503 24.2017 13.6887 23.4401C13.5084 23.2598 13.2195 23.2598 13.0394 23.4401C12.8591 23.6204 12.8591 23.9093 13.0394 24.0894C14.2464 25.2963 16.5652 25.3915 17.2451 25.3915C17.925 25.3915 20.2404 25.2963 21.451 24.0894C21.6276 23.9091 21.6276 23.6201 21.451 23.4401C21.2707 23.2598 20.9817 23.2598 20.8014 23.4401Z" fill="white"/>
<path d="M15.1167 19.4111C15.1167 18.4352 14.3211 17.6396 13.3453 17.6396C12.3697 17.6396 11.5738 18.4352 11.5738 19.4111C11.5738 20.3867 12.3697 21.1825 13.3453 21.1825C14.3211 21.1825 15.1167 20.3869 15.1167 19.4111Z" fill="white"/>
<path d="M17.2417 0.639648C7.85429 0.639648 0.241699 8.25224 0.241699 17.6396C0.241699 27.0271 7.85429 34.6396 17.2417 34.6396C26.6291 34.6396 34.2417 27.0271 34.2417 17.6396C34.2417 8.25224 26.6291 0.639648 17.2417 0.639648ZM27.1051 19.9073C27.1425 20.1522 27.1629 20.4004 27.1629 20.6521C27.1629 24.4668 22.7225 27.5575 17.2451 27.5575C11.7676 27.5575 7.32719 24.4668 7.32719 20.6521C7.32719 20.3971 7.34769 20.1454 7.38504 19.9006C6.5215 19.513 5.91969 18.6461 5.91969 17.6396C5.91969 16.2729 7.02811 15.1611 8.39825 15.1611C9.06465 15.1611 9.66646 15.4228 10.1118 15.8513C11.8322 14.6104 14.2124 13.8179 16.8609 13.75C16.8609 13.716 18.0985 7.82034 18.0985 7.82034C18.1224 7.70491 18.1903 7.60608 18.2889 7.54175C18.3875 7.47716 18.5065 7.45667 18.6222 7.48053L22.743 8.35756C23.032 7.77287 23.6268 7.36821 24.3238 7.36821C25.3031 7.36821 26.0953 8.16042 26.0953 9.13965C26.0953 10.1189 25.3031 10.9111 24.3238 10.9111C23.3752 10.9111 22.6069 10.163 22.5628 9.22473L18.8736 8.43927L17.7449 13.7536C20.3459 13.8452 22.6818 14.634 24.3749 15.8581C24.8203 15.4265 25.4255 15.1611 26.0953 15.1611C27.4657 15.1611 28.5738 16.2695 28.5738 17.6396C28.5738 18.6529 27.9653 19.5198 27.1051 19.9073Z" fill="white"/>
<path d="M21.1381 17.6396C20.1623 17.6396 19.3667 18.4352 19.3667 19.4111C19.3667 20.3867 20.1623 21.1825 21.1381 21.1825C22.1137 21.1825 22.9096 20.3867 22.9096 19.4111C22.9096 18.4352 22.114 17.6396 21.1381 17.6396Z" fill="white"/>
</svg>
