<svg width="35" height="35" viewBox="0 0 35 35" fill="none" xmlns="http://www.w3.org/2000/svg">
<path d="M15.1242 20.8246L20.6541 17.6396L15.1242 14.4547V20.8246Z" fill="white"/>
<path d="M17.2417 0.639648C7.85429 0.639648 0.241699 8.25224 0.241699 17.6396C0.241699 27.0271 7.85429 34.6396 17.2417 34.6396C26.6291 34.6396 34.2417 27.0271 34.2417 17.6396C34.2417 8.25224 26.6291 0.639648 17.2417 0.639648ZM27.8641 17.657C27.8641 17.657 27.8641 21.1047 27.4268 22.7672C27.1816 23.6772 26.4641 24.3947 25.5542 24.6395C23.8917 25.0771 17.2417 25.0771 17.2417 25.0771C17.2417 25.0771 10.6091 25.0771 8.92924 24.6222C8.01927 24.3773 7.30177 23.6595 7.05664 22.7496C6.61903 21.1047 6.61903 17.6396 6.61903 17.6396C6.61903 17.6396 6.61903 14.1922 7.05664 12.5297C7.30151 11.6198 8.03665 10.8846 8.92924 10.6398C10.5917 10.2021 17.2417 10.2021 17.2417 10.2021C17.2417 10.2021 23.8917 10.2021 25.5542 10.6571C26.4641 10.902 27.1816 11.6198 27.4268 12.5297C27.8817 14.1922 27.8641 17.657 27.8641 17.657Z" fill="white"/>
</svg>
