<svg width="120" height="82" viewBox="0 0 120 82" fill="none" xmlns="http://www.w3.org/2000/svg">
<path d="M79.9708 19.7931C79.9708 30.4491 71.345 39.0863 60.7061 39.0863C50.0672 39.0863 41.4414 30.4491 41.4414 19.7931C41.4414 9.13715 50.0672 0.5 60.7061 0.5C71.345 0.5 79.9708 9.13715 79.9708 19.7931Z" fill="black" stroke="url(#paint0_linear_1901_188)"/>
<path fill-rule="evenodd" clip-rule="evenodd" d="M65.1982 16.1018C65.4739 15.8257 65.4739 15.3781 65.1982 15.1021C64.9225 14.826 64.4756 14.826 64.1999 15.1021L60.7058 18.6012L57.2119 15.1022C56.9362 14.8261 56.4892 14.8261 56.2136 15.1022C55.9379 15.3782 55.9379 15.8258 56.2136 16.1019L59.7076 19.6009L56.2138 23.0997C55.9381 23.3758 55.9381 23.8233 56.2138 24.0994C56.4895 24.3755 56.9364 24.3755 57.2121 24.0994L60.7058 20.6006L64.1997 24.0995C64.4754 24.3756 64.9223 24.3756 65.198 24.0995C65.4737 23.8234 65.4737 23.3759 65.198 23.0998L61.7041 19.6009L65.1982 16.1018Z" fill="url(#paint1_linear_1901_188)"/>
<path d="M117.135 53.3304C117.135 56.3547 114.708 58.7982 111.724 58.7982C108.74 58.7982 106.312 56.3547 106.312 53.3304C106.312 50.3061 108.74 47.8625 111.724 47.8625C114.708 47.8625 117.135 50.3061 117.135 53.3304Z" fill="black" stroke="url(#paint2_linear_1901_188)"/>
<path d="M103.948 68.7676C103.948 64.4732 107.43 60.9919 111.724 60.9919C116.018 60.9919 119.5 64.4732 119.5 68.7677V70.8571C119.5 72.1076 118.486 73.1212 117.236 73.1212H106.212C104.962 73.1212 103.948 72.1075 103.948 70.8571V68.7676Z" fill="black" stroke="url(#paint3_linear_1901_188)"/>
<path d="M99.8937 53.3304C99.8937 56.3547 97.4666 58.7982 94.4825 58.7982C91.4985 58.7982 89.0713 56.3547 89.0713 53.3304C89.0713 50.3061 91.4985 47.8625 94.4825 47.8625C97.4666 47.8625 99.8937 50.3061 99.8937 53.3304Z" fill="black" stroke="url(#paint4_linear_1901_188)"/>
<path d="M86.707 68.7676C86.707 64.4732 90.1883 60.9919 94.4827 60.9919C98.7771 60.9919 102.258 64.4732 102.258 68.7677V70.8571C102.258 72.1076 101.245 73.1212 99.9944 73.1212H88.9711C87.7207 73.1212 86.707 72.1075 86.707 70.8571V68.7676Z" fill="black" stroke="url(#paint5_linear_1901_188)"/>
<path d="M82.6525 53.3304C82.6525 56.3547 80.2253 58.7982 77.2413 58.7982C74.2572 58.7982 71.8301 56.3547 71.8301 53.3304C71.8301 50.3061 74.2572 47.8625 77.2413 47.8625C80.2253 47.8625 82.6525 50.3061 82.6525 53.3304Z" fill="black" stroke="url(#paint6_linear_1901_188)"/>
<path d="M69.4658 68.7676C69.4658 64.4732 72.9471 60.9919 77.2415 60.9919C81.5359 60.9919 85.0172 64.4732 85.0172 68.7677V70.8571C85.0172 72.1076 84.0036 73.1212 82.7532 73.1212H71.7299C70.4795 73.1212 69.4658 72.1075 69.4658 70.8571V68.7676Z" fill="black" stroke="url(#paint7_linear_1901_188)"/>
<path d="M65.4113 53.3304C65.4113 56.3547 62.9841 58.7982 60.0001 58.7982C57.016 58.7982 54.5889 56.3547 54.5889 53.3304C54.5889 50.3061 57.016 47.8625 60.0001 47.8625C62.9841 47.8625 65.4113 50.3061 65.4113 53.3304Z" fill="black" stroke="url(#paint8_linear_1901_188)"/>
<path d="M52.2246 68.7676C52.2246 64.4732 55.7059 60.9919 60.0003 60.9919C64.2947 60.9919 67.776 64.4732 67.776 68.7677V70.8571C67.776 72.1076 66.7624 73.1212 65.512 73.1212H54.4887C53.2383 73.1212 52.2246 72.1075 52.2246 70.8571V68.7676Z" fill="black" stroke="url(#paint9_linear_1901_188)"/>
<path d="M48.1701 53.3304C48.1701 56.3547 45.7429 58.7982 42.7589 58.7982C39.7748 58.7982 37.3477 56.3547 37.3477 53.3304C37.3477 50.3061 39.7748 47.8625 42.7589 47.8625C45.7429 47.8625 48.1701 50.3061 48.1701 53.3304Z" fill="black" stroke="url(#paint10_linear_1901_188)"/>
<path d="M34.9829 68.7676C34.9829 64.4732 38.4642 60.9919 42.7586 60.9919C47.053 60.9919 50.5343 64.4732 50.5343 68.7677V70.8571C50.5343 72.1076 49.5207 73.1212 48.2703 73.1212H37.247C35.9966 73.1212 34.9829 72.1075 34.9829 70.8571V68.7676Z" fill="black" stroke="url(#paint11_linear_1901_188)"/>
<path d="M30.9284 53.3304C30.9284 56.3547 28.5012 58.7982 25.5172 58.7982C22.5331 58.7982 20.106 56.3547 20.106 53.3304C20.106 50.3061 22.5331 47.8625 25.5172 47.8625C28.5012 47.8625 30.9284 50.3061 30.9284 53.3304Z" fill="black" stroke="url(#paint12_linear_1901_188)"/>
<path d="M17.7412 68.7676C17.7412 64.4732 21.2225 60.9919 25.5169 60.9919C29.8113 60.9919 33.2926 64.4732 33.2926 68.7677V70.8571C33.2926 72.1076 32.279 73.1212 31.0286 73.1212H20.0053C18.7549 73.1212 17.7412 72.1075 17.7412 70.8571V68.7676Z" fill="black" stroke="url(#paint13_linear_1901_188)"/>
<path d="M13.6872 53.3301C13.6872 56.3545 11.26 58.798 8.27597 58.798C5.29192 58.798 2.86475 56.3545 2.86475 53.3301C2.86475 50.3058 5.29192 47.8623 8.27597 47.8623C11.26 47.8623 13.6872 50.3058 13.6872 53.3301Z" fill="black" stroke="url(#paint14_linear_1901_188)"/>
<path d="M0.5 68.7674C0.5 64.473 3.9813 60.9917 8.27571 60.9917C12.5701 60.9917 16.0514 64.473 16.0514 68.7674V70.8569C16.0514 72.1073 15.0378 73.121 13.7874 73.121H2.76406C1.51365 73.121 0.5 72.1073 0.5 70.8569V68.7674Z" fill="black" stroke="url(#paint15_linear_1901_188)"/>
<path fill-rule="evenodd" clip-rule="evenodd" d="M88.2088 76.7944C87.9329 76.5184 87.4856 76.5184 87.2097 76.7944C86.9338 77.0705 86.9338 77.5181 87.2097 77.7942L88.0019 78.5868L31.7655 78.5868C31.3751 78.5868 31.0586 78.9033 31.0586 79.2937C31.0586 79.6841 31.3751 80.0006 31.7655 80.0006H88.0018L87.2098 80.7931C86.9339 81.0692 86.9339 81.5168 87.2098 81.7928C87.4857 82.0689 87.933 82.0689 88.2089 81.7928L90.2038 79.7968C90.2049 79.7957 90.206 79.7946 90.2071 79.7936C90.2114 79.7892 90.2156 79.7849 90.2198 79.7805C90.2469 79.7519 90.2712 79.7216 90.2927 79.69C90.4793 79.4149 90.4508 79.0375 90.2072 78.7937C90.2035 78.79 90.1997 78.7864 90.196 78.7828L88.2088 76.7944Z" fill="url(#paint16_linear_1901_188)"/>
<defs>
<linearGradient id="paint0_linear_1901_188" x1="40.9414" y1="20.3255" x2="80.4708" y2="20.3255" gradientUnits="userSpaceOnUse">
<stop stop-color="#2096D9"/>
<stop offset="1" stop-color="#5C35EE"/>
</linearGradient>
<linearGradient id="paint1_linear_1901_188" x1="56.0199" y1="19.4453" x2="65.3753" y2="19.4684" gradientUnits="userSpaceOnUse">
<stop offset="0.0001" stop-color="#FF2734"/>
<stop offset="1" stop-color="#0003EA"/>
</linearGradient>
<linearGradient id="paint2_linear_1901_188" x1="105.812" y1="53.4909" x2="117.635" y2="53.4909" gradientUnits="userSpaceOnUse">
<stop stop-color="#2096D9"/>
<stop offset="1" stop-color="#5C35EE"/>
</linearGradient>
<linearGradient id="paint3_linear_1901_188" x1="103.448" y1="67.2331" x2="120" y2="67.2331" gradientUnits="userSpaceOnUse">
<stop stop-color="#2096D9"/>
<stop offset="1" stop-color="#5C35EE"/>
</linearGradient>
<linearGradient id="paint4_linear_1901_188" x1="88.5713" y1="53.4909" x2="100.394" y2="53.4909" gradientUnits="userSpaceOnUse">
<stop stop-color="#2096D9"/>
<stop offset="1" stop-color="#5C35EE"/>
</linearGradient>
<linearGradient id="paint5_linear_1901_188" x1="86.207" y1="67.2331" x2="102.758" y2="67.2331" gradientUnits="userSpaceOnUse">
<stop stop-color="#2096D9"/>
<stop offset="1" stop-color="#5C35EE"/>
</linearGradient>
<linearGradient id="paint6_linear_1901_188" x1="71.3301" y1="53.4909" x2="83.1525" y2="53.4909" gradientUnits="userSpaceOnUse">
<stop stop-color="#2096D9"/>
<stop offset="1" stop-color="#5C35EE"/>
</linearGradient>
<linearGradient id="paint7_linear_1901_188" x1="68.9658" y1="67.2331" x2="85.5172" y2="67.2331" gradientUnits="userSpaceOnUse">
<stop stop-color="#2096D9"/>
<stop offset="1" stop-color="#5C35EE"/>
</linearGradient>
<linearGradient id="paint8_linear_1901_188" x1="54.0889" y1="53.4909" x2="65.9113" y2="53.4909" gradientUnits="userSpaceOnUse">
<stop stop-color="#2096D9"/>
<stop offset="1" stop-color="#5C35EE"/>
</linearGradient>
<linearGradient id="paint9_linear_1901_188" x1="51.7246" y1="67.2331" x2="68.276" y2="67.2331" gradientUnits="userSpaceOnUse">
<stop stop-color="#2096D9"/>
<stop offset="1" stop-color="#5C35EE"/>
</linearGradient>
<linearGradient id="paint10_linear_1901_188" x1="36.8477" y1="53.4909" x2="48.6701" y2="53.4909" gradientUnits="userSpaceOnUse">
<stop stop-color="#2096D9"/>
<stop offset="1" stop-color="#5C35EE"/>
</linearGradient>
<linearGradient id="paint11_linear_1901_188" x1="34.4829" y1="67.2331" x2="51.0343" y2="67.2331" gradientUnits="userSpaceOnUse">
<stop stop-color="#2096D9"/>
<stop offset="1" stop-color="#5C35EE"/>
</linearGradient>
<linearGradient id="paint12_linear_1901_188" x1="19.606" y1="53.4909" x2="31.4284" y2="53.4909" gradientUnits="userSpaceOnUse">
<stop stop-color="#2096D9"/>
<stop offset="1" stop-color="#5C35EE"/>
</linearGradient>
<linearGradient id="paint13_linear_1901_188" x1="17.2412" y1="67.2331" x2="33.7926" y2="67.2331" gradientUnits="userSpaceOnUse">
<stop stop-color="#2096D9"/>
<stop offset="1" stop-color="#5C35EE"/>
</linearGradient>
<linearGradient id="paint14_linear_1901_188" x1="2.36475" y1="53.4907" x2="14.1872" y2="53.4907" gradientUnits="userSpaceOnUse">
<stop stop-color="#2096D9"/>
<stop offset="1" stop-color="#5C35EE"/>
</linearGradient>
<linearGradient id="paint15_linear_1901_188" x1="0" y1="67.2329" x2="16.5514" y2="67.2329" gradientUnits="userSpaceOnUse">
<stop stop-color="#2096D9"/>
<stop offset="1" stop-color="#5C35EE"/>
</linearGradient>
<linearGradient id="paint16_linear_1901_188" x1="31.0586" y1="79.3664" x2="90.4141" y2="79.3664" gradientUnits="userSpaceOnUse">
<stop stop-color="#2096D9"/>
<stop offset="1" stop-color="#5C35EE"/>
</linearGradient>
</defs>
</svg>
