<svg width="220" height="134" viewBox="0 0 220 134" fill="none" xmlns="http://www.w3.org/2000/svg">
<mask id="mask0_2600_2527" style="mask-type:alpha" maskUnits="userSpaceOnUse" x="32" y="0" width="175" height="134">
<rect x="32" width="175" height="134" fill="url(#paint0_linear_2600_2527)"/>
</mask>
<g mask="url(#mask0_2600_2527)">
<path d="M168.936 328.901H56.4275C42.8765 328.901 32 318.062 32 304.557V24.3433C32 10.839 43.0548 0 56.4275 0H168.936C182.487 0 193.364 10.839 193.364 24.3433V304.557C193.364 318.062 182.309 328.901 168.936 328.901Z" fill="#D8E0EB"/>
<path d="M168.974 8.35149L147.042 8.17379C144.19 8.17379 141.693 10.6614 141.693 13.6821V17.5913C141.693 20.612 139.375 23.0996 136.344 23.0996L93.7299 22.9219C90.877 22.9219 88.3808 20.4343 88.3808 17.4136V13.5044C88.3808 10.4837 86.0628 7.99609 83.0317 7.99609H75.3647H56.2863C46.8363 7.99609 38.9909 15.6367 38.9909 25.0542L37.9211 300.115C37.9211 309.533 45.5881 317.351 55.0382 317.351L167.725 317.884C177.175 317.884 185.021 310.244 185.021 300.826L186.269 25.5872C186.091 16.1698 178.424 8.35149 168.974 8.35149Z" fill="#1F232E"/>
<mask id="mask1_2600_2527" style="mask-type:alpha" maskUnits="userSpaceOnUse" x="37" y="7" width="150" height="311">
<path d="M168.974 8.35052L147.042 8.17282C144.19 8.17282 141.693 10.6605 141.693 13.6812V17.5903C141.693 20.611 139.375 23.0986 136.344 23.0986L93.7299 22.9209C90.877 22.9209 88.3808 20.4333 88.3808 17.4126V13.5035C88.3808 10.4828 86.0628 7.99512 83.0317 7.99512H75.3647H56.2863C46.8363 7.99512 38.9909 15.6357 38.9909 25.0532L37.9211 300.114C37.9211 309.532 45.5881 317.35 55.0382 317.35L167.725 317.883C177.175 317.883 185.021 310.243 185.021 300.825L186.269 25.5863C186.091 16.1688 178.424 8.35052 168.974 8.35052Z" fill="#1B1E27"/>
</mask>
<g mask="url(#mask1_2600_2527)">
<path opacity="0.3" d="M164.574 241.602C164.988 242.895 165.357 244.098 165.748 245.3C165.863 245.277 165.979 245.277 166.094 245.255C166.094 243.44 166.094 241.602 166.094 239.787C166.209 239.764 166.324 239.719 166.462 239.696C166.831 240.445 167.199 241.216 167.544 241.965C167.614 241.965 167.683 241.942 167.752 241.942C167.752 241.284 167.821 240.627 167.729 239.991C167.475 237.904 167.153 235.794 166.946 233.707C166.877 232.913 167.107 232.073 167.061 231.279C166.969 230.054 166.831 228.829 166.554 227.627C166.255 226.288 165.794 224.972 165.426 223.656C164.597 220.616 163.998 217.486 162.939 214.536C161.995 211.904 161.834 209.227 161.649 206.528C161.626 206.255 161.741 205.915 161.926 205.688C162.593 204.781 162.824 203.873 162.156 202.762C163.63 202.262 163.515 201.015 163.745 199.88C164.251 197.566 164.09 195.479 162.363 193.619C161.35 192.53 160.567 191.282 159.623 190.147C159.323 189.784 158.909 189.558 158.541 189.285C159.508 186.54 159.231 183.772 158.518 181.005C158.379 180.483 158.034 179.984 157.689 179.553C156.077 177.488 154.419 175.446 152.83 173.382C152.576 173.064 152.323 172.52 152.415 172.179C153.037 170.115 152.254 168.232 151.724 166.326C151.517 165.532 151.31 164.715 151.287 163.898C151.195 158.68 150.504 153.53 149.675 148.403C149.606 148.04 149.79 147.541 150.043 147.223C150.734 146.293 151.494 145.386 152.3 144.546C152.576 144.251 153.037 144.138 153.566 143.843C153.267 146.633 151.425 148.471 150.389 150.853C150.688 150.785 150.941 150.808 151.126 150.694C153.566 149.061 155.984 147.359 157.136 144.524C157.205 144.342 157.366 144.183 157.389 144.024C157.504 142.3 158.748 141.415 160.014 140.531C160.222 140.372 160.452 140.213 160.636 140.009C163.284 137.059 165.933 134.11 168.604 131.138C168.995 130.707 169.364 130.276 169.778 129.913C170.331 129.437 170.584 129.005 170.216 128.257C170.078 127.985 170.262 127.417 170.492 127.19C171.736 125.943 172.38 124.377 172.979 122.766C173.094 122.449 173.255 122.063 173.163 121.791C172.703 120.294 173.486 119.182 174.223 118.025C176.571 114.168 177.216 109.903 177.654 105.615C177.7 105.207 177.354 104.753 177.17 104.276C175.282 105.297 174.476 107.475 172.127 107.725C171.62 106.114 172.772 104.776 172.818 103.187C171.966 103.664 171.137 104.14 170.101 104.707C170.492 103.119 170.791 101.735 171.16 100.374C171.897 97.6517 171.62 95.0654 170.124 92.6379C169.041 90.8683 167.867 89.144 166.808 87.3517C165.587 85.2645 164.482 83.1319 163.33 81.022C163.722 80.6817 163.952 80.4775 164.159 80.2733C165.011 79.3885 165.518 78.4584 165.034 77.1198C164.067 74.3747 163.238 71.5841 162.294 68.839C161.857 67.5231 161.373 67.3643 160.014 67.8181C159.139 68.113 158.287 68.4079 157.366 68.7256C157.274 68.4987 157.205 68.3399 157.159 68.1584C156.606 66.3434 156.675 66.4115 158.218 65.1863C160.152 63.6663 161.051 61.5337 161.12 59.1289C161.212 56.1342 160.613 53.2529 158.379 51.0976C156.698 49.4868 154.718 47.9894 152.277 47.7853C150.895 47.6718 149.813 47.5357 148.846 46.4467C147.809 45.267 146.359 45.1082 144.839 45.4712C144.447 45.5619 144.033 45.5392 143.457 45.5619C143.711 45.0628 143.872 44.7452 144.033 44.4049C142.375 41.8639 139.773 40.7749 136.94 40.0943C136.618 40.0035 136.272 39.7767 136.042 39.5044C135.19 38.5969 134.361 37.7575 132.956 37.8483C132.15 37.9163 131.344 37.8483 130.538 37.8483C129.318 37.8483 128.742 37.4853 128.696 36.3282C128.604 33.8326 127.453 31.7908 126.094 29.7943C124.874 28.002 123.814 26.0963 122.617 24.1452C122.617 24.1452 122.387 24.2813 122.041 24.4628C120.314 21.9899 117.827 20.4472 115.087 19.154C112.093 17.7474 109.053 17.2029 105.852 18.1104C103.826 18.6776 102.583 20.2657 101.408 21.8538C100.924 22.5344 100.51 23.2604 99.9804 23.9183C99.4277 24.5989 98.7829 25.2342 98.069 25.9829C98.4835 26.5047 98.1151 26.845 97.4703 27.276C95.559 28.5692 93.7167 29.9531 91.6903 31.4051C92.6575 31.9496 93.6246 32.5168 94.753 33.1293C94.3846 33.8326 93.9931 34.6267 93.6016 35.4207C94.3385 35.9652 95.0293 36.4643 95.7432 37.0088C95.6741 37.3265 95.582 37.6895 95.4899 38.1432C95.1445 38.2113 94.753 38.2793 94.2003 38.3701C95.559 40.185 96.8485 41.9093 98.2763 43.815C97.6545 43.9058 97.263 43.9738 96.4801 44.0872C97.5394 45.1082 98.4375 45.9703 99.3586 46.8778C99.1744 46.9685 98.898 47.1046 98.6217 47.2408C98.6447 47.3542 98.6217 47.4903 98.6908 47.5584C99.704 48.6701 100.694 49.8271 101.777 50.8707C102.536 51.5967 103.204 52.2546 102.306 53.4571C103.158 53.5932 103.849 53.6839 104.747 53.8201C104.333 54.2511 103.987 54.5461 103.734 54.8637C102.191 56.724 100.602 58.539 99.1283 60.4674C98.2533 61.6245 98.3914 61.874 99.7501 62.6454C99.0132 63.9839 98.069 65.2317 97.5624 66.6383C96.1807 70.3137 95.4208 74.1251 95.7893 78.0727C96.1577 81.9522 95.0524 85.6275 94.3846 89.3709C94.1773 90.528 93.4404 91.5943 92.8877 92.8647C90.654 93.6588 88.973 95.3603 87.7064 97.6064C86.9235 98.9903 85.8181 100.215 84.6437 101.418C84.7128 101.078 84.8049 100.76 84.874 100.42C83.6075 99.2398 83.4693 99.2172 81.9955 100.034C80.9132 100.646 79.7387 101.123 78.7255 101.849C78.0577 102.325 77.6662 103.187 77.0675 103.8C76.2385 104.639 75.3634 105.479 74.4423 106.228C72.9685 107.407 71.4487 108.474 70.067 109.789C68.6162 111.151 68.1326 112.535 68.0175 114.281C67.9254 115.711 68.1787 117.299 67.603 118.524C66.8431 120.157 67.0964 121.768 66.8891 123.379C66.8431 123.765 67.0503 124.173 67.1424 124.559C67.2345 124.559 67.3267 124.559 67.4188 124.559C67.8563 123.742 68.2938 122.903 68.7314 122.086C68.8465 122.063 68.9616 122.04 69.0768 122.018C69.3762 122.812 69.9058 123.629 69.9288 124.423C69.9519 125.534 70.4354 126.26 71.1493 126.986C71.8401 127.667 72.508 128.37 73.1988 129.051C73.2909 129.005 73.383 128.96 73.4982 128.915C73.2909 128.121 73.1067 127.327 72.8764 126.374C73.8205 126.759 74.5805 126.986 74.8798 128.053C75.3174 129.731 76.6069 130.594 78.4952 130.73C78.1498 129.527 77.8044 128.302 77.459 127.1C77.5741 127.032 77.6893 126.964 77.8044 126.873C78.1498 126.964 78.5183 127.054 78.8637 127.145C79.117 127.213 79.4854 127.417 79.6006 127.327C80.4987 126.601 81.5349 127.19 82.456 126.964C82.8936 126.85 83.5614 126.578 83.5844 126.306C83.6305 125.897 83.3541 125.307 83.0087 124.99C82.1106 124.173 82.1337 123.924 82.9396 122.993C84.1832 121.541 85.5188 120.112 85.7721 118.093C85.7951 117.979 85.7951 117.798 85.8412 117.798C87.2228 117.39 87.2228 115.87 88.0749 115.098C89.019 114.259 90.1013 113.555 91.1146 112.784C91.437 112.535 91.9206 112.285 91.9896 111.967C92.312 110.72 93.2792 110.198 94.3155 109.653C95.6972 108.927 97.0097 108.111 98.5756 107.453C97.8848 108.678 97.1249 109.88 96.5031 111.128C96.1807 111.786 96.1116 112.557 95.9274 113.283C95.6741 114.327 95.6972 115.529 95.1445 116.391C91.5751 122.086 89.4566 128.37 87.1538 134.632C84.897 140.689 83.6305 146.883 83.1008 153.258C83.0548 153.712 83.0548 154.211 82.8475 154.574C81.7882 156.412 81.558 158.453 81.3737 160.45C81.2356 161.993 81.6731 163.581 81.8804 165.123C81.9725 165.804 82.2718 166.485 82.1797 167.12C81.627 170.954 82.1337 174.72 82.5482 178.509C82.5712 178.758 82.4791 179.008 82.41 179.258C81.9034 181.118 81.3968 182.956 80.8901 184.816C80.8671 184.884 80.8211 184.975 80.8671 185.043C81.558 186.586 80.2454 187.47 79.6927 188.627C78.5643 191.01 77.5281 193.414 76.4227 195.887C76.7681 196.069 77.0445 196.205 77.3208 196.341C77.3438 196.455 77.3899 196.545 77.3899 196.591C76.63 198.564 77.5281 200.153 78.5873 201.741C78.7946 202.058 78.9788 202.557 78.9097 202.92C78.4262 205.098 77.7353 207.095 76.0312 208.796C73.7054 211.133 71.2644 213.288 68.3859 214.945C67.4418 215.489 66.7279 216.419 65.8068 216.986C65.3923 217.259 64.6324 217.281 64.1488 217.1C61.7078 216.215 59.4971 218.143 59.0826 219.936C58.6911 221.728 58.553 223.588 58.3688 225.426C58.3227 225.88 58.576 226.356 58.6451 226.629C57.2404 228.262 55.8587 229.873 54.5001 231.484C54.5922 231.574 54.6843 231.688 54.7994 231.778C56.4114 230.803 57.724 229.238 60.188 229.26C57.8391 230.417 57.1483 232.482 56.2272 234.41C58.1385 232.459 60.4643 231.279 62.9744 230.621C61.9611 232.391 60.9249 234.206 59.8886 235.998C59.9807 236.066 60.0728 236.134 60.1649 236.202C62.5138 233.866 64.7015 231.257 68.6162 231.438C68.1557 232.731 67.7412 233.934 67.3036 235.136C69.8137 231.892 73.2679 230.553 77.2747 229.782C76.9754 230.712 76.7221 231.484 76.4918 232.255C78.6334 229.895 81.1435 228.285 84.3904 227.581C84.2292 228.489 84.091 229.283 83.9068 230.281C86.9005 225.857 90.7692 224.292 96.1577 225.971C95.1445 224.927 94.3385 224.088 93.3943 223.112C95.0984 222.295 96.8716 222.023 98.829 223.203C97.7927 221.524 97.5854 221.365 94.6609 220.253C94.8221 219.21 94.9603 218.121 95.1445 217.054C95.3978 215.671 94.9142 214.559 93.8779 213.606C93.6016 213.334 93.5095 212.857 93.4174 212.449C93.3022 211.973 93.3943 211.428 93.1641 211.042C92.8877 210.543 92.1048 210.18 92.0587 209.727C91.9205 207.685 91.7133 205.529 93.2792 203.851C93.7858 203.306 94.6379 203.102 95.2826 202.648C95.7893 202.308 96.1577 201.695 96.6873 201.468C98.0921 200.856 97.9769 199.245 98.875 198.36C99.9113 197.317 100.533 196.069 100.602 194.64C100.648 193.278 100.925 191.758 99.5198 190.76C99.4277 190.692 99.3125 190.488 99.3356 190.374C99.6119 189.104 99.1513 187.607 100.579 186.699C101.086 186.381 101.477 185.882 101.846 185.383C102.49 184.476 103.158 183.409 102.629 182.343C101.155 179.371 101.224 176.104 100.648 172.973C100.487 172.066 100.51 171.317 101.178 170.591C101.408 170.342 101.454 169.842 101.477 169.434C101.592 167.982 101.846 166.553 103.112 165.6C105.093 164.103 105.691 161.925 106.152 159.701C107.05 155.345 107.787 150.944 108.708 146.588C109.284 143.888 110.619 141.551 112.784 139.737C113.935 140.78 115.064 141.778 116.169 142.799C116.307 142.935 116.468 143.162 116.607 143.14C117.896 143.049 117.965 144.092 118.311 144.864C118.978 146.338 119.738 147.79 120.291 149.311C120.729 150.513 120.798 151.851 121.281 153.009C122.525 155.958 123.906 158.862 125.288 161.743C126.808 164.897 128.305 168.073 129.963 171.158C132.289 175.446 134.776 179.643 137.148 183.886C137.493 184.498 137.838 185.292 137.746 185.95C137.424 188.174 137.884 190.034 139.589 191.599C140.441 192.394 141.016 193.097 140.049 194.458C139.427 195.32 139.796 196.863 139.704 198.088C139.704 198.201 139.704 198.315 139.75 198.428C140.371 199.653 139.082 200.969 140.049 202.217C140.832 203.215 141.5 204.327 142.122 205.439C143.066 207.095 144.747 207.594 146.313 208.343C146.727 208.524 147.234 208.842 147.372 209.205C148.04 211.156 148.731 213.13 149.168 215.149C149.398 216.17 149.099 217.281 149.007 218.348C148.869 219.732 148.685 221.116 148.523 222.499C148.477 222.84 148.546 223.271 148.362 223.475C147.326 224.609 147.349 226.039 147.211 227.423C146.911 230.644 146.658 233.888 146.405 237.133C146.336 237.949 146.405 238.766 146.405 239.742C146.635 239.469 146.773 239.288 147.004 238.993C146.75 240.967 146.497 242.827 146.244 244.688C146.359 244.71 146.451 244.756 146.566 244.778C147.257 243.44 147.925 242.101 148.569 240.808C148.8 240.831 148.846 240.831 148.869 240.853C150.481 241.352 150.734 242.373 150.435 243.962C150.158 245.459 150.366 247.047 150.366 248.93C151.287 246.707 152.07 244.756 152.83 242.941C153.152 242.873 153.221 242.827 153.29 242.85C155.616 243.349 155.593 243.349 155.869 245.754C155.984 246.843 156.192 247.909 156.376 248.998C156.399 249.134 156.491 249.27 156.652 249.679C157.021 247.864 157.389 246.298 157.619 244.733C157.758 243.735 158.264 243.349 159.231 243.258C161.189 243.054 161.212 243.009 161.834 244.846C162.248 246.071 162.616 247.297 163.008 248.522C163.031 248.567 163.123 248.59 163.284 248.703C163.284 247.024 163.353 245.436 163.261 243.848C163.238 242.827 163.422 242.078 164.574 241.602ZM135.374 102.779C135.72 102.824 135.927 102.892 136.088 102.87C137.424 102.711 138.875 102.892 139.565 101.214C140.348 99.3306 141.408 97.561 142.26 95.7233C142.467 95.2696 142.398 94.6797 142.421 94.2487C143.734 91.8892 145.069 89.507 146.336 87.2383C146.911 87.6694 147.372 88.0551 147.879 88.3954C148.178 88.5995 148.615 88.6676 148.8 88.9399C149.813 90.4372 150.803 91.9799 151.724 93.5227C152.3 94.4982 153.129 95.4738 153.244 96.5174C153.52 98.8542 153.428 101.236 153.451 103.573C153.474 106.318 153.451 109.063 153.451 111.877C152.461 111.922 152.254 112.739 152.369 113.76C152.438 114.554 152.553 115.348 152.553 116.119C152.553 117.753 152.507 119.386 152.461 120.702C147.51 122.835 143.803 125.534 143.434 131.161C142.329 129.595 141.316 128.279 140.464 126.85C139.819 125.761 139.22 124.581 138.898 123.379C138.023 120.044 137.286 116.686 136.549 113.51C136.618 113.079 136.756 112.761 136.71 112.489C136.457 111.309 136.157 110.152 135.881 108.973C135.605 107.838 136.457 106.386 134.937 105.57C134.891 105.547 134.914 105.433 134.914 105.343C135.121 104.526 135.236 103.664 135.374 102.779Z" fill="black"/>
<path d="M52.6553 18.7864C51.2891 20.1452 51.1644 22.2781 52.2808 23.7784L51.1316 24.9214C50.9082 25.1435 50.9082 25.5039 51.1316 25.7263C51.355 25.9484 51.7173 25.9484 51.9409 25.7263L53.0901 24.5833C54.5986 25.6937 56.7432 25.5697 58.1093 24.2109C59.6131 22.7154 59.6131 20.282 58.1093 18.7866C56.6056 17.2913 54.1587 17.2911 52.6553 18.7864ZM57.3 23.406C56.3813 24.3197 54.9623 24.4395 53.9122 23.7657L54.3659 23.3145C54.5892 23.0923 54.5892 22.732 54.3659 22.5096C54.1425 22.2874 53.7802 22.2874 53.5566 22.5096L53.1029 22.9608C52.4255 21.9164 52.5459 20.505 53.4646 19.5913C54.522 18.5397 56.2426 18.5397 57.3 19.5913C58.3574 20.643 58.3574 22.3543 57.3 23.406ZM53.823 26.0593C54.0464 26.2815 54.0464 26.6418 53.823 26.8642L51.3983 29.2758C51.1749 29.4979 50.8126 29.4979 50.589 29.2758C50.3656 29.0536 50.3656 28.6932 50.589 28.4708L53.0139 26.0593C53.2373 25.8371 53.5996 25.8371 53.823 26.0593ZM47.5626 26.2658C47.3392 26.0436 47.3392 25.6832 47.5626 25.4609L49.9875 23.0491C50.2109 22.8269 50.5732 22.8269 50.7968 23.0491C51.0202 23.2712 51.0202 23.6316 50.7968 23.854L48.3719 26.2658C48.1482 26.4882 47.7862 26.4882 47.5626 26.2658Z" fill="white"/>
<path d="M177.658 22.9648C177.658 26.5423 174.742 29.4424 171.145 29.4424C167.548 29.4424 164.632 26.5423 164.632 22.9648C164.632 19.3874 167.548 16.4873 171.145 16.4873C174.742 16.4873 177.658 19.3874 177.658 22.9648Z" fill="#2632A5"/>
<path fill-rule="evenodd" clip-rule="evenodd" d="M171.145 27.9476C173.912 27.9476 176.155 25.7167 176.155 22.9648C176.155 20.213 173.912 17.9821 171.145 17.9821C168.378 17.9821 166.135 20.213 166.135 22.9648C166.135 25.7167 168.378 27.9476 171.145 27.9476ZM171.145 29.4424C174.742 29.4424 177.658 26.5423 177.658 22.9648C177.658 19.3874 174.742 16.4873 171.145 16.4873C167.548 16.4873 164.632 19.3874 164.632 22.9648C164.632 26.5423 167.548 29.4424 171.145 29.4424Z" fill="white"/>
</g>
</g>
<path d="M130.237 132.691C130.237 132.041 130.667 131.514 131.199 131.514H144.669C145.201 131.514 145.631 132.041 145.631 132.691C145.631 133.342 145.201 133.869 144.669 133.869H131.199C130.667 133.869 130.237 133.342 130.237 132.691Z" fill="white"/>
<path opacity="0.3" d="M149.184 132.691C149.184 132.041 149.648 131.514 150.22 131.514H156.437C157.009 131.514 157.473 132.041 157.473 132.691C157.473 133.342 157.009 133.869 156.437 133.869H150.22C149.648 133.869 149.184 133.342 149.184 132.691Z" fill="white"/>
<path opacity="0.3" d="M159.842 132.691C159.842 132.041 160.306 131.514 160.878 131.514H167.095C167.667 131.514 168.131 132.041 168.131 132.691C168.131 133.342 167.667 133.869 167.095 133.869H160.878C160.306 133.869 159.842 133.342 159.842 132.691Z" fill="white"/>
<path opacity="0.3" d="M170.5 132.691C170.5 132.041 170.897 131.514 171.388 131.514H176.717C177.207 131.514 177.605 132.041 177.605 132.691C177.605 133.342 177.207 133.869 176.717 133.869H171.388C170.897 133.869 170.5 133.342 170.5 132.691Z" fill="white"/>
<path d="M46.1577 126.214C46.1577 121.986 49.426 118.559 53.4576 118.559H74.3841C78.4157 118.559 81.684 121.986 81.684 126.214C81.684 130.442 78.4157 133.869 74.3841 133.869H53.4576C49.426 133.869 46.1577 130.442 46.1577 126.214Z" fill="white"/>
<path d="M46.1577 87.9375H117.21V96.1816H46.1577V87.9375Z" fill="#404651"/>
<path d="M46.1577 100.893H158.658V111.492H46.1577V100.893Z" fill="#404651"/>
<path d="M13 12.4463C13 11.3417 13.8954 10.4463 15 10.4463H60.0714C61.176 10.4463 62.0714 11.3417 62.0714 12.4463V31.8938C62.0714 32.9984 61.176 33.8938 60.0714 33.8938H15C13.8954 33.8938 13 32.9984 13 31.8938V12.4463Z" fill="url(#paint1_linear_2600_2527)"/>
<path d="M19.7427 28.483V15.6602H24.3839C26.0464 15.6602 27.3095 15.9625 28.1733 16.5673C29.043 17.172 29.4778 18.0498 29.4778 19.2005C29.4778 19.864 29.324 20.4306 29.0163 20.9003C28.7087 21.37 28.2561 21.7164 27.6586 21.9395C28.333 22.1156 28.8507 22.4444 29.2116 22.9259C29.5725 23.4073 29.7529 23.9944 29.7529 24.6872C29.7529 25.9437 29.3506 26.889 28.546 27.5231C27.7473 28.1513 26.5611 28.4713 24.9874 28.483H19.7427ZM22.8576 23.0315V26.1051H24.8987C25.4607 26.1051 25.8926 25.9789 26.1943 25.7264C26.496 25.4681 26.6469 25.107 26.6469 24.6432C26.6469 23.5746 26.1115 23.0374 25.0406 23.0315H22.8576ZM22.8576 21.0059H24.4816C25.1619 21.0001 25.6471 20.8768 25.9369 20.6361C26.2268 20.3953 26.3718 20.0401 26.3718 19.5704C26.3718 19.0303 26.215 18.6428 25.9014 18.4079C25.5879 18.1672 25.0821 18.0468 24.3839 18.0468H22.8576V21.0059Z" fill="white"/>
<path d="M35.9827 28.6591C34.5095 28.6591 33.3174 28.2247 32.4063 27.3557C31.4952 26.4809 31.0397 25.3448 31.0397 23.9475V23.7009C31.0397 22.7262 31.2201 21.8661 31.581 21.1204C31.9478 20.3748 32.4803 19.7994 33.1784 19.3943C33.8765 18.9833 34.7048 18.7778 35.6632 18.7778C37.0121 18.7778 38.077 19.1947 38.8579 20.0284C39.6389 20.8562 40.0294 22.0129 40.0294 23.4983V24.652H34.0836C34.1901 25.1863 34.4237 25.6061 34.7846 25.9114C35.1455 26.2167 35.6129 26.3694 36.1868 26.3694C37.1334 26.3694 37.8729 26.0406 38.4054 25.383L39.772 26.9858C39.3993 27.4966 38.8698 27.9047 38.1835 28.21C37.5031 28.5094 36.7695 28.6591 35.9827 28.6591ZM35.6454 21.0676C34.7698 21.0676 34.2492 21.643 34.0836 22.7937H37.1008V22.5648C37.1127 22.0892 36.9914 21.7222 36.737 21.4639C36.4826 21.1997 36.1187 21.0676 35.6454 21.0676Z" fill="white"/>
<path d="M44.7239 16.5849V18.9539H46.3035V21.0148H44.7239V25.3742C44.7239 25.7323 44.7889 25.9818 44.9191 26.1228C45.0493 26.2637 45.3066 26.3341 45.6912 26.3341C45.987 26.3341 46.2355 26.3165 46.4366 26.2813V28.4037C45.8982 28.574 45.3362 28.6591 44.7505 28.6591C43.7211 28.6591 42.9608 28.4184 42.4698 27.937C41.9787 27.4555 41.7332 26.7246 41.7332 25.7441V21.0148H40.5086V18.9539H41.7332V16.5849H44.7239Z" fill="white"/>
<path d="M52.8971 28.483C52.7906 28.2893 52.696 28.0045 52.6131 27.6287C52.0629 28.3157 51.2938 28.6591 50.3058 28.6591C49.4006 28.6591 48.6315 28.3891 47.9985 27.8489C47.3655 27.3029 47.0489 26.6189 47.0489 25.7969C47.0489 24.7636 47.4335 23.9827 48.2026 23.4543C48.9717 22.9259 50.0899 22.6616 51.5571 22.6616H52.48V22.1597C52.48 21.2848 52.0984 20.8474 51.3352 20.8474C50.6253 20.8474 50.2703 21.1938 50.2703 21.8866H47.2797C47.2797 20.9648 47.6731 20.2163 48.46 19.6409C49.2527 19.0655 50.2614 18.7778 51.4861 18.7778C52.7108 18.7778 53.6781 19.0743 54.388 19.6673C55.0979 20.2603 55.4618 21.0735 55.4795 22.1068V26.3253C55.4914 27.2001 55.6274 27.8695 55.8878 28.3333V28.483H52.8971ZM51.0246 26.5455C51.3974 26.5455 51.705 26.4662 51.9476 26.3077C52.196 26.1492 52.3735 25.9701 52.48 25.7705V24.2469H51.6103C50.5691 24.2469 50.0485 24.7107 50.0485 25.6384C50.0485 25.9085 50.1402 26.1286 50.3236 26.2989C50.507 26.4633 50.7407 26.5455 51.0246 26.5455Z" fill="white"/>
<defs>
<linearGradient id="paint0_linear_2600_2527" x1="119.5" y1="34.0809" x2="119.5" y2="134" gradientUnits="userSpaceOnUse">
<stop stop-color="white"/>
<stop offset="1" stop-color="white" stop-opacity="0"/>
</linearGradient>
<linearGradient id="paint1_linear_2600_2527" x1="13" y1="33.9961" x2="62.0714" y2="33.9956" gradientUnits="userSpaceOnUse">
<stop stop-color="#2096D9"/>
<stop offset="1" stop-color="#5C35EE"/>
</linearGradient>
</defs>
</svg>
