<svg width="272" height="534" viewBox="0 0 272 534" fill="none" xmlns="http://www.w3.org/2000/svg">
<path opacity="0.5" d="M157.515 113.225C166.483 118.981 174.483 125.531 181.4 132.673C224.528 177.081 204.698 235.379 189.039 266.116C174.255 295.099 157.259 323.692 140.718 351.29C125.968 376.049 110.736 401.656 97.1143 427.397L96.7966 427.836C76.4363 458.902 41.988 510.905 -12.2363 500.548C-28.7465 497.414 -44.4902 491.041 -59.1085 481.658C-97.3136 457.137 -120.194 417.232 -132.579 388.053C-162.198 318.604 -187.334 184.481 -93.9911 122.028C-23.6782 74.9016 91.508 70.8591 157.515 113.225ZM91.7147 429.088C108.357 403.733 124.786 372.508 139.599 347.661C156.012 320.238 172.825 289.58 187.419 260.861C201.848 232.551 217.506 175.563 178.69 135.724C172.274 129.161 161.184 119.956 152.933 114.66C90.3343 74.4819 -24.8868 78.7454 -91.8098 123.544C-186.033 192.768 -157.906 320.574 -129.603 387.12C-111.397 428.048 -85.3365 460.67 -54.7589 480.296C-41.3065 488.93 -26.5549 494.862 -11.4386 497.745C31.6082 505.945 59.3608 478.382 91.7147 429.088Z" fill="url(#paint0_linear_3795_6396)"/>
<path opacity="0.5" d="M195.922 368.52C193.164 378.814 189.355 388.427 184.654 397.186C155.454 451.771 93.8874 450.598 59.8446 445.022C27.7393 439.746 -4.6662 432.244 -35.9862 424.874C-64.0568 418.347 -93.0823 411.618 -121.745 406.464L-122.26 406.295C-158.044 396.34 -218.057 379.326 -224.672 324.52C-226.704 307.838 -225.417 290.902 -220.921 274.123C-209.171 230.273 -178.108 196.346 -154.073 175.679C-96.9122 126.354 23.2263 61.6418 111.095 131.588C177.362 184.251 216.222 292.76 195.922 368.52ZM-124.998 401.834C-95.7836 409.983 -61.0427 416.144 -32.8691 422.705C-1.75515 430.007 32.5626 436.706 64.3587 441.881C95.7151 447.023 154.766 444.62 180.923 395.532C185.225 387.425 190.625 374.062 193.162 364.592C212.414 292.743 173.333 184.268 110.313 134.127C15.7267 65.4002 -97.4849 131.041 -152.28 178.231C-185.739 208.014 -208.897 242.757 -218.301 277.853C-222.438 293.293 -223.606 309.15 -221.758 324.427C-216.487 367.93 -181.793 385.993 -124.998 401.834Z" fill="url(#paint1_linear_3795_6396)"/>
<defs>
<linearGradient id="paint0_linear_3795_6396" x1="-19.4008" y1="387.227" x2="158.791" y2="113.522" gradientUnits="userSpaceOnUse">
<stop stop-color="#8B1788"/>
<stop offset="1" stop-color="#5C35EE"/>
</linearGradient>
<linearGradient id="paint1_linear_3795_6396" x1="-37.0164" y1="435.012" x2="70.0721" y2="108.802" gradientUnits="userSpaceOnUse">
<stop stop-color="#F5263C"/>
<stop offset="1" stop-color="#6A129F"/>
</linearGradient>
</defs>
</svg>
