<svg width="240" height="240" viewBox="0 0 240 240" fill="none" xmlns="http://www.w3.org/2000/svg">
<circle cx="120" cy="120" r="120" fill="url(#paint0_linear_3789_5010)"/>
<circle cx="120" cy="120" r="117.5" stroke="url(#paint1_linear_3789_5010)" stroke-width="5"/>
<path d="M138.418 118.567C138.418 118.601 138.418 118.644 138.409 118.679C138.452 118.377 138.495 118.067 138.529 117.765C138.512 117.877 138.486 117.981 138.443 118.084C138.555 117.808 138.675 117.533 138.787 117.257C138.735 117.36 138.684 117.447 138.615 117.533C138.795 117.3 138.975 117.067 139.156 116.835C139.113 116.887 139.061 116.938 139.001 116.99C139.233 116.809 139.464 116.628 139.696 116.447C139.602 116.516 139.524 116.568 139.421 116.619C139.696 116.507 139.971 116.387 140.245 116.275C140.134 116.318 140.039 116.344 139.928 116.361C140.228 116.318 140.537 116.275 140.837 116.24C140.76 116.249 140.683 116.249 140.605 116.24C140.906 116.283 141.215 116.326 141.515 116.361C141.403 116.344 141.3 116.318 141.197 116.275C141.472 116.387 141.746 116.507 142.021 116.619C141.918 116.568 141.832 116.516 141.746 116.447C141.978 116.628 142.21 116.809 142.441 116.99C142.39 116.947 142.338 116.895 142.287 116.835C142.467 117.067 142.647 117.3 142.827 117.533C142.759 117.438 142.707 117.36 142.656 117.257C142.767 117.533 142.887 117.808 142.999 118.084C142.956 117.972 142.93 117.877 142.913 117.765C142.956 118.067 142.999 118.377 143.033 118.679C143.025 118.601 143.025 118.524 143.033 118.446C142.99 118.748 142.947 119.058 142.913 119.359C142.93 119.247 142.956 119.144 142.999 119.041C142.887 119.316 142.767 119.592 142.656 119.868C142.707 119.764 142.759 119.678 142.827 119.592C142.647 119.825 142.467 120.057 142.287 120.29C142.33 120.238 142.381 120.187 142.441 120.135C142.21 120.316 141.978 120.497 141.746 120.678C141.841 120.609 141.918 120.557 142.021 120.505C141.746 120.617 141.472 120.738 141.197 120.85C141.309 120.807 141.403 120.781 141.515 120.764C141.215 120.807 140.906 120.85 140.605 120.885C140.683 120.876 140.76 120.876 140.837 120.885C140.537 120.841 140.228 120.798 139.928 120.764C140.039 120.781 140.142 120.807 140.245 120.85C139.971 120.738 139.696 120.617 139.421 120.505C139.524 120.557 139.61 120.609 139.696 120.678C139.464 120.497 139.233 120.316 139.001 120.135C139.053 120.178 139.104 120.23 139.156 120.29C138.975 120.057 138.795 119.825 138.615 119.592C138.684 119.687 138.735 119.764 138.787 119.868C138.675 119.592 138.555 119.316 138.443 119.041C138.486 119.153 138.512 119.247 138.529 119.359C138.486 119.058 138.443 118.748 138.409 118.446C138.409 118.489 138.418 118.524 138.418 118.567C138.461 119.48 138.769 120.35 139.421 121.005C140.013 121.6 140.991 122.056 141.849 122.013C142.733 121.97 143.66 121.677 144.277 121.005C144.878 120.35 145.333 119.48 145.281 118.567C145.221 117.378 144.835 116.171 143.951 115.336C143.085 114.508 141.944 114 140.734 114C138.212 114 136.256 116.094 136.179 118.575C136.11 121.057 138.315 123.151 140.734 123.151C141.884 123.151 143.102 122.685 143.917 121.85C144.801 120.936 145.23 119.842 145.29 118.584C145.384 116.783 143.642 115.06 141.858 115.137C139.911 115.206 138.512 116.628 138.418 118.567Z" fill="url(#paint2_linear_3789_5010)"/>
<path d="M138.437 136.054C138.437 136.089 138.437 136.132 138.428 136.166C138.471 135.864 138.514 135.554 138.548 135.253C138.531 135.365 138.505 135.468 138.462 135.572C138.574 135.296 138.694 135.02 138.805 134.744C138.754 134.848 138.702 134.934 138.634 135.02C138.814 134.787 138.994 134.555 139.174 134.322C139.131 134.374 139.08 134.426 139.02 134.477C139.252 134.296 139.483 134.115 139.715 133.934C139.62 134.003 139.543 134.055 139.44 134.107C139.715 133.995 139.989 133.874 140.264 133.762C140.152 133.805 140.058 133.831 139.946 133.848C140.247 133.805 140.556 133.762 140.856 133.728C140.779 133.736 140.701 133.736 140.624 133.728C140.924 133.771 141.233 133.814 141.534 133.848C141.422 133.831 141.319 133.805 141.216 133.762C141.491 133.874 141.765 133.995 142.04 134.107C141.937 134.055 141.851 134.003 141.765 133.934C141.997 134.115 142.228 134.296 142.46 134.477C142.409 134.434 142.357 134.382 142.306 134.322C142.486 134.555 142.666 134.787 142.846 135.02C142.778 134.925 142.726 134.848 142.675 134.744C142.786 135.02 142.906 135.296 143.018 135.572C142.975 135.46 142.949 135.365 142.932 135.253C142.975 135.554 143.018 135.864 143.052 136.166C143.043 136.089 143.043 136.011 143.052 135.933C143.009 136.235 142.966 136.545 142.932 136.847C142.949 136.735 142.975 136.631 143.018 136.528C142.906 136.804 142.786 137.079 142.675 137.355C142.726 137.252 142.778 137.166 142.846 137.079C142.666 137.312 142.486 137.545 142.306 137.777C142.349 137.726 142.4 137.674 142.46 137.622C142.228 137.803 141.997 137.984 141.765 138.165C141.86 138.096 141.937 138.044 142.04 137.993C141.765 138.105 141.491 138.225 141.216 138.337C141.328 138.294 141.422 138.268 141.534 138.251C141.233 138.294 140.924 138.337 140.624 138.372C140.701 138.363 140.779 138.363 140.856 138.372C140.556 138.329 140.247 138.286 139.946 138.251C140.058 138.268 140.161 138.294 140.264 138.337C139.989 138.225 139.715 138.105 139.44 137.993C139.543 138.044 139.629 138.096 139.715 138.165C139.483 137.984 139.252 137.803 139.02 137.622C139.071 137.665 139.123 137.717 139.174 137.777C138.994 137.545 138.814 137.312 138.634 137.079C138.702 137.174 138.754 137.252 138.805 137.355C138.694 137.079 138.574 136.804 138.462 136.528C138.505 136.64 138.531 136.735 138.548 136.847C138.505 136.545 138.462 136.235 138.428 135.933C138.428 135.976 138.428 136.02 138.437 136.054C138.479 136.967 138.788 137.838 139.44 138.493C140.032 139.087 141.01 139.544 141.868 139.501C142.752 139.458 143.678 139.165 144.296 138.493C144.897 137.838 145.351 136.967 145.3 136.054C145.24 134.865 144.854 133.659 143.97 132.823C143.104 131.996 141.963 131.487 140.753 131.487C138.231 131.487 136.275 133.581 136.197 136.063C136.129 138.544 138.334 140.638 140.753 140.638C141.903 140.638 143.121 140.173 143.936 139.337C144.819 138.423 145.248 137.329 145.308 136.071C145.403 134.27 143.661 132.547 141.877 132.625C139.929 132.694 138.531 134.124 138.437 136.054Z" fill="url(#paint3_linear_3789_5010)"/>
<path d="M150.087 124.995C150.053 124.995 150.01 124.995 149.976 124.986C150.276 125.029 150.585 125.072 150.885 125.107C150.774 125.09 150.671 125.064 150.568 125.021C150.842 125.133 151.117 125.253 151.391 125.365C151.289 125.314 151.203 125.262 151.117 125.193C151.349 125.374 151.58 125.555 151.812 125.736C151.76 125.693 151.709 125.641 151.657 125.581C151.838 125.813 152.018 126.046 152.198 126.279C152.129 126.184 152.078 126.106 152.026 126.003C152.138 126.279 152.258 126.554 152.369 126.83C152.327 126.718 152.301 126.623 152.284 126.511C152.327 126.813 152.369 127.123 152.404 127.425C152.395 127.347 152.395 127.269 152.404 127.192C152.361 127.493 152.318 127.804 152.284 128.105C152.301 127.993 152.327 127.89 152.369 127.786C152.258 128.062 152.138 128.338 152.026 128.614C152.078 128.51 152.129 128.424 152.198 128.338C152.018 128.571 151.838 128.803 151.657 129.036C151.7 128.984 151.752 128.932 151.812 128.881C151.58 129.062 151.349 129.243 151.117 129.424C151.211 129.355 151.289 129.303 151.391 129.251C151.117 129.363 150.842 129.484 150.568 129.596C150.679 129.553 150.774 129.527 150.885 129.51C150.585 129.553 150.276 129.596 149.976 129.63C150.053 129.622 150.13 129.622 150.208 129.63C149.907 129.587 149.598 129.544 149.298 129.51C149.41 129.527 149.513 129.553 149.616 129.596C149.341 129.484 149.067 129.363 148.792 129.251C148.895 129.303 148.981 129.355 149.067 129.424C148.835 129.243 148.603 129.062 148.372 128.881C148.423 128.924 148.475 128.976 148.526 129.036C148.346 128.803 148.166 128.571 147.986 128.338C148.054 128.433 148.106 128.51 148.157 128.614C148.046 128.338 147.926 128.062 147.814 127.786C147.857 127.898 147.883 127.993 147.9 128.105C147.857 127.804 147.814 127.493 147.78 127.192C147.788 127.269 147.788 127.347 147.78 127.425C147.823 127.123 147.865 126.813 147.9 126.511C147.883 126.623 147.857 126.727 147.814 126.83C147.926 126.554 148.046 126.279 148.157 126.003C148.106 126.106 148.054 126.192 147.986 126.279C148.166 126.046 148.346 125.813 148.526 125.581C148.483 125.632 148.432 125.684 148.372 125.736C148.603 125.555 148.835 125.374 149.067 125.193C148.972 125.262 148.895 125.314 148.792 125.365C149.067 125.253 149.341 125.133 149.616 125.021C149.504 125.064 149.41 125.09 149.298 125.107C149.598 125.064 149.907 125.021 150.208 124.986C150.165 124.986 150.13 124.995 150.087 124.995C149.178 125.038 148.312 125.348 147.66 126.003C147.068 126.597 146.613 127.58 146.656 128.441C146.699 129.329 146.99 130.259 147.66 130.88C148.312 131.483 149.178 131.94 150.087 131.888C151.271 131.828 152.472 131.44 153.305 130.552C154.128 129.682 154.634 128.536 154.634 127.321C154.634 124.788 152.55 122.823 150.079 122.746C147.608 122.677 145.523 124.891 145.523 127.321C145.523 128.476 145.987 129.699 146.819 130.518C147.728 131.405 148.818 131.836 150.07 131.897C151.863 131.991 153.579 130.242 153.502 128.45C153.433 126.494 152.018 125.09 150.087 124.995Z" fill="url(#paint4_linear_3789_5010)"/>
<path d="M131.564 124.995C131.53 124.995 131.487 124.995 131.452 124.986C131.753 125.029 132.062 125.072 132.362 125.107C132.25 125.09 132.147 125.064 132.044 125.021C132.319 125.133 132.594 125.253 132.868 125.365C132.765 125.314 132.679 125.262 132.594 125.193C132.825 125.374 133.057 125.555 133.288 125.736C133.237 125.693 133.185 125.641 133.134 125.581C133.314 125.813 133.494 126.046 133.674 126.279C133.606 126.184 133.554 126.106 133.503 126.003C133.614 126.279 133.735 126.554 133.846 126.83C133.803 126.718 133.777 126.623 133.76 126.511C133.803 126.813 133.846 127.123 133.88 127.425C133.872 127.347 133.872 127.269 133.88 127.192C133.837 127.493 133.795 127.804 133.76 128.105C133.777 127.993 133.803 127.89 133.846 127.786C133.735 128.062 133.614 128.338 133.503 128.614C133.554 128.51 133.606 128.424 133.674 128.338C133.494 128.571 133.314 128.803 133.134 129.036C133.177 128.984 133.228 128.932 133.288 128.881C133.057 129.062 132.825 129.243 132.594 129.424C132.688 129.355 132.765 129.303 132.868 129.251C132.594 129.363 132.319 129.484 132.044 129.596C132.156 129.553 132.25 129.527 132.362 129.51C132.062 129.553 131.753 129.596 131.452 129.63C131.53 129.622 131.607 129.622 131.684 129.63C131.384 129.587 131.075 129.544 130.775 129.51C130.886 129.527 130.989 129.553 131.092 129.596C130.818 129.484 130.543 129.363 130.269 129.251C130.372 129.303 130.457 129.355 130.543 129.424C130.311 129.243 130.08 129.062 129.848 128.881C129.9 128.924 129.951 128.976 130.003 129.036C129.822 128.803 129.642 128.571 129.462 128.338C129.531 128.433 129.582 128.51 129.634 128.614C129.522 128.338 129.402 128.062 129.291 127.786C129.333 127.898 129.359 127.993 129.376 128.105C129.333 127.804 129.291 127.493 129.256 127.192C129.265 127.269 129.265 127.347 129.256 127.425C129.299 127.123 129.342 126.813 129.376 126.511C129.359 126.623 129.333 126.727 129.291 126.83C129.402 126.554 129.522 126.279 129.634 126.003C129.582 126.106 129.531 126.192 129.462 126.279C129.642 126.046 129.822 125.813 130.003 125.581C129.96 125.632 129.908 125.684 129.848 125.736C130.08 125.555 130.311 125.374 130.543 125.193C130.449 125.262 130.372 125.314 130.269 125.365C130.543 125.253 130.818 125.133 131.092 125.021C130.981 125.064 130.886 125.09 130.775 125.107C131.075 125.064 131.384 125.021 131.684 124.986C131.641 124.986 131.598 124.986 131.564 124.995C130.655 125.038 129.788 125.348 129.136 126.003C128.544 126.597 128.089 127.58 128.132 128.441C128.175 129.329 128.467 130.259 129.136 130.88C129.788 131.483 130.655 131.94 131.564 131.888C132.748 131.828 133.949 131.44 134.781 130.552C135.605 129.682 136.111 128.536 136.111 127.321C136.111 124.788 134.026 122.823 131.555 122.746C129.085 122.677 127 124.891 127 127.321C127 128.476 127.463 129.699 128.295 130.518C129.205 131.405 130.294 131.836 131.547 131.897C133.34 131.991 135.056 130.242 134.979 128.45C134.91 126.494 133.486 125.09 131.564 124.995Z" fill="url(#paint5_linear_3789_5010)"/>
<path d="M110.934 114L99.8167 127.112L93.5227 121.005L88 126.988L100.379 139L117 119.407L110.934 114Z" fill="url(#paint6_linear_3789_5010)"/>
<path fill-rule="evenodd" clip-rule="evenodd" d="M118 79C116.895 79 116 79.8954 116 81V94H70C68.8954 94 68 94.8954 68 96V159C68 160.105 68.8954 161 70 161H170C171.105 161 172 160.105 172 159V96C172 94.8954 171.105 94 170 94H125V81C125 79.8954 124.105 79 123 79H118ZM76 153V102H164V153H76Z" fill="url(#paint7_linear_3789_5010)"/>
<defs>
<linearGradient id="paint0_linear_3789_5010" x1="120" y1="0" x2="120" y2="240" gradientUnits="userSpaceOnUse">
<stop/>
<stop offset="1" stop-color="#0B0720"/>
</linearGradient>
<linearGradient id="paint1_linear_3789_5010" x1="0" y1="123.228" x2="240" y2="123.228" gradientUnits="userSpaceOnUse">
<stop stop-color="#2095D9"/>
<stop offset="1" stop-color="#5C35EE"/>
</linearGradient>
<linearGradient id="paint2_linear_3789_5010" x1="136.177" y1="118.698" x2="145.293" y2="118.698" gradientUnits="userSpaceOnUse">
<stop stop-color="#2095D9"/>
<stop offset="1" stop-color="#5C35EE"/>
</linearGradient>
<linearGradient id="paint3_linear_3789_5010" x1="136.196" y1="136.186" x2="145.312" y2="136.186" gradientUnits="userSpaceOnUse">
<stop stop-color="#2095D9"/>
<stop offset="1" stop-color="#5C35EE"/>
</linearGradient>
<linearGradient id="paint4_linear_3789_5010" x1="149.956" y1="122.744" x2="149.956" y2="131.9" gradientUnits="userSpaceOnUse">
<stop stop-color="#2095D9"/>
<stop offset="1" stop-color="#5C35EE"/>
</linearGradient>
<linearGradient id="paint5_linear_3789_5010" x1="131.433" y1="122.744" x2="131.433" y2="131.9" gradientUnits="userSpaceOnUse">
<stop stop-color="#2095D9"/>
<stop offset="1" stop-color="#5C35EE"/>
</linearGradient>
<linearGradient id="paint6_linear_3789_5010" x1="88" y1="126.836" x2="117" y2="126.836" gradientUnits="userSpaceOnUse">
<stop stop-color="#F5263C"/>
<stop offset="1" stop-color="#6A129F"/>
</linearGradient>
<linearGradient id="paint7_linear_3789_5010" x1="68" y1="121.103" x2="172" y2="121.103" gradientUnits="userSpaceOnUse">
<stop stop-color="#2095D9"/>
<stop offset="1" stop-color="#5C35EE"/>
</linearGradient>
</defs>
</svg>
