<svg width="240" height="240" viewBox="0 0 240 240" fill="none" xmlns="http://www.w3.org/2000/svg">
<circle cx="120" cy="120" r="120" fill="url(#paint0_linear_3789_5048)"/>
<circle cx="120" cy="120" r="117.5" stroke="url(#paint1_linear_3789_5048)" stroke-width="5"/>
<path fill-rule="evenodd" clip-rule="evenodd" d="M115.302 83.2151C115.302 83.2151 115.312 83.0098 115.322 82.8131C115.414 81.8424 115.844 80.9297 116.543 80.2342C117.339 79.4439 118.416 79.0007 119.542 79.0007H119.743C120.866 79.0007 121.945 79.4439 122.74 80.2342C123.535 81.0252 123.983 82.0973 123.983 83.2138C123.983 83.2196 123.982 83.2255 123.982 83.2316C123.982 83.2442 123.981 83.2574 123.983 83.2707C123.998 83.6511 124.161 84.01 124.438 84.28C124.743 84.5768 125.156 84.7408 125.586 84.7408H125.884C126.315 84.7408 126.727 84.5767 127.032 84.28C127.323 83.9969 127.488 83.6139 127.488 83.2158V83.2138C127.488 82.0973 127.936 81.0252 128.73 80.2342C129.525 79.4439 130.604 79.0007 131.728 79.0007C132.036 79.0007 132.361 79.0007 132.681 79.0164C134.508 79.0261 136.227 79.8812 137.331 81.3297C138.444 82.7863 138.803 84.6762 138.306 86.4372C138.305 86.441 138.304 86.444 138.303 86.4472C138.303 86.449 138.302 86.4508 138.302 86.4529C137.374 89.6349 136.173 92.8174 134.626 96H104.248C102.443 92.6962 101.233 89.3941 100.462 86.0946C100.46 86.088 100.458 86.0808 100.457 86.0737C100.455 86.0663 100.454 86.0589 100.452 86.0521C100.091 84.3256 100.531 82.53 101.65 81.1611C102.771 79.7923 104.45 79 106.224 79H107.555C108.679 79 109.757 79.4432 110.553 80.2335C111.349 81.0246 111.795 82.0966 111.795 83.2131L111.791 83.33C111.793 83.2915 111.795 83.2536 111.795 83.2151C111.795 83.6132 111.96 83.9963 112.251 84.2793C112.555 84.5761 112.97 84.7402 113.401 84.7402H113.697C114.127 84.7402 114.542 84.5761 114.847 84.2793C115.135 83.9963 115.302 83.6132 115.302 83.2151ZM102.673 111C101.051 112.974 99.5728 114.948 98.2434 116.913H89.1306C86.2366 116.913 83.9005 119.231 83.9005 122.079V125.295C83.9005 126.031 84.0558 126.734 84.3387 127.368C81.5854 127.522 79.4087 129.777 79.4087 132.526V135.742C79.4087 138.399 81.4421 140.595 84.0657 140.878C83.9571 141.29 83.9005 141.724 83.9005 142.171V145.384C83.9005 146.118 84.0558 146.818 84.3347 147.45H84.2308C81.3361 147.45 79 149.769 79 152.618V155.834C79 158.683 81.3361 161 84.2308 161H99.7466C100.059 161 100.366 160.973 100.664 160.92C108.917 160.931 130.383 160.931 135.434 160.931C136.585 160.931 137.707 160.617 138.673 160.039C140.39 160.617 142.234 160.931 144.154 160.931C153.463 160.931 161 153.548 161 144.477C161 136.624 155.351 130.037 147.792 128.409C145.805 122.358 142.09 116.425 137.244 111H102.673ZM101.047 155.833C101.047 156.378 100.694 156.837 100.202 157.015C99.8069 157.014 99.4475 157.013 99.1283 157.013C98.6959 157.012 98.3373 157.012 98.0629 157.011C97.8603 157.011 97.6676 157.04 97.4833 157.094H84.2306C83.5169 157.094 82.9294 156.534 82.9294 155.833V152.618C82.9294 151.915 83.5169 151.355 84.2306 151.355H99.7465C100.46 151.355 101.047 151.915 101.047 152.618V155.833ZM144.652 131.935L144.154 131.928C137.035 131.928 131.237 137.539 131.237 144.476C131.237 151.412 137.035 157.026 144.154 157.026C151.272 157.026 157.07 151.412 157.07 144.476C157.07 137.703 151.541 132.191 144.652 131.935ZM105.945 145.383V142.17C105.945 141.467 105.358 140.907 104.645 140.907H89.1302C88.4171 140.907 87.8296 141.467 87.8296 142.17V145.383C87.8296 146.087 88.4171 146.647 89.1302 146.647H104.645C105.358 146.647 105.945 146.087 105.945 145.383ZM101.456 135.741V132.525C101.456 131.822 100.869 131.264 100.153 131.264H84.639C83.9259 131.264 83.3384 131.822 83.3384 132.525V135.741C83.3384 136.443 83.9259 137.002 84.639 137.002H100.153C100.869 137.002 101.456 136.443 101.456 135.741ZM105.945 125.294V122.078C105.945 121.375 105.358 120.817 104.645 120.817H89.1302C88.4171 120.817 87.8296 121.375 87.8296 122.078V125.294C87.8296 125.995 88.4171 126.555 89.1302 126.555H104.645C105.358 126.555 105.945 125.995 105.945 125.294ZM115.315 82.8777C115.312 82.932 115.309 82.9859 115.307 83.0412L115.315 82.8777ZM115.306 83.0755C115.306 83.064 115.306 83.0526 115.307 83.0412L115.304 83.101L115.306 83.0755ZM115.315 82.8742L115.321 82.812C115.338 82.4702 115.354 82.144 115.315 82.8742Z" fill="url(#paint2_linear_3789_5048)"/>
<rect x="106" y="100" width="28" height="7" rx="3.5" fill="url(#paint3_linear_3789_5048)"/>
<path d="M144.5 136C143.417 136 142.538 136.878 142.538 137.962V142.538H137.962C136.878 142.538 136 143.417 136 144.5C136 145.583 136.878 146.462 137.962 146.462H142.538V151.038C142.538 152.122 143.417 153 144.5 153C145.583 153 146.462 152.122 146.462 151.038V146.462H151.038C152.122 146.462 153 145.583 153 144.5C153 143.417 152.122 142.538 151.038 142.538H146.462V137.962C146.462 136.878 145.583 136 144.5 136Z" fill="url(#paint4_linear_3789_5048)"/>
<defs>
<linearGradient id="paint0_linear_3789_5048" x1="120" y1="0" x2="120" y2="240" gradientUnits="userSpaceOnUse">
<stop/>
<stop offset="1" stop-color="#0B0720"/>
</linearGradient>
<linearGradient id="paint1_linear_3789_5048" x1="0" y1="123.228" x2="240" y2="123.228" gradientUnits="userSpaceOnUse">
<stop stop-color="#2095D9"/>
<stop offset="1" stop-color="#5C35EE"/>
</linearGradient>
<linearGradient id="paint2_linear_3789_5048" x1="79" y1="121.103" x2="161" y2="121.103" gradientUnits="userSpaceOnUse">
<stop stop-color="#2095D9"/>
<stop offset="1" stop-color="#5C35EE"/>
</linearGradient>
<linearGradient id="paint3_linear_3789_5048" x1="106" y1="103.594" x2="134" y2="103.594" gradientUnits="userSpaceOnUse">
<stop stop-color="#F5263C"/>
<stop offset="1" stop-color="#6A129F"/>
</linearGradient>
<linearGradient id="paint4_linear_3789_5048" x1="136" y1="144.729" x2="153" y2="144.729" gradientUnits="userSpaceOnUse">
<stop stop-color="#F5263C"/>
<stop offset="1" stop-color="#6A129F"/>
</linearGradient>
</defs>
</svg>
