<svg width="240" height="240" viewBox="0 0 240 240" fill="none" xmlns="http://www.w3.org/2000/svg">
<circle cx="120" cy="120" r="120" fill="url(#paint0_linear_3789_5035)"/>
<circle cx="120" cy="120" r="117.5" stroke="url(#paint1_linear_3789_5035)" stroke-width="5"/>
<path d="M116.577 113.53C114.8 115.86 111.315 115.86 109.538 113.53L101.141 102.517C98.8963 99.5727 100.978 95.3105 104.661 95.3105L121.454 95.3105C125.137 95.3105 127.219 99.5727 124.974 102.517L116.577 113.53Z" fill="url(#paint2_linear_3789_5035)"/>
<path fill-rule="evenodd" clip-rule="evenodd" d="M138.871 95.487V85.8227H147.31V79H79.0304V85.8227H87.4562V95.5796C87.4536 100.33 88.5562 105.015 90.6742 109.258C92.7921 113.501 95.8682 117.184 99.6537 120.011C95.8682 122.834 92.7923 126.513 90.6735 130.753C88.5556 134.992 87.4529 139.675 87.4562 144.423V154.139H79V160.961H142.992C143.412 160.987 143.835 161 144.261 161C144.687 161 145.111 160.987 145.531 160.961H147.296V160.778C157.311 159.297 165 150.596 165 140.084C165 128.533 155.715 119.168 144.261 119.168C139.192 119.168 134.548 121.002 130.946 124.048C129.6 122.553 128.108 121.189 126.487 119.981C130.296 117.15 133.399 113.462 135.549 109.21C137.699 104.958 138.836 100.259 138.87 95.487H138.871ZM126.513 129.258C124.366 126.704 121.699 124.628 118.68 123.177L118.667 123.177C118.071 122.887 117.569 122.433 117.217 121.868C116.866 121.302 116.68 120.648 116.681 119.981C116.692 119.301 116.895 118.638 117.266 118.069C117.637 117.501 118.16 117.051 118.775 116.771C122.757 114.842 126.12 111.82 128.478 108.052C130.836 104.284 132.093 99.9226 132.105 95.4672V85.9801H94.2214V95.5798C94.2378 100.009 95.4819 104.345 97.8126 108.099C100.144 111.852 103.469 114.874 107.413 116.822C108.205 117.217 108.821 117.896 109.141 118.725C109.461 119.555 109.461 120.475 109.141 121.305C108.821 122.135 108.205 122.814 107.413 123.208C103.468 125.154 100.141 128.174 97.8101 131.928C95.4793 135.681 94.2359 140.018 94.2214 144.447V153.692H94.5597L108.719 140.319C109.877 139.224 111.404 138.611 112.991 138.603C114.578 138.595 116.111 139.192 117.28 140.275L124.751 147.194C123.956 144.975 123.522 142.581 123.522 140.084C123.522 136.121 124.615 132.416 126.513 129.258ZM158.912 140.084C158.912 148.244 152.352 154.86 144.261 154.86C136.17 154.86 129.611 148.244 129.611 140.084C129.611 131.924 136.17 125.309 144.261 125.309C152.352 125.309 158.912 131.924 158.912 140.084Z" fill="url(#paint3_linear_3789_5035)"/>
<path d="M150.079 131.193L142.494 139.982L138.199 135.889L134.431 139.899L142.877 147.952L154.218 134.818L150.079 131.193Z" fill="url(#paint4_linear_3789_5035)"/>
<defs>
<linearGradient id="paint0_linear_3789_5035" x1="120" y1="0" x2="120" y2="240" gradientUnits="userSpaceOnUse">
<stop/>
<stop offset="1" stop-color="#0B0720"/>
</linearGradient>
<linearGradient id="paint1_linear_3789_5035" x1="0" y1="123.228" x2="240" y2="123.228" gradientUnits="userSpaceOnUse">
<stop stop-color="#2095D9"/>
<stop offset="1" stop-color="#5C35EE"/>
</linearGradient>
<linearGradient id="paint2_linear_3789_5035" x1="125.902" y1="105.025" x2="100.213" y2="105.025" gradientUnits="userSpaceOnUse">
<stop stop-color="#F5263C"/>
<stop offset="1" stop-color="#6A129F"/>
</linearGradient>
<linearGradient id="paint3_linear_3789_5035" x1="79" y1="121.103" x2="165" y2="121.103" gradientUnits="userSpaceOnUse">
<stop stop-color="#2095D9"/>
<stop offset="1" stop-color="#5C35EE"/>
</linearGradient>
<linearGradient id="paint4_linear_3789_5035" x1="134.431" y1="139.798" x2="154.218" y2="139.798" gradientUnits="userSpaceOnUse">
<stop stop-color="#F5263C"/>
<stop offset="1" stop-color="#6A129F"/>
</linearGradient>
</defs>
</svg>
