<svg width="35" height="34" viewBox="0 0 35 34" fill="none" xmlns="http://www.w3.org/2000/svg">
<path fill-rule="evenodd" clip-rule="evenodd" d="M17.2417 34C26.6305 34 34.2417 26.3888 34.2417 17C34.2417 7.61116 26.6305 0 17.2417 0C7.85286 0 0.241699 7.61116 0.241699 17C0.241699 26.3888 7.85286 34 17.2417 34ZM18.9401 8.2869C18.4113 8.28761 17.8816 8.28833 17.3502 8.29652L17.3507 8.29705C17.3368 10.1168 17.3376 11.937 17.3385 13.7594C17.339 14.7781 17.3395 15.7974 17.3374 16.8177C17.3351 17.1599 17.3355 17.5016 17.3358 17.8431C17.3368 18.7623 17.3377 19.6801 17.287 20.6008C17.2796 20.8563 17.151 21.0809 17.0261 21.299C17.0161 21.3164 17.0062 21.3337 16.9964 21.351C16.5841 22.0208 15.826 22.4782 15.0349 22.4867C13.8416 22.5921 12.7238 21.6184 12.5554 20.4599C12.5541 20.4032 12.5521 20.346 12.5501 20.2887C12.5386 19.9619 12.5268 19.6287 12.6516 19.3242C12.829 18.8223 13.1696 18.3786 13.618 18.089C14.2321 17.6638 15.0535 17.6003 15.7564 17.8269C15.7564 17.3803 15.764 16.934 15.7717 16.4876C15.7819 15.8888 15.7922 15.29 15.784 14.6909C14.2454 14.4039 12.6022 14.8889 11.4291 15.9071C10.3942 16.7812 9.72741 18.0662 9.5999 19.4095C9.58556 19.7541 9.5914 20.1068 9.6084 20.4599C9.75504 22.1119 10.7618 23.651 12.1925 24.4918C13.0559 24.999 14.068 25.2744 15.0811 25.2166C16.7328 25.1891 18.341 24.3065 19.2676 22.9526C19.8435 22.1394 20.1702 21.1572 20.2255 20.1703C20.2398 18.8146 20.2389 17.4563 20.2381 16.0964C20.2376 15.3957 20.2371 14.6945 20.2388 13.993C20.6069 14.2329 20.9831 14.4674 21.3868 14.6496C22.3139 15.088 23.3404 15.2998 24.362 15.3331V12.4904C23.2718 12.3692 22.1514 12.0107 21.3592 11.2276C20.5655 10.4636 20.1755 9.36286 20.1197 8.28223C19.7268 8.28584 19.3337 8.28637 18.9401 8.2869Z" fill="white"/>
</svg>
