<svg width="35" height="35" viewBox="0 0 35 35" fill="none" xmlns="http://www.w3.org/2000/svg">
<path d="M17.2417 0.639648C7.85303 0.639648 0.241699 8.25098 0.241699 17.6396C0.241699 27.0283 7.85303 34.6396 17.2417 34.6396C26.6303 34.6396 34.2417 27.0283 34.2417 17.6396C34.2417 8.25098 26.6303 0.639648 17.2417 0.639648ZM18.8057 22.7875C17.5493 22.7875 16.367 22.0936 15.9605 21.3054C15.9605 21.3054 15.2851 24.044 15.1414 24.5725C14.9003 25.4658 14.4351 26.3576 14.0039 27.0639C13.3889 27.8675 12.6795 27.271 12.5945 26.5384C12.5667 25.7224 12.596 24.7565 12.7985 23.8771C13.0226 22.9128 14.296 17.4001 14.296 17.4001C14.296 17.4001 13.9236 16.6413 13.9236 15.5193C13.9236 13.7575 14.9235 12.4423 16.1691 12.4423C17.2278 12.4423 17.7393 13.2553 17.7393 14.2273C17.7393 15.3138 17.0609 16.9396 16.7116 18.4449C16.4195 19.706 17.3313 20.7337 18.5491 20.7337C20.7545 20.7337 22.2413 17.8406 22.2413 14.4143C22.2413 11.8087 20.5226 9.85987 17.3963 9.85987C13.8649 9.85987 11.6641 12.5489 11.6641 15.5518C11.6641 16.5872 11.9624 17.3182 12.4323 17.8823C12.6471 18.142 12.678 18.247 12.5991 18.5454C12.5435 18.7648 12.4153 19.2903 12.3627 19.4989C12.2854 19.8003 12.0459 19.9069 11.78 19.7956C10.1527 19.1171 9.39542 17.2981 9.39542 15.2551C9.39542 11.8783 12.185 7.82915 17.7161 7.82915C22.1609 7.82915 25.0864 11.1133 25.0864 14.6384C25.0879 19.3041 22.5488 22.7875 18.8057 22.7875Z" fill="white"/>
</svg>
