<svg width="158" height="102" viewBox="0 0 158 102" fill="none" xmlns="http://www.w3.org/2000/svg">
<g opacity="0.6">
<path d="M0.321777 60.826C0.386361 60.2007 0.450945 59.5754 0.506303 58.9411C1.0322 52.7788 3.11733 47.124 6.41111 41.886C9.34506 37.219 13.0263 33.1863 17.1874 29.5614C17.252 29.507 17.3258 29.4617 17.4549 29.3711C17.4549 30.6942 17.4642 31.9629 17.4457 33.2225C17.4457 33.3675 17.3165 33.5216 17.2058 33.6394C13.3216 37.9258 10.4522 42.8013 8.56083 48.2205C6.94623 52.8422 6.162 57.5818 6.60486 62.4663C7.31528 70.3323 10.8305 76.7121 17.2612 81.506C21.5975 84.7412 26.5059 86.8074 31.6911 88.3027C36.1104 89.5804 40.6313 90.3598 45.2075 90.8673C51.712 91.6013 58.235 91.7463 64.7764 91.4835C68.2916 91.3385 71.8068 91.1391 75.3128 90.8219C83.478 90.0879 91.4957 88.5564 99.4118 86.4993C107.448 84.415 115.318 81.8322 122.874 78.4067C125.476 77.2196 127.986 75.833 130.541 74.5372C130.633 74.4918 130.726 74.4375 130.873 74.365C130.892 74.51 130.91 74.6187 130.91 74.7275C130.91 78.3342 130.901 81.95 130.919 85.5568C130.919 85.9102 130.753 86.028 130.495 86.164C126.519 88.2573 122.413 90.0517 118.196 91.6194C110.363 94.5375 102.318 96.7396 94.1344 98.4251C88.8293 99.5217 83.4873 100.41 78.0899 100.935C75.2021 101.216 72.305 101.425 69.408 101.597C67.2767 101.724 65.1362 101.742 63.005 101.814C62.8758 101.814 62.7374 101.869 62.6082 101.896C61.7779 101.896 60.9475 101.896 60.1172 101.896C59.9419 101.869 59.7573 101.823 59.582 101.814C58.3273 101.778 57.0633 101.796 55.8085 101.715C52.6808 101.497 49.5531 101.307 46.4438 100.972C40.4283 100.328 34.5327 99.0867 28.8032 97.1474C22.7969 95.1174 17.1966 92.3535 12.3159 88.2936C7.85963 84.569 4.48282 80.1195 2.49917 74.6912C1.40125 71.7007 0.810769 68.5923 0.515529 65.4296C0.450945 64.7409 0.386361 64.0522 0.321777 63.3634C0.321777 62.5207 0.321777 61.6688 0.321777 60.826Z" fill="white"/>
<path d="M104.579 0.0181244C104.883 0.0453111 105.178 0.0906221 105.483 0.108747C107.771 0.24468 110.059 0.299053 112.338 0.507484C121.038 1.30496 129.49 3.07209 137.443 6.76947C141.724 8.76316 145.645 11.2825 148.994 14.6083C153.626 19.2209 156.421 24.7308 157.261 31.174C158.488 40.5534 155.923 48.9088 150.055 56.3126C145.968 61.478 140.847 65.3748 134.647 67.8488C134.509 67.9031 134.361 67.9575 134.214 68.0028C134.177 68.0119 134.121 68.0028 134.038 68.0028C134.038 67.8397 134.038 67.6947 134.038 67.5497C134.038 65.0848 134.047 62.6289 134.029 60.164C134.029 59.8106 134.149 59.6293 134.453 59.4481C139.712 56.2491 143.938 52.0805 146.77 46.6341C148.856 42.6286 149.917 38.3785 149.621 33.8745C149.225 28.0294 146.983 22.9365 142.923 18.6319C139.611 15.1158 135.579 12.6146 131.141 10.6934C126.713 8.78128 122.09 7.53976 117.339 6.69697C113.261 5.98106 109.155 5.57326 105.022 5.41014C99.532 5.20171 94.0516 5.35577 88.5804 5.86325C77.6473 6.86916 67.0002 9.0894 56.5745 12.3427C49.6456 14.5086 42.9196 17.1638 36.4059 20.3265C35.8708 20.5893 35.3356 20.8431 34.7913 21.1059C34.7821 21.115 34.7636 21.1059 34.6621 21.1059C34.6621 20.5622 34.7175 20.0094 34.6529 19.4656C34.5329 18.5866 34.8835 18.1154 35.6678 17.6622C44.4327 12.6146 53.7144 8.72691 63.4296 5.83606C69.0945 4.15049 74.8425 2.80022 80.692 1.86682C83.8289 1.36839 86.9843 0.960594 90.1489 0.661541C93.2766 0.371551 96.432 0.262804 99.5689 0.0815599C99.6981 0.0724977 99.8365 0.0271866 99.9656 0C101.506 0.0181244 103.038 0.0181244 104.579 0.0181244Z" fill="white"/>
<path d="M109.681 59.0683C111.315 60.6089 112.92 62.1223 114.691 63.7806C114.47 63.9166 114.258 63.9981 114.101 64.1431C110.899 67.2334 107.006 68.5927 102.568 68.6108C100.354 68.6199 98.1763 68.3752 96.0912 67.614C92.4376 66.2909 89.8174 63.8622 88.4611 60.2826C86.5513 55.2169 86.4313 50.0514 88.4611 45.0037C90.5001 39.9198 94.4766 37.1287 99.9754 36.449C102.568 36.1318 105.105 36.3493 107.513 37.4277C111.019 38.9955 113.16 41.7413 114.424 45.2303C115.19 47.3418 115.485 49.5349 115.522 51.7732C115.54 52.6613 115.512 53.5585 115.531 54.4466C115.54 54.7909 115.439 54.8816 115.088 54.8816C108.63 54.8725 102.171 54.8725 95.7129 54.8725C95.6207 54.8725 95.5284 54.8816 95.4361 54.8725C95.1224 54.8544 95.021 54.9631 95.0302 55.2984C95.1778 59.5305 98.204 62.1676 102.66 62.0498C105.299 61.9773 107.55 61.1345 109.414 59.2858C109.478 59.2224 109.552 59.177 109.681 59.0683ZM101.286 49.5892C103.205 49.5892 105.124 49.5802 107.052 49.5983C107.458 49.5983 107.642 49.4805 107.55 49.0817C107.338 48.1574 107.227 47.1968 106.886 46.3178C106.231 44.5959 105.022 43.3907 103.131 42.9557C98.9606 42.0042 95.2332 44.8225 95.0486 49.0455C95.0302 49.4986 95.187 49.6073 95.6114 49.5983C97.5028 49.5802 99.3942 49.5892 101.286 49.5892Z" fill="white"/>
<path d="M38.6196 52.4873C38.6196 47.4578 38.6288 42.4283 38.6104 37.3988C38.6104 36.9638 38.7211 36.8369 39.1732 36.8369C42.4485 36.855 45.7238 36.846 48.9991 36.846C51.2134 36.846 53.4277 36.855 55.642 36.8822C58.1424 36.9185 60.412 37.5619 62.2204 39.3743C63.632 40.788 64.3424 42.537 64.61 44.4673C64.693 45.0291 64.7115 45.6091 64.7115 46.18C64.7207 53.2666 64.7115 60.3442 64.7115 67.4308C64.7115 68.0924 64.7115 68.0924 64.0287 68.0924C61.8329 68.0924 59.6278 68.0924 57.4319 68.0924C56.7677 68.0924 56.7677 68.0924 56.7677 67.449C56.7677 60.5345 56.7677 53.6201 56.7584 46.6966C56.7584 46.2435 56.74 45.7903 56.6477 45.3463C56.4171 44.1863 55.6051 43.4704 54.3411 43.2439C54.0551 43.1895 53.7599 43.1533 53.4739 43.1533C51.3334 43.1442 49.2021 43.1623 47.0616 43.1442C46.5911 43.1442 46.6003 43.3889 46.6003 43.7242C46.6003 51.6264 46.6003 59.5195 46.6003 67.4218C46.6003 68.1014 46.6003 68.1014 45.8991 68.1014C43.6848 68.1014 41.4705 68.1014 39.2562 68.1014C38.6196 68.1014 38.6196 68.1014 38.6196 67.4943C38.6196 62.4829 38.6196 57.4896 38.6196 52.4873Z" fill="white"/>
<path d="M70.893 44.4059C70.893 39.2405 70.893 34.075 70.893 28.9096C70.893 28.3114 70.893 28.3024 71.4835 28.3024C73.7439 28.3024 76.0044 28.3205 78.2648 28.2933C78.7538 28.2843 78.8461 28.4474 78.8461 28.8824C78.8276 31.3473 78.8461 33.8032 78.8276 36.2681C78.8276 36.7121 78.9476 36.8752 79.4181 36.8662C81.0788 36.839 82.7396 36.8662 84.4003 36.8481C84.8339 36.839 84.9446 36.984 84.9354 37.3918C84.917 39.1408 84.917 40.8989 84.9354 42.6479C84.9354 43.0375 84.8339 43.1735 84.4187 43.1644C82.758 43.1463 81.0973 43.1644 79.4366 43.1463C78.9845 43.1372 78.8184 43.255 78.8184 43.7263C78.8368 48.6833 78.8276 53.6313 78.8276 58.5883C78.8276 58.7514 78.8368 58.9236 78.8553 59.0867C79.0306 60.6998 79.9255 61.5245 81.5771 61.5607C82.5274 61.5879 83.4869 61.5879 84.4372 61.5607C84.8339 61.5517 84.9262 61.6876 84.9262 62.0591C84.9077 63.8988 84.9077 65.7475 84.9262 67.5871C84.9262 67.9496 84.8339 68.0946 84.4372 68.0855C82.5458 68.0493 80.6452 68.1671 78.7723 67.9858C73.9377 67.5146 70.893 64.1072 70.8838 59.3224C70.8838 54.3381 70.893 49.372 70.893 44.4059Z" fill="white"/>
<path d="M120.337 23.8621C121.832 23.8621 123.244 23.8621 124.664 23.8621C125.753 23.8621 126.851 23.8711 127.94 23.853C128.281 23.844 128.429 23.9618 128.383 24.2971C128.373 24.3968 128.383 24.5055 128.383 24.6142C128.383 38.7603 128.383 52.9064 128.383 67.0616C128.383 67.2791 128.383 67.5057 128.383 67.7775C127.017 67.6507 125.772 67.3697 124.6 66.8169C121.703 65.4485 120.43 63.038 120.393 60.0112C120.319 54.5286 120.356 49.0459 120.356 43.5724C120.356 37.1835 120.356 30.7947 120.356 24.4149C120.337 24.2427 120.337 24.0796 120.337 23.8621Z" fill="white"/>
<path d="M31.3216 68.4004C26.6069 68.0379 23.8667 65.5277 23.3962 61.5675C23.3316 61.0419 23.3039 60.5163 23.3039 59.9907C23.2947 52.4872 23.3039 44.9838 23.3039 37.4803C23.3039 36.855 23.3039 36.846 23.959 36.846C26.2379 36.846 28.5075 36.855 30.7864 36.8369C31.2293 36.8369 31.3585 36.9638 31.3585 37.3988C31.3492 47.6027 31.3492 57.8067 31.3492 68.0107C31.34 68.1376 31.3308 68.2554 31.3216 68.4004Z" fill="white"/>
<path d="M27.3088 32.424C26.1278 32.424 24.9469 32.415 23.7567 32.4331C23.3876 32.4422 23.2861 32.3153 23.2861 31.9709C23.2954 29.7869 23.2954 27.5938 23.2861 25.4097C23.2861 25.0654 23.3784 24.9385 23.7474 24.9385C26.1094 24.9566 28.4805 24.9475 30.8424 24.9385C31.2115 24.9385 31.3129 25.0563 31.3129 25.4097C31.3037 27.5938 31.3037 29.7869 31.3129 31.9709C31.3129 32.3153 31.2207 32.4421 30.8424 32.4421C29.6799 32.4059 28.4989 32.424 27.3088 32.424Z" fill="white"/>
<path d="M137.193 30.1051C135.394 30.1051 134.02 28.7368 134.02 26.9697C134.02 25.2207 135.431 23.8523 137.221 23.8614C139.011 23.8704 140.404 25.2479 140.386 27.0059C140.386 28.773 139.002 30.1142 137.193 30.1051ZM137.193 29.6611C138.688 29.6702 139.934 28.4649 139.952 27.0059C139.97 25.5379 138.706 24.2782 137.212 24.2782C135.745 24.2782 134.481 25.5107 134.481 26.9697C134.472 28.4377 135.699 29.6611 137.193 29.6611Z" fill="white"/>
<path d="M137.894 27.2948C138.18 27.7932 138.457 28.2554 138.743 28.7629C138.282 28.8988 137.959 28.8988 137.747 28.4548C137.608 28.1557 137.433 27.8657 137.221 27.6029C137.119 27.476 136.907 27.4307 136.741 27.3492C136.686 27.4851 136.593 27.621 136.575 27.766C136.547 27.9926 136.556 28.2191 136.566 28.4457C136.575 28.6904 136.529 28.8445 136.224 28.8535C135.901 28.8626 135.837 28.7085 135.846 28.4366C135.855 27.4579 135.855 26.4792 135.846 25.5005C135.846 25.1742 135.966 25.0292 136.307 25.0473C136.704 25.0564 137.11 25.0292 137.507 25.0564C138.125 25.1017 138.439 25.3373 138.568 25.8267C138.715 26.3886 138.559 26.8236 138.079 27.1589C138.014 27.177 137.977 27.2223 137.894 27.2948ZM136.529 26.1167C136.529 26.7873 136.556 26.8236 137.036 26.8145C137.59 26.8054 137.885 26.6061 137.894 26.2073C137.904 25.7814 137.618 25.6092 137.018 25.582C136.51 25.5639 136.51 25.8539 136.529 26.1167Z" fill="white"/>
</g>
</svg>
