<svg width="22" height="25" viewBox="0 0 22 25" fill="none" xmlns="http://www.w3.org/2000/svg">
<path d="M1.55438 8.09793C1.12167 8.09793 0.754532 8.24815 0.452737 8.54857C0.150943 8.849 0 9.20951 0 9.63027V16.0906C0 16.5219 0.150897 16.887 0.452737 17.1875C0.754532 17.4879 1.12167 17.6382 1.55438 17.6382C1.98678 17.6382 2.35169 17.488 2.64881 17.1875C2.94533 16.8871 3.09401 16.5219 3.09401 16.0906V9.63027C3.09401 9.20946 2.94311 8.849 2.64127 8.54857C2.33943 8.24815 1.97706 8.09793 1.55438 8.09793Z" fill="white"/>
<path d="M14.0512 2.29849L15.1228 0.330659C15.1931 0.20038 15.1681 0.100479 15.0475 0.0302316C14.9165 -0.0303421 14.816 0.000351587 14.7457 0.120143L13.6591 2.1037C12.703 1.6829 11.6918 1.47211 10.6254 1.47211C9.55881 1.47211 8.54749 1.68294 7.59174 2.1037L6.50513 0.120143C6.43451 0.000351587 6.33393 -0.0300709 6.20333 0.0302316C6.08245 0.100795 6.05743 0.20038 6.12804 0.330659L7.19967 2.29849C6.11306 2.85012 5.24763 3.61836 4.60372 4.6049C3.95981 5.59198 3.63772 6.67064 3.63772 7.84279H17.5979C17.5979 6.67091 17.2758 5.59221 16.6319 4.6049C15.9879 3.61836 15.1275 2.85012 14.0512 2.29849ZM7.85576 5.16073C7.73987 5.27636 7.60146 5.33391 7.44057 5.33391C7.27937 5.33391 7.14377 5.27636 7.03315 5.16073C6.92253 5.04564 6.86723 4.9084 6.86723 4.7477C6.86723 4.58754 6.92253 4.45003 7.03315 4.33467C7.14377 4.21958 7.27968 4.16203 7.44057 4.16203C7.60146 4.16203 7.73987 4.21958 7.85576 4.33467C7.97137 4.4503 8.02945 4.58754 8.02945 4.7477C8.02913 4.90813 7.9711 5.04564 7.85576 5.16073ZM14.2171 5.16073C14.1062 5.27636 13.9703 5.33391 13.8097 5.33391C13.6484 5.33391 13.5101 5.27636 13.3944 5.16073C13.2786 5.04564 13.2208 4.9084 13.2208 4.7477C13.2208 4.58754 13.2786 4.45003 13.3944 4.33467C13.5101 4.21958 13.6484 4.16203 13.8097 4.16203C13.9706 4.16203 14.1062 4.21958 14.2171 4.33467C14.3278 4.4503 14.383 4.58754 14.383 4.7477C14.383 4.90813 14.3277 5.04564 14.2171 5.16073Z" fill="white"/>
<path d="M3.69783 18.3891C3.69783 18.8503 3.85872 19.2407 4.18054 19.561C4.50263 19.8814 4.89479 20.0415 5.35775 20.0415H6.47465L6.48995 23.4524C6.48995 23.8831 6.64085 24.2488 6.94264 24.5493C7.24444 24.8498 7.60685 25 8.02926 25C8.4617 25 8.82906 24.8498 9.1309 24.5493C9.43274 24.2488 9.58364 23.8831 9.58364 23.4524V20.0419H11.6663V23.4524C11.6663 23.8831 11.8172 24.2488 12.119 24.5493C12.4209 24.8498 12.7879 25 13.2207 25C13.6531 25 14.0205 24.8498 14.3223 24.5493C14.6241 24.2488 14.775 23.8831 14.775 23.4524V20.0419H15.907C16.3597 20.0419 16.7468 19.8817 17.0692 19.5613C17.391 19.2409 17.5519 18.8506 17.5519 18.3894V8.38297H3.69783V18.3891Z" fill="white"/>
<path d="M19.6959 8.09793C19.2732 8.09793 18.9111 8.24593 18.6092 8.54112C18.3074 8.83684 18.1565 9.2001 18.1565 9.63027V16.0906C18.1565 16.5219 18.3074 16.887 18.6092 17.1875C18.9111 17.488 19.2734 17.6382 19.6959 17.6382C20.1283 17.6382 20.4957 17.488 20.7975 17.1875C21.0994 16.887 21.2502 16.5219 21.2502 16.0906V9.63027C21.2502 9.20006 21.0994 8.83684 20.7975 8.54112C20.4957 8.24593 20.1283 8.09793 19.6959 8.09793Z" fill="white"/>
</svg>
