<svg width="175" height="102" viewBox="0 0 175 102" fill="none" xmlns="http://www.w3.org/2000/svg">
<g opacity="0.6">
<path d="M81.5763 34C81.5628 35.8343 81.5358 37.6686 81.5222 39.5029C81.5087 40.5662 81.5222 41.6163 81.5222 42.7195C60.2144 42.7195 38.9741 42.7195 17.6797 42.7195C17.7472 42.56 17.7878 42.467 17.8418 42.3739C19.2065 40.2605 20.5712 38.1471 21.9494 36.047C22.8276 34.7178 24.0437 34.093 25.6921 34.1063C30.6644 34.1462 35.6367 34.1329 40.609 34.1063C41.2981 34.1063 41.4872 34.2924 41.4737 34.957C41.4332 37.2299 41.4602 39.5162 41.4602 41.7891C41.5142 41.8024 41.5683 41.8157 41.6223 41.8423C41.7034 41.6163 41.798 41.4036 41.8791 41.1777C43.0546 37.6952 45.3786 35.3691 48.9997 34.3722C49.5807 34.2127 50.1752 34.1329 50.7697 34C61.0386 34 71.3074 34 81.5763 34Z" fill="white"/>
<path d="M164.268 34C164.268 36.685 164.254 39.3566 164.295 42.0416C164.308 42.6264 164.133 42.7992 163.538 42.7859C158.998 42.7593 154.445 42.7593 149.905 42.7593C141.014 42.7593 132.124 42.7593 123.233 42.7593C122.949 42.7593 122.652 42.7593 122.301 42.7593C122.301 42.4403 122.247 42.1745 122.314 41.9352C123.382 37.7749 126.53 34.864 130.462 34.1861C130.786 34.1329 131.11 34.0665 131.448 34C142.379 34 153.323 34 164.268 34Z" fill="white"/>
<path d="M83.2117 58.0848C83.1306 58.5633 83.0631 58.8956 83.009 59.2412C82.3064 63.2553 79.0366 66.4586 74.9155 67.1365C74.6723 67.1764 74.4291 67.1764 74.1724 67.1764C60.5121 67.1764 46.8383 67.1764 33.1781 67.1897C32.516 67.1897 32.2998 67.0435 32.2998 66.3523C32.3268 59.4672 32.3133 52.5821 32.3133 45.6837C32.3133 45.4444 32.3403 45.2052 32.3539 44.8862C33.5564 44.9526 34.6914 45.0058 35.8399 45.0855C37.3667 45.1919 38.8935 45.3514 40.4203 45.4178C40.9743 45.4444 41.0959 45.6305 41.0959 46.1223C41.0824 49.9503 41.0824 53.7916 41.0959 57.6196C41.0959 57.9253 41.1229 58.2311 41.1499 58.6032C41.4202 58.6032 41.6499 58.6032 41.866 58.6032C52.1619 58.6032 62.4443 58.6032 72.7402 58.6032C74.267 58.6032 75.0912 57.7393 74.8885 56.3968C74.7669 55.5727 74.2264 55.0543 73.2806 54.9746C71.1998 54.7752 69.119 54.6157 67.0247 54.4429C63.4441 54.1505 59.85 53.8448 56.2695 53.5524C54.4049 53.4062 52.5538 53.2068 50.6892 53.1137C46.7438 52.9277 43.001 49.8706 42.1903 46.0824C42.1633 45.9362 42.1633 45.79 42.1498 45.564C43.0821 45.6305 43.9739 45.6837 44.8656 45.7501C48.0679 46.0027 51.2702 46.2552 54.4859 46.5077C58.1881 46.8002 61.8768 47.0926 65.579 47.385C68.4705 47.611 71.362 47.9034 74.2535 48.0629C77.1585 48.2224 79.4149 49.525 81.1039 51.7713C81.9551 52.9144 82.5901 54.217 83.3063 55.4265C83.3063 55.3069 83.3063 55.0942 83.3063 54.8682C83.3063 51.3725 83.3198 47.8635 83.2928 44.3678C83.2928 43.7431 83.4279 43.5038 84.117 43.557C86.7788 43.7697 89.4541 43.9292 92.2375 44.1285C92.2375 44.3944 92.2375 44.6602 92.2375 44.9127C92.2375 48.4351 92.2375 51.9574 92.2375 55.4797C92.2375 57.5266 93.3589 58.6564 95.4397 58.6697C100.196 58.683 104.938 58.683 109.695 58.6697C112.221 58.6697 113.248 57.6329 113.248 55.1474C113.248 52.2232 113.248 49.299 113.248 46.3748C113.248 46.1356 113.248 45.8963 113.248 45.6039C113.856 45.6039 114.424 45.5773 114.978 45.6039C117.112 45.7235 119.247 45.883 121.382 45.9628C121.977 45.9894 122.125 46.1622 122.125 46.747C122.098 50.6946 122.179 54.629 122.098 58.5766C122.031 62.0724 120.288 64.9965 116.059 66.5251C114.802 66.977 113.518 67.203 112.167 67.203C105.844 67.1764 99.5202 67.1897 93.1833 67.1897C88.3461 67.1897 84.6304 64.3585 83.4684 59.7463C83.3198 59.2545 83.3063 58.7494 83.2117 58.0848Z" fill="white"/>
<path d="M122.855 46.0947C124.125 46.1612 125.341 46.2011 126.544 46.2675C130.205 46.4802 133.867 46.6929 137.529 46.9188C142.947 47.2511 148.351 47.5967 153.756 47.9423C154.634 47.9955 155.526 47.9955 156.377 48.1683C160.39 48.9924 162.998 51.5178 163.93 55.2927C165.241 60.636 161.782 66.2585 156.013 67.0693C155.418 67.149 154.81 67.2022 154.202 67.2022C143.839 67.2155 133.489 67.2022 123.125 67.2022C122.855 67.2022 122.598 67.2022 122.274 67.2022C122.26 66.8965 122.247 66.6572 122.247 66.418C122.247 64.0653 122.288 61.726 122.233 59.3733C122.22 58.6688 122.45 58.5359 123.112 58.5359C133.11 58.5492 143.109 58.5492 153.108 58.5359C153.634 58.5359 154.188 58.4827 154.702 58.3498C155.58 58.1239 156.067 57.4194 155.999 56.582C155.931 55.6649 155.377 55.0534 154.432 54.9604C152.324 54.761 150.216 54.6015 148.108 54.4154C145.041 54.1629 141.974 53.9103 138.893 53.6578C136.407 53.4584 133.921 53.2856 131.421 53.073C127.462 52.7672 123.72 49.9095 122.855 46.0947Z" fill="white"/>
<path d="M1.56055 67.1247C3.16843 64.679 4.70876 62.3397 6.24908 60.0003C9.7486 54.6703 13.2616 49.3403 16.7611 44.0104C16.9908 43.6515 17.2205 43.4122 17.7205 43.4654C20.7741 43.7977 23.8412 44.1167 26.8949 44.4357C26.9354 44.4357 26.9624 44.4889 27.0435 44.542C26.9354 44.7148 26.8273 44.9009 26.7192 45.087C21.9766 52.2645 17.234 59.4421 12.505 66.6196C12.2483 67.0184 11.9645 67.1779 11.4781 67.1779C8.42446 67.1513 5.35732 67.1646 2.29018 67.1646C2.0875 67.1646 1.88483 67.1513 1.56055 67.1247Z" fill="white"/>
<path d="M92.1835 34.1885C92.1835 37.0596 92.1835 39.8642 92.1835 42.722C91.9673 42.7353 91.7646 42.7751 91.5755 42.7751C89.0083 42.7751 86.441 42.7618 83.8873 42.7884C83.3604 42.7884 83.1982 42.6422 83.1982 42.1238C83.2253 39.6648 83.2118 37.2058 83.2118 34.7601C83.2118 34.3879 83.2253 34.1221 83.7252 34.1221C86.4275 34.1354 89.1299 34.1354 91.8187 34.1354C91.9268 34.1221 92.0349 34.1619 92.1835 34.1885Z" fill="white"/>
<path d="M113.126 34.1631C116.14 34.1631 119.072 34.1631 122.058 34.1631C122.058 37.0341 122.058 39.8519 122.058 42.7229C119.085 42.7229 116.126 42.7229 113.126 42.7229C113.126 39.8652 113.126 37.0474 113.126 34.1631Z" fill="white"/>
<path d="M170.699 34.5059C171.334 34.5059 171.969 34.6654 172.577 34.9977C173.185 35.3167 173.658 35.7819 174.009 36.38C174.347 36.9781 174.523 37.6161 174.523 38.2674C174.523 38.9187 174.361 39.5434 174.023 40.1283C173.685 40.7131 173.212 41.1916 172.618 41.5239C172.023 41.8562 171.375 42.0157 170.712 42.0157C170.05 42.0157 169.415 41.8562 168.807 41.5239C168.199 41.1916 167.726 40.7264 167.389 40.1283C167.051 39.5301 166.889 38.9054 166.889 38.2674C166.889 37.6161 167.064 36.9914 167.402 36.38C167.74 35.7819 168.226 35.3167 168.834 34.9977C169.429 34.6654 170.064 34.5059 170.699 34.5059ZM170.699 35.1306C170.159 35.1306 169.645 35.2635 169.132 35.5426C168.618 35.8084 168.226 36.1939 167.943 36.699C167.659 37.2041 167.51 37.7225 167.51 38.2674C167.51 38.8124 167.645 39.3307 167.929 39.8225C168.213 40.3143 168.605 40.6998 169.105 40.9789C169.605 41.258 170.145 41.391 170.685 41.391C171.239 41.391 171.766 41.258 172.266 40.9789C172.766 40.6998 173.172 40.3143 173.442 39.8225C173.726 39.3307 173.861 38.8124 173.861 38.2674C173.861 37.7225 173.712 37.2041 173.428 36.699C173.145 36.1939 172.739 35.8084 172.239 35.5426C171.753 35.2635 171.226 35.1306 170.699 35.1306ZM169.024 40.3409V36.3002H170.429C170.915 36.3002 171.266 36.3401 171.483 36.4066C171.699 36.4863 171.874 36.6059 171.996 36.792C172.118 36.9781 172.185 37.1775 172.185 37.3902C172.185 37.6826 172.077 37.9484 171.861 38.1611C171.645 38.3737 171.361 38.5067 171.01 38.5332C171.158 38.5864 171.266 38.6662 171.361 38.7459C171.523 38.9054 171.726 39.1712 171.969 39.5434L172.469 40.3409H171.658L171.293 39.7029C171.01 39.1978 170.78 38.8921 170.604 38.7592C170.483 38.6662 170.307 38.6263 170.077 38.6263H169.686V40.3409H169.024ZM169.686 38.068H170.496C170.875 38.068 171.145 38.0149 171.28 37.8952C171.415 37.7889 171.496 37.6294 171.496 37.4433C171.496 37.3237 171.469 37.2174 171.402 37.1243C171.334 37.0313 171.239 36.9648 171.118 36.9117C170.996 36.8718 170.78 36.8452 170.456 36.8452H169.699V38.068H169.686Z" fill="white"/>
</g>
</svg>
