<svg width="35" height="35" viewBox="0 0 35 35" fill="none" xmlns="http://www.w3.org/2000/svg">
<path d="M17.2412 21.0429C19.1167 21.0429 20.6458 19.5166 20.6458 17.6396C20.6458 16.8987 20.4034 16.2146 20.0021 15.6558C19.3838 14.7985 18.3786 14.2363 17.2432 14.2363C16.1072 14.2363 15.1026 14.7978 14.4829 15.6552C14.0803 16.2139 13.8399 16.898 13.8392 17.6389C13.8372 19.5159 15.3649 21.0429 17.2412 21.0429Z" fill="white"/>
<path d="M24.6728 13.4763V10.199L21.3949 10.2093L21.4058 13.4873L24.6728 13.4763Z" fill="white"/>
<path d="M17.2417 0.639648C7.86794 0.639648 0.241699 8.26589 0.241699 17.6396C0.241699 27.0127 7.86794 34.6396 17.2417 34.6396C26.6148 34.6396 34.2417 27.0127 34.2417 17.6396C34.2417 8.26589 26.6161 0.639648 17.2417 0.639648ZM26.9099 23.5718C26.9099 25.6336 25.2336 27.3092 23.1731 27.3092H11.3103C9.24911 27.3092 7.57349 25.6336 7.57349 23.5718V11.7089C7.57349 9.64775 9.24911 7.97212 11.3103 7.97212H23.1725C25.2336 7.97212 26.9099 9.64775 26.9099 11.7089V23.5718Z" fill="white"/>
<path d="M22.5302 17.6392C22.5302 20.5542 20.1581 22.9276 17.2417 22.9276C14.3253 22.9276 11.9539 20.5542 11.9539 17.6392C11.9539 16.938 12.0936 16.2676 12.3429 15.6554H9.4566V23.5713C9.4566 24.5943 10.2872 25.4229 11.3096 25.4229H23.1718C24.1928 25.4229 25.0248 24.5943 25.0248 23.5713V15.6554H22.1371C22.3884 16.2676 22.5302 16.938 22.5302 17.6392Z" fill="white"/>
</svg>
