<svg width="217" height="102" viewBox="0 0 217 102" fill="none" xmlns="http://www.w3.org/2000/svg">
<path d="M13.2585 88.0884H10.6593V87.0394H13.2585C13.7618 87.0394 14.1694 86.9592 14.4812 86.7989C14.793 86.6385 15.0202 86.4158 15.1627 86.1307C15.3097 85.8456 15.3832 85.5204 15.3832 85.1552C15.3832 84.8211 15.3097 84.5071 15.1627 84.2131C15.0202 83.9191 14.793 83.683 14.4812 83.5048C14.1694 83.3222 13.7618 83.2309 13.2585 83.2309H10.96V91.9037H9.67041V82.1752H13.2585C13.9934 82.1752 14.6148 82.3021 15.1227 82.556C15.6305 82.8099 16.0158 83.1618 16.2786 83.6117C16.5414 84.0572 16.6728 84.5672 16.6728 85.1418C16.6728 85.7654 16.5414 86.2977 16.2786 86.7387C16.0158 87.1797 15.6305 87.516 15.1227 87.7477C14.6148 87.9748 13.9934 88.0884 13.2585 88.0884Z" fill="white"/>
<path d="M17.6951 88.3691V88.2154C17.6951 87.6942 17.7708 87.2109 17.9223 86.7655C18.0737 86.3156 18.292 85.9258 18.5771 85.5962C18.8622 85.2621 19.2074 85.0037 19.6127 84.8211C20.0181 84.634 20.4724 84.5405 20.9758 84.5405C21.4836 84.5405 21.9402 84.634 22.3455 84.8211C22.7553 85.0037 23.1028 85.2621 23.3879 85.5962C23.6774 85.9258 23.8979 86.3156 24.0494 86.7655C24.2008 87.2109 24.2765 87.6942 24.2765 88.2154V88.3691C24.2765 88.8902 24.2008 89.3735 24.0494 89.819C23.8979 90.2644 23.6774 90.6542 23.3879 90.9883C23.1028 91.3179 22.7576 91.5763 22.3522 91.7634C21.9513 91.946 21.497 92.0373 20.9892 92.0373C20.4813 92.0373 20.0248 91.946 19.6194 91.7634C19.2141 91.5763 18.8666 91.3179 18.5771 90.9883C18.292 90.6542 18.0737 90.2644 17.9223 89.819C17.7708 89.3735 17.6951 88.8902 17.6951 88.3691ZM18.9312 88.2154V88.3691C18.9312 88.7299 18.9735 89.0706 19.0582 89.3914C19.1428 89.7076 19.2697 89.9883 19.439 90.2332C19.6127 90.4782 19.8288 90.672 20.0871 90.8146C20.3455 90.9526 20.6462 91.0217 20.9892 91.0217C21.3277 91.0217 21.6239 90.9526 21.8778 90.8146C22.1362 90.672 22.35 90.4782 22.5193 90.2332C22.6885 89.9883 22.8155 89.7076 22.9001 89.3914C22.9892 89.0706 23.0337 88.7299 23.0337 88.3691V88.2154C23.0337 87.859 22.9892 87.5227 22.9001 87.2065C22.8155 86.8857 22.6863 86.6029 22.5126 86.3579C22.3433 86.1084 22.1295 85.9124 21.8711 85.7699C21.6172 85.6274 21.3188 85.5561 20.9758 85.5561C20.6373 85.5561 20.3388 85.6274 20.0804 85.7699C19.8265 85.9124 19.6127 86.1084 19.439 86.3579C19.2697 86.6029 19.1428 86.8857 19.0582 87.2065C18.9735 87.5227 18.9312 87.859 18.9312 88.2154Z" fill="white"/>
<path d="M27.6575 90.6208L29.515 84.6741H30.3301L30.1698 85.8568L28.2789 91.9037H27.4837L27.6575 90.6208ZM26.408 84.6741L27.9915 90.6876L28.1051 91.9037H27.2699L25.1719 84.6741H26.408ZM32.1075 90.6408L33.6175 84.6741H34.8469L32.7489 91.9037H31.9204L32.1075 90.6408ZM30.5105 84.6741L32.3279 90.5206L32.5351 91.9037H31.7466L29.8023 85.8434L29.6419 84.6741H30.5105Z" fill="white"/>
<path d="M39.1165 92.0373C38.6132 92.0373 38.1566 91.9527 37.7468 91.7834C37.3414 91.6097 36.9917 91.3669 36.6978 91.0551C36.4082 90.7433 36.1855 90.3736 36.0296 89.9459C35.8737 89.5183 35.7957 89.0506 35.7957 88.5428V88.2622C35.7957 87.6742 35.8826 87.1508 36.0563 86.692C36.23 86.2287 36.4661 85.8367 36.7646 85.516C37.063 85.1953 37.4016 84.9525 37.7802 84.7877C38.1588 84.6229 38.5508 84.5405 38.9562 84.5405C39.4729 84.5405 39.9183 84.6296 40.2925 84.8077C40.6711 84.9859 40.9807 85.2354 41.2212 85.5561C41.4618 85.8723 41.64 86.2465 41.7558 86.6786C41.8716 87.1062 41.9295 87.5739 41.9295 88.0818V88.6363H36.5307V87.6274H40.6934V87.5339C40.6756 87.2131 40.6088 86.9013 40.4929 86.5984C40.3816 86.2955 40.2034 86.0461 39.9584 85.8501C39.7134 85.6541 39.3793 85.5561 38.9562 85.5561C38.6755 85.5561 38.4172 85.6162 38.1811 85.7365C37.945 85.8523 37.7423 86.026 37.5731 86.2577C37.4038 86.4893 37.2724 86.7721 37.1788 87.1062C37.0853 87.4403 37.0385 87.8256 37.0385 88.2622V88.5428C37.0385 88.8858 37.0853 89.2087 37.1788 89.5116C37.2768 89.8101 37.4171 90.0729 37.5998 90.3001C37.7869 90.5272 38.0118 90.7054 38.2746 90.8346C38.5419 90.9638 38.8448 91.0284 39.1833 91.0284C39.6199 91.0284 39.9896 90.9393 40.2925 90.7611C40.5954 90.5829 40.8604 90.3446 41.0876 90.0462L41.836 90.6408C41.6801 90.8769 41.4818 91.1019 41.2413 91.3157C41.0007 91.5295 40.7045 91.7032 40.3526 91.8369C40.0052 91.9705 39.5931 92.0373 39.1165 92.0373Z" fill="white"/>
<path d="M44.6088 85.81V91.9037H43.3727V84.6741H44.5754L44.6088 85.81ZM46.8673 84.634L46.8606 85.7833C46.7581 85.761 46.6601 85.7476 46.5666 85.7432C46.4775 85.7343 46.375 85.7298 46.2592 85.7298C45.9741 85.7298 45.7225 85.7744 45.5042 85.8634C45.2859 85.9525 45.1011 86.0773 44.9496 86.2376C44.7982 86.398 44.6779 86.5895 44.5888 86.8122C44.5042 87.0305 44.4485 87.271 44.4218 87.5339L44.0743 87.7343C44.0743 87.2978 44.1166 86.888 44.2013 86.5049C44.2904 86.1218 44.4262 85.7833 44.6088 85.4893C44.7915 85.1908 45.0231 84.9592 45.3037 84.7944C45.5888 84.6251 45.9274 84.5405 46.3194 84.5405C46.4084 84.5405 46.5109 84.5516 46.6267 84.5739C46.7425 84.5917 46.8227 84.6117 46.8673 84.634Z" fill="white"/>
<path d="M50.8763 92.0373C50.3729 92.0373 49.9163 91.9527 49.5065 91.7834C49.1012 91.6097 48.7515 91.3669 48.4575 91.0551C48.168 90.7433 47.9452 90.3736 47.7893 89.9459C47.6334 89.5183 47.5555 89.0506 47.5555 88.5428V88.2622C47.5555 87.6742 47.6423 87.1508 47.8161 86.692C47.9898 86.2287 48.2259 85.8367 48.5243 85.516C48.8228 85.1953 49.1613 84.9525 49.5399 84.7877C49.9185 84.6229 50.3105 84.5405 50.7159 84.5405C51.2326 84.5405 51.6781 84.6296 52.0522 84.8077C52.4309 84.9859 52.7404 85.2354 52.981 85.5561C53.2215 85.8723 53.3997 86.2465 53.5155 86.6786C53.6313 87.1062 53.6892 87.5739 53.6892 88.0818V88.6363H48.2904V87.6274H52.4531V87.5339C52.4353 87.2131 52.3685 86.9013 52.2527 86.5984C52.1413 86.2955 51.9631 86.0461 51.7181 85.8501C51.4731 85.6541 51.1391 85.5561 50.7159 85.5561C50.4353 85.5561 50.1769 85.6162 49.9408 85.7365C49.7047 85.8523 49.5021 86.026 49.3328 86.2577C49.1635 86.4893 49.0321 86.7721 48.9386 87.1062C48.845 87.4403 48.7983 87.8256 48.7983 88.2622V88.5428C48.7983 88.8858 48.845 89.2087 48.9386 89.5116C49.0366 89.8101 49.1769 90.0729 49.3595 90.3001C49.5466 90.5272 49.7716 90.7054 50.0344 90.8346C50.3016 90.9638 50.6045 91.0284 50.9431 91.0284C51.3796 91.0284 51.7493 90.9393 52.0522 90.7611C52.3551 90.5829 52.6202 90.3446 52.8473 90.0462L53.5957 90.6408C53.4398 90.8769 53.2416 91.1019 53.001 91.3157C52.7605 91.5295 52.4643 91.7032 52.1124 91.8369C51.7649 91.9705 51.3529 92.0373 50.8763 92.0373Z" fill="white"/>
<path d="M59.6894 90.5005V81.6406H60.9322V91.9037H59.7963L59.6894 90.5005ZM54.8251 88.3691V88.2287C54.8251 87.6764 54.8919 87.1753 55.0256 86.7254C55.1637 86.271 55.3574 85.8813 55.6069 85.5561C55.8608 85.2309 56.1615 84.9815 56.5089 84.8077C56.8608 84.6296 57.2528 84.5405 57.6849 84.5405C58.1392 84.5405 58.5357 84.6206 58.8742 84.781C59.2172 84.9369 59.5067 85.1663 59.7428 85.4692C59.9834 85.7677 60.1727 86.1285 60.3108 86.5517C60.4489 86.9748 60.5446 87.4537 60.5981 87.9882V88.6029C60.5491 89.133 60.4533 89.6096 60.3108 90.0328C60.1727 90.456 59.9834 90.8168 59.7428 91.1152C59.5067 91.4137 59.2172 91.6431 58.8742 91.8034C58.5312 91.9593 58.1303 92.0373 57.6715 92.0373C57.2483 92.0373 56.8608 91.946 56.5089 91.7634C56.1615 91.5807 55.8608 91.3246 55.6069 90.995C55.3574 90.6653 55.1637 90.2778 55.0256 89.8323C54.8919 89.3825 54.8251 88.8947 54.8251 88.3691ZM56.0679 88.2287V88.3691C56.0679 88.7299 56.1035 89.0684 56.1748 89.3847C56.2505 89.7009 56.3664 89.9793 56.5223 90.2199C56.6782 90.4604 56.8764 90.6497 57.1169 90.7878C57.3575 90.9215 57.6448 90.9883 57.9789 90.9883C58.3887 90.9883 58.725 90.9014 58.9878 90.7277C59.2551 90.554 59.4689 90.3246 59.6292 90.0395C59.7896 89.7544 59.9143 89.4448 60.0034 89.1107V87.5004C59.95 87.2555 59.872 87.0194 59.7696 86.7922C59.6716 86.5606 59.5424 86.3557 59.382 86.1775C59.2261 85.9948 59.0323 85.8501 58.8007 85.7432C58.5735 85.6363 58.304 85.5828 57.9922 85.5828C57.6537 85.5828 57.3619 85.6541 57.1169 85.7966C56.8764 85.9347 56.6782 86.1263 56.5223 86.3712C56.3664 86.6118 56.2505 86.8924 56.1748 87.2131C56.1035 87.5294 56.0679 87.8679 56.0679 88.2287Z" fill="white"/>
<path d="M66.2441 81.6406H67.4869V90.5005L67.38 91.9037H66.2441V81.6406ZM72.3712 88.2287V88.3691C72.3712 88.8947 72.3088 89.3825 72.1841 89.8323C72.0594 90.2778 71.8767 90.6653 71.6362 90.995C71.3957 91.3246 71.1017 91.5807 70.7542 91.7634C70.4068 91.946 70.0081 92.0373 69.5582 92.0373C69.0994 92.0373 68.6963 91.9593 68.3488 91.8034C68.0058 91.6431 67.7163 91.4137 67.4802 91.1152C67.2441 90.8168 67.0548 90.456 66.9123 90.0328C66.7742 89.6096 66.6784 89.133 66.6249 88.6029V87.9882C66.6784 87.4537 66.7742 86.9748 66.9123 86.5517C67.0548 86.1285 67.2441 85.7677 67.4802 85.4692C67.7163 85.1663 68.0058 84.9369 68.3488 84.781C68.6918 84.6206 69.0905 84.5405 69.5448 84.5405C69.9992 84.5405 70.4023 84.6296 70.7542 84.8077C71.1061 84.9815 71.4001 85.2309 71.6362 85.5561C71.8767 85.8813 72.0594 86.271 72.1841 86.7254C72.3088 87.1753 72.3712 87.6764 72.3712 88.2287ZM71.1284 88.3691V88.2287C71.1284 87.8679 71.095 87.5294 71.0282 87.2131C70.9613 86.8924 70.8544 86.6118 70.7074 86.3712C70.5604 86.1263 70.3667 85.9347 70.1261 85.7966C69.8856 85.6541 69.5894 85.5828 69.2375 85.5828C68.9257 85.5828 68.6539 85.6363 68.4223 85.7432C68.1951 85.8501 68.0014 85.9948 67.841 86.1775C67.6806 86.3557 67.5492 86.5606 67.4468 86.7922C67.3488 87.0194 67.2753 87.2555 67.2263 87.5004V89.1107C67.2976 89.4225 67.4134 89.7232 67.5737 90.0128C67.7386 90.2978 67.9568 90.5317 68.2285 90.7143C68.5047 90.897 68.8455 90.9883 69.2508 90.9883C69.5849 90.9883 69.87 90.9215 70.1061 90.7878C70.3466 90.6497 70.5404 90.4604 70.6874 90.2199C70.8389 89.9793 70.9502 89.7009 71.0215 89.3847C71.0928 89.0684 71.1284 88.7299 71.1284 88.3691Z" fill="white"/>
<path d="M75.8857 91.1553L77.8969 84.6741H79.2199L76.32 93.0195C76.2532 93.1977 76.1641 93.3892 76.0528 93.5941C75.9459 93.8035 75.8078 94.0017 75.6385 94.1888C75.4692 94.3759 75.2643 94.5273 75.0238 94.6432C74.7877 94.7634 74.5049 94.8236 74.1752 94.8236C74.0772 94.8236 73.9525 94.8102 73.8011 94.7835C73.6496 94.7567 73.5427 94.7345 73.4803 94.7166L73.4737 93.7144C73.5093 93.7189 73.565 93.7233 73.6407 93.7278C73.7209 93.7367 73.7766 93.7411 73.8077 93.7411C74.0884 93.7411 74.3267 93.7033 74.5227 93.6275C74.7187 93.5563 74.8835 93.4338 75.0171 93.26C75.1552 93.0908 75.2732 92.8569 75.3712 92.5585L75.8857 91.1553ZM74.4091 84.6741L76.2866 90.2867L76.6074 91.5896L75.7187 92.044L73.0594 84.6741H74.4091Z" fill="white"/>
<path d="M87.3849 87.3535H84.9193L84.906 86.3178H87.1443C87.5141 86.3178 87.837 86.2554 88.1132 86.1307C88.3894 86.006 88.6032 85.8278 88.7546 85.5962C88.9105 85.3601 88.9885 85.0795 88.9885 84.7543C88.9885 84.3979 88.9194 84.1084 88.7814 83.8857C88.6477 83.6585 88.4406 83.4937 88.16 83.3912C87.8838 83.2843 87.5319 83.2309 87.1043 83.2309H85.2067V91.9037H83.9171V82.1752H87.1043C87.6032 82.1752 88.0486 82.2264 88.4406 82.3288C88.8326 82.4268 89.1644 82.5827 89.4362 82.7966C89.7123 83.0059 89.9217 83.2732 90.0642 83.5984C90.2068 83.9235 90.278 84.3133 90.278 84.7676C90.278 85.1685 90.1756 85.5316 89.9707 85.8568C89.7658 86.1775 89.4807 86.4403 89.1154 86.6452C88.7546 86.8501 88.3315 86.9815 87.8459 87.0394L87.3849 87.3535ZM87.3248 91.9037H84.4115L85.1398 90.8546H87.3248C87.7346 90.8546 88.082 90.7834 88.3671 90.6408C88.6566 90.4983 88.8771 90.2978 89.0286 90.0395C89.18 89.7767 89.2558 89.4671 89.2558 89.1107C89.2558 88.7499 89.1912 88.4381 89.062 88.1753C88.9328 87.9125 88.7301 87.7098 88.454 87.5673C88.1778 87.4247 87.8214 87.3535 87.3849 87.3535H85.5474L85.5608 86.3178H88.0731L88.347 86.692C88.8148 86.7321 89.2112 86.8657 89.5364 87.0929C89.8616 87.3156 90.1088 87.6007 90.278 87.9481C90.4518 88.2956 90.5386 88.6786 90.5386 89.0974C90.5386 89.7032 90.405 90.2154 90.1377 90.6341C89.8749 91.0484 89.503 91.3647 89.0219 91.5829C88.5408 91.7968 87.9751 91.9037 87.3248 91.9037Z" fill="white"/>
<path d="M93.5988 84.6741V91.9037H92.356V84.6741H93.5988ZM92.2625 82.7565C92.2625 82.556 92.3226 82.3867 92.4429 82.2487C92.5676 82.1106 92.7503 82.0415 92.9908 82.0415C93.2269 82.0415 93.4073 82.1106 93.532 82.2487C93.6612 82.3867 93.7258 82.556 93.7258 82.7565C93.7258 82.948 93.6612 83.1128 93.532 83.2509C93.4073 83.3845 93.2269 83.4514 92.9908 83.4514C92.7503 83.4514 92.5676 83.3845 92.4429 83.2509C92.3226 83.1128 92.2625 82.948 92.2625 82.7565Z" fill="white"/>
<path d="M96.8194 86.2176V91.9037H95.5833V84.6741H96.7526L96.8194 86.2176ZM96.5254 88.0149L96.0109 87.9949C96.0154 87.5004 96.0889 87.0439 96.2314 86.6251C96.374 86.202 96.5744 85.8345 96.8328 85.5227C97.0911 85.2109 97.3985 84.9703 97.7548 84.8011C98.1156 84.6273 98.5143 84.5405 98.9509 84.5405C99.3072 84.5405 99.6279 84.5895 99.913 84.6875C100.198 84.781 100.441 84.9325 100.641 85.1418C100.846 85.3512 101.002 85.6229 101.109 85.957C101.216 86.2866 101.269 86.6897 101.269 87.1664V91.9037H100.027V87.153C100.027 86.7744 99.9709 86.4715 99.8596 86.2443C99.7482 86.0127 99.5856 85.8456 99.3718 85.7432C99.158 85.6363 98.8952 85.5828 98.5834 85.5828C98.276 85.5828 97.9954 85.6474 97.7415 85.7766C97.492 85.9058 97.276 86.0839 97.0934 86.3111C96.9152 86.5383 96.7749 86.7989 96.6724 87.0929C96.5744 87.3824 96.5254 87.6898 96.5254 88.0149Z" fill="white"/>
<path d="M106.802 87.3535H104.336L104.323 86.3178H106.561C106.931 86.3178 107.254 86.2554 107.53 86.1307C107.806 86.006 108.02 85.8278 108.172 85.5962C108.327 85.3601 108.405 85.0795 108.405 84.7543C108.405 84.3979 108.336 84.1084 108.198 83.8857C108.065 83.6585 107.858 83.4937 107.577 83.3912C107.301 83.2843 106.949 83.2309 106.521 83.2309H104.624V91.9037H103.334V82.1752H106.521C107.02 82.1752 107.466 82.2264 107.858 82.3288C108.25 82.4268 108.581 82.5827 108.853 82.7966C109.129 83.0059 109.339 83.2732 109.481 83.5984C109.624 83.9235 109.695 84.3133 109.695 84.7676C109.695 85.1685 109.593 85.5316 109.388 85.8568C109.183 86.1775 108.898 86.4403 108.532 86.6452C108.172 86.8501 107.748 86.9815 107.263 87.0394L106.802 87.3535ZM106.742 91.9037H103.828L104.557 90.8546H106.742C107.151 90.8546 107.499 90.7834 107.784 90.6408C108.074 90.4983 108.294 90.2978 108.446 90.0395C108.597 89.7767 108.673 89.4671 108.673 89.1107C108.673 88.7499 108.608 88.4381 108.479 88.1753C108.35 87.9125 108.147 87.7098 107.871 87.5673C107.595 87.4247 107.238 87.3535 106.802 87.3535H104.964L104.978 86.3178H107.49L107.764 86.692C108.232 86.7321 108.628 86.8657 108.953 87.0929C109.278 87.3156 109.526 87.6007 109.695 87.9481C109.869 88.2956 109.956 88.6786 109.956 89.0974C109.956 89.7032 109.822 90.2154 109.555 90.6341C109.292 91.0484 108.92 91.3647 108.439 91.5829C107.958 91.7968 107.392 91.9037 106.742 91.9037Z" fill="white"/>
<path d="M111.345 88.3691V88.2154C111.345 87.6942 111.421 87.2109 111.573 86.7655C111.724 86.3156 111.942 85.9258 112.227 85.5962C112.512 85.2621 112.858 85.0037 113.263 84.8211C113.668 84.634 114.123 84.5405 114.626 84.5405C115.134 84.5405 115.59 84.634 115.996 84.8211C116.406 85.0037 116.753 85.2621 117.038 85.5962C117.328 85.9258 117.548 86.3156 117.7 86.7655C117.851 87.2109 117.927 87.6942 117.927 88.2154V88.3691C117.927 88.8902 117.851 89.3735 117.7 89.819C117.548 90.2644 117.328 90.6542 117.038 90.9883C116.753 91.3179 116.408 91.5763 116.002 91.7634C115.602 91.946 115.147 92.0373 114.639 92.0373C114.132 92.0373 113.675 91.946 113.27 91.7634C112.864 91.5763 112.517 91.3179 112.227 90.9883C111.942 90.6542 111.724 90.2644 111.573 89.819C111.421 89.3735 111.345 88.8902 111.345 88.3691ZM112.581 88.2154V88.3691C112.581 88.7299 112.624 89.0706 112.708 89.3914C112.793 89.7076 112.92 89.9883 113.089 90.2332C113.263 90.4782 113.479 90.672 113.737 90.8146C113.996 90.9526 114.296 91.0217 114.639 91.0217C114.978 91.0217 115.274 90.9526 115.528 90.8146C115.786 90.672 116 90.4782 116.17 90.2332C116.339 89.9883 116.466 89.7076 116.55 89.3914C116.639 89.0706 116.684 88.7299 116.684 88.3691V88.2154C116.684 87.859 116.639 87.5227 116.55 87.2065C116.466 86.8857 116.337 86.6029 116.163 86.3579C115.994 86.1084 115.78 85.9124 115.521 85.7699C115.267 85.6274 114.969 85.5561 114.626 85.5561C114.288 85.5561 113.989 85.6274 113.731 85.7699C113.477 85.9124 113.263 86.1084 113.089 86.3579C112.92 86.6029 112.793 86.8857 112.708 87.2065C112.624 87.5227 112.581 87.859 112.581 88.2154Z" fill="white"/>
<path d="M120.165 84.6741L121.749 87.3067L123.352 84.6741H124.802L122.437 88.2421L124.876 91.9037H123.446L121.775 89.1909L120.105 91.9037H118.668L121.101 88.2421L118.742 84.6741H120.165Z" fill="white"/>
<path d="M132.332 91.9037H130.301L130.315 90.8546H132.332C133.027 90.8546 133.606 90.7099 134.07 90.4203C134.533 90.1263 134.88 89.7165 135.112 89.1909C135.348 88.6608 135.466 88.0417 135.466 87.3334V86.7387C135.466 86.1819 135.399 85.6875 135.266 85.2554C135.132 84.8189 134.936 84.4514 134.678 84.1529C134.419 83.85 134.103 83.6206 133.729 83.4647C133.359 83.3088 132.934 83.2309 132.453 83.2309H130.261V82.1752H132.453C133.09 82.1752 133.671 82.2821 134.197 82.4959C134.722 82.7052 135.174 83.0104 135.553 83.4113C135.936 83.8077 136.23 84.2888 136.435 84.8545C136.64 85.4158 136.742 86.0483 136.742 86.7521V87.3334C136.742 88.0372 136.64 88.672 136.435 89.2377C136.23 89.7989 135.934 90.2778 135.546 90.6742C135.163 91.0707 134.7 91.3758 134.157 91.5896C133.618 91.799 133.01 91.9037 132.332 91.9037ZM130.989 82.1752V91.9037H129.7V82.1752H130.989Z" fill="white"/>
<path d="M142.756 90.6676V86.9459C142.756 86.6608 142.698 86.4136 142.582 86.2042C142.471 85.9904 142.302 85.8256 142.074 85.7098C141.847 85.5939 141.567 85.536 141.232 85.536C140.921 85.536 140.647 85.5895 140.411 85.6964C140.179 85.8033 139.996 85.9436 139.863 86.1173C139.734 86.2911 139.669 86.4782 139.669 86.6786H138.433C138.433 86.4202 138.5 86.1641 138.633 85.9102C138.767 85.6563 138.958 85.4269 139.208 85.222C139.462 85.0126 139.765 84.8478 140.117 84.7276C140.473 84.6028 140.869 84.5405 141.306 84.5405C141.832 84.5405 142.295 84.6296 142.696 84.8077C143.101 84.9859 143.417 85.2554 143.645 85.6162C143.876 85.9726 143.992 86.4202 143.992 86.9592V90.3268C143.992 90.5673 144.012 90.8235 144.052 91.0952C144.097 91.3669 144.161 91.6008 144.246 91.7968V91.9037H142.956C142.894 91.7611 142.845 91.5718 142.809 91.3357C142.774 91.0952 142.756 90.8725 142.756 90.6676ZM142.97 87.5205L142.983 88.3891H141.734C141.382 88.3891 141.068 88.4181 140.791 88.476C140.515 88.5294 140.284 88.6118 140.097 88.7232C139.909 88.8346 139.767 88.9749 139.669 89.1441C139.571 89.309 139.522 89.5027 139.522 89.7254C139.522 89.9526 139.573 90.1598 139.676 90.3468C139.778 90.5339 139.932 90.6831 140.137 90.7945C140.346 90.9014 140.602 90.9549 140.905 90.9549C141.284 90.9549 141.618 90.8747 141.907 90.7143C142.197 90.554 142.426 90.358 142.596 90.1263C142.769 89.8947 142.863 89.6698 142.876 89.4515L143.404 90.0462C143.373 90.2332 143.288 90.4404 143.15 90.6676C143.012 90.8947 142.827 91.113 142.596 91.3224C142.368 91.5273 142.097 91.6988 141.78 91.8369C141.469 91.9705 141.117 92.0373 140.725 92.0373C140.235 92.0373 139.805 91.9415 139.435 91.75C139.07 91.5584 138.785 91.3023 138.58 90.9816C138.379 90.6564 138.279 90.2934 138.279 89.8925C138.279 89.5049 138.355 89.1642 138.506 88.8702C138.658 88.5717 138.876 88.3245 139.161 88.1285C139.446 87.9281 139.789 87.7766 140.19 87.6742C140.591 87.5717 141.039 87.5205 141.533 87.5205H142.97Z" fill="white"/>
<path d="M148.963 84.6741V85.6229H145.054V84.6741H148.963ZM146.377 82.9168H147.613V90.113C147.613 90.358 147.651 90.5428 147.727 90.6676C147.803 90.7923 147.901 90.8747 148.021 90.9148C148.141 90.9549 148.27 90.9749 148.409 90.9749C148.511 90.9749 148.618 90.966 148.729 90.9482C148.845 90.9259 148.932 90.9081 148.99 90.8947L148.997 91.9037C148.899 91.9348 148.769 91.9638 148.609 91.9905C148.453 92.0217 148.264 92.0373 148.041 92.0373C147.738 92.0373 147.46 91.9772 147.206 91.8569C146.952 91.7366 146.749 91.5362 146.598 91.2555C146.451 90.9705 146.377 90.5874 146.377 90.1063V82.9168Z" fill="white"/>
<path d="M154.676 90.6676V86.9459C154.676 86.6608 154.618 86.4136 154.502 86.2042C154.391 85.9904 154.222 85.8256 153.994 85.7098C153.767 85.5939 153.487 85.536 153.153 85.536C152.841 85.536 152.567 85.5895 152.331 85.6964C152.099 85.8033 151.916 85.9436 151.783 86.1173C151.654 86.2911 151.589 86.4782 151.589 86.6786H150.353C150.353 86.4202 150.42 86.1641 150.553 85.9102C150.687 85.6563 150.879 85.4269 151.128 85.222C151.382 85.0126 151.685 84.8478 152.037 84.7276C152.393 84.6028 152.79 84.5405 153.226 84.5405C153.752 84.5405 154.215 84.6296 154.616 84.8077C155.021 84.9859 155.337 85.2554 155.565 85.6162C155.796 85.9726 155.912 86.4202 155.912 86.9592V90.3268C155.912 90.5673 155.932 90.8235 155.972 91.0952C156.017 91.3669 156.081 91.6008 156.166 91.7968V91.9037H154.876C154.814 91.7611 154.765 91.5718 154.729 91.3357C154.694 91.0952 154.676 90.8725 154.676 90.6676ZM154.89 87.5205L154.903 88.3891H153.654C153.302 88.3891 152.988 88.4181 152.712 88.476C152.435 88.5294 152.204 88.6118 152.017 88.7232C151.83 88.8346 151.687 88.9749 151.589 89.1441C151.491 89.309 151.442 89.5027 151.442 89.7254C151.442 89.9526 151.493 90.1598 151.596 90.3468C151.698 90.5339 151.852 90.6831 152.057 90.7945C152.266 90.9014 152.522 90.9549 152.825 90.9549C153.204 90.9549 153.538 90.8747 153.827 90.7143C154.117 90.554 154.346 90.358 154.516 90.1263C154.689 89.8947 154.783 89.6698 154.796 89.4515L155.324 90.0462C155.293 90.2332 155.208 90.4404 155.07 90.6676C154.932 90.8947 154.747 91.113 154.516 91.3224C154.288 91.5273 154.017 91.6988 153.7 91.8369C153.389 91.9705 153.037 92.0373 152.645 92.0373C152.155 92.0373 151.725 91.9415 151.355 91.75C150.99 91.5584 150.705 91.3023 150.5 90.9816C150.299 90.6564 150.199 90.2934 150.199 89.8925C150.199 89.5049 150.275 89.1642 150.426 88.8702C150.578 88.5717 150.796 88.3245 151.081 88.1285C151.366 87.9281 151.709 87.7766 152.11 87.6742C152.511 87.5717 152.959 87.5205 153.453 87.5205H154.89Z" fill="white"/>
<path d="M167.311 88.8101H168.594C168.527 89.4248 168.351 89.9749 168.066 90.4604C167.781 90.946 167.378 91.3313 166.857 91.6164C166.335 91.897 165.685 92.0373 164.906 92.0373C164.335 92.0373 163.816 91.9304 163.349 91.7166C162.885 91.5028 162.487 91.1999 162.153 90.8079C161.819 90.4114 161.56 89.937 161.378 89.3847C161.199 88.8279 161.11 88.2087 161.11 87.5272V86.5583C161.11 85.8768 161.199 85.2599 161.378 84.7075C161.56 84.1507 161.821 83.6741 162.159 83.2776C162.502 82.8812 162.914 82.5761 163.396 82.3622C163.877 82.1484 164.418 82.0415 165.019 82.0415C165.754 82.0415 166.376 82.1796 166.883 82.4558C167.391 82.732 167.785 83.115 168.066 83.605C168.351 84.0906 168.527 84.6541 168.594 85.2955H167.311C167.249 84.8411 167.133 84.4514 166.964 84.1262C166.794 83.7966 166.554 83.5427 166.242 83.3645C165.93 83.1863 165.523 83.0972 165.019 83.0972C164.587 83.0972 164.206 83.1796 163.877 83.3445C163.551 83.5093 163.277 83.7431 163.055 84.046C162.837 84.3489 162.672 84.712 162.56 85.1351C162.449 85.5583 162.393 86.0283 162.393 86.545V87.5272C162.393 88.0038 162.442 88.4515 162.54 88.8702C162.643 89.2889 162.796 89.6564 163.001 89.9727C163.206 90.2889 163.467 90.5384 163.783 90.721C164.099 90.8992 164.474 90.9883 164.906 90.9883C165.453 90.9883 165.89 90.9014 166.215 90.7277C166.54 90.554 166.785 90.3045 166.95 89.9793C167.119 89.6542 167.24 89.2644 167.311 88.8101Z" fill="white"/>
<path d="M173.164 92.0373C172.661 92.0373 172.204 91.9527 171.794 91.7834C171.389 91.6097 171.039 91.3669 170.745 91.0551C170.456 90.7433 170.233 90.3736 170.077 89.9459C169.921 89.5183 169.843 89.0506 169.843 88.5428V88.2622C169.843 87.6742 169.93 87.1508 170.104 86.692C170.278 86.2287 170.514 85.8367 170.812 85.516C171.111 85.1953 171.449 84.9525 171.828 84.7877C172.206 84.6229 172.598 84.5405 173.004 84.5405C173.52 84.5405 173.966 84.6296 174.34 84.8077C174.719 84.9859 175.028 85.2354 175.269 85.5561C175.509 85.8723 175.688 86.2465 175.803 86.6786C175.919 87.1062 175.977 87.5739 175.977 88.0818V88.6363H170.578V87.6274H174.741V87.5339C174.723 87.2131 174.656 86.9013 174.541 86.5984C174.429 86.2955 174.251 86.0461 174.006 85.8501C173.761 85.6541 173.427 85.5561 173.004 85.5561C172.723 85.5561 172.465 85.6162 172.229 85.7365C171.993 85.8523 171.79 86.026 171.621 86.2577C171.451 86.4893 171.32 86.7721 171.226 87.1062C171.133 87.4403 171.086 87.8256 171.086 88.2622V88.5428C171.086 88.8858 171.133 89.2087 171.226 89.5116C171.324 89.8101 171.465 90.0729 171.647 90.3001C171.834 90.5272 172.059 90.7054 172.322 90.8346C172.59 90.9638 172.892 91.0284 173.231 91.0284C173.667 91.0284 174.037 90.9393 174.34 90.7611C174.643 90.5829 174.908 90.3446 175.135 90.0462L175.884 90.6408C175.728 90.8769 175.529 91.1019 175.289 91.3157C175.048 91.5295 174.752 91.7032 174.4 91.8369C174.053 91.9705 173.641 92.0373 173.164 92.0373Z" fill="white"/>
<path d="M178.656 86.2176V91.9037H177.42V84.6741H178.59L178.656 86.2176ZM178.362 88.0149L177.848 87.9949C177.852 87.5004 177.926 87.0439 178.068 86.6251C178.211 86.202 178.411 85.8345 178.67 85.5227C178.928 85.2109 179.236 84.9703 179.592 84.8011C179.953 84.6273 180.351 84.5405 180.788 84.5405C181.144 84.5405 181.465 84.5895 181.75 84.6875C182.035 84.781 182.278 84.9325 182.478 85.1418C182.683 85.3512 182.839 85.6229 182.946 85.957C183.053 86.2866 183.106 86.6897 183.106 87.1664V91.9037H181.864V87.153C181.864 86.7744 181.808 86.4715 181.697 86.2443C181.585 86.0127 181.423 85.8456 181.209 85.7432C180.995 85.6363 180.732 85.5828 180.42 85.5828C180.113 85.5828 179.832 85.6474 179.579 85.7766C179.329 85.9058 179.113 86.0839 178.93 86.3111C178.752 86.5383 178.612 86.7989 178.509 87.0929C178.411 87.3824 178.362 87.6898 178.362 88.0149Z" fill="white"/>
<path d="M188.011 84.6741V85.6229H184.102V84.6741H188.011ZM185.425 82.9168H186.661V90.113C186.661 90.358 186.699 90.5428 186.775 90.6676C186.85 90.7923 186.948 90.8747 187.069 90.9148C187.189 90.9549 187.318 90.9749 187.456 90.9749C187.559 90.9749 187.666 90.966 187.777 90.9482C187.893 90.9259 187.98 90.9081 188.038 90.8947L188.044 91.9037C187.946 91.9348 187.817 91.9638 187.657 91.9905C187.501 92.0217 187.311 92.0373 187.089 92.0373C186.786 92.0373 186.507 91.9772 186.254 91.8569C186 91.7366 185.797 91.5362 185.645 91.2555C185.498 90.9705 185.425 90.5874 185.425 90.1063V82.9168Z" fill="white"/>
<path d="M192.461 92.0373C191.957 92.0373 191.501 91.9527 191.091 91.7834C190.686 91.6097 190.336 91.3669 190.042 91.0551C189.752 90.7433 189.53 90.3736 189.374 89.9459C189.218 89.5183 189.14 89.0506 189.14 88.5428V88.2622C189.14 87.6742 189.227 87.1508 189.401 86.692C189.574 86.2287 189.81 85.8367 190.109 85.516C190.407 85.1953 190.746 84.9525 191.124 84.7877C191.503 84.6229 191.895 84.5405 192.3 84.5405C192.817 84.5405 193.263 84.6296 193.637 84.8077C194.015 84.9859 194.325 85.2354 194.566 85.5561C194.806 85.8723 194.984 86.2465 195.1 86.6786C195.216 87.1062 195.274 87.5739 195.274 88.0818V88.6363H189.875V87.6274H194.038V87.5339C194.02 87.2131 193.953 86.9013 193.837 86.5984C193.726 86.2955 193.548 86.0461 193.303 85.8501C193.058 85.6541 192.724 85.5561 192.3 85.5561C192.02 85.5561 191.761 85.6162 191.525 85.7365C191.289 85.8523 191.087 86.026 190.917 86.2577C190.748 86.4893 190.617 86.7721 190.523 87.1062C190.43 87.4403 190.383 87.8256 190.383 88.2622V88.5428C190.383 88.8858 190.43 89.2087 190.523 89.5116C190.621 89.8101 190.761 90.0729 190.944 90.3001C191.131 90.5272 191.356 90.7054 191.619 90.8346C191.886 90.9638 192.189 91.0284 192.528 91.0284C192.964 91.0284 193.334 90.9393 193.637 90.7611C193.94 90.5829 194.205 90.3446 194.432 90.0462L195.18 90.6408C195.024 90.8769 194.826 91.1019 194.586 91.3157C194.345 91.5295 194.049 91.7032 193.697 91.8369C193.349 91.9705 192.937 92.0373 192.461 92.0373Z" fill="white"/>
<path d="M197.953 85.81V91.9037H196.717V84.6741H197.92L197.953 85.81ZM200.212 84.634L200.205 85.7833C200.102 85.761 200.004 85.7476 199.911 85.7432C199.822 85.7343 199.719 85.7298 199.604 85.7298C199.318 85.7298 199.067 85.7744 198.848 85.8634C198.63 85.9525 198.445 86.0773 198.294 86.2376C198.142 86.398 198.022 86.5895 197.933 86.8122C197.848 87.0305 197.793 87.271 197.766 87.5339L197.419 87.7343C197.419 87.2978 197.461 86.888 197.546 86.5049C197.635 86.1218 197.77 85.7833 197.953 85.4893C198.136 85.1908 198.367 84.9592 198.648 84.7944C198.933 84.6251 199.272 84.5405 199.664 84.5405C199.753 84.5405 199.855 84.5516 199.971 84.5739C200.087 84.5917 200.167 84.6117 200.212 84.634Z" fill="white"/>
<path d="M205.564 89.986C205.564 89.8078 205.523 89.643 205.443 89.4916C205.368 89.3357 205.209 89.1954 204.969 89.0706C204.733 88.9415 204.376 88.8301 203.9 88.7366C203.499 88.6519 203.136 88.5517 202.811 88.4359C202.49 88.3201 202.216 88.1798 201.989 88.0149C201.766 87.8501 201.595 87.6564 201.474 87.4336C201.354 87.2109 201.294 86.9503 201.294 86.6519C201.294 86.3668 201.356 86.0973 201.481 85.8434C201.61 85.5895 201.791 85.3645 202.022 85.1685C202.258 84.9725 202.541 84.8189 202.871 84.7075C203.2 84.5961 203.568 84.5405 203.973 84.5405C204.552 84.5405 205.047 84.6429 205.457 84.8478C205.866 85.0527 206.18 85.3267 206.399 85.6697C206.617 86.0082 206.726 86.3846 206.726 86.7989H205.49C205.49 86.5984 205.43 86.4047 205.31 86.2176C205.194 86.026 205.022 85.8679 204.795 85.7432C204.572 85.6184 204.298 85.5561 203.973 85.5561C203.63 85.5561 203.352 85.6095 203.138 85.7164C202.929 85.8189 202.775 85.9503 202.677 86.1107C202.584 86.271 202.537 86.4403 202.537 86.6185C202.537 86.7521 202.559 86.8724 202.604 86.9793C202.653 87.0817 202.737 87.1775 202.857 87.2666C202.978 87.3512 203.147 87.4314 203.365 87.5071C203.584 87.5829 203.862 87.6586 204.2 87.7343C204.793 87.8679 205.281 88.0283 205.664 88.2154C206.047 88.4025 206.332 88.6319 206.519 88.9036C206.706 89.1753 206.8 89.5049 206.8 89.8925C206.8 90.2087 206.733 90.4983 206.599 90.7611C206.47 91.0239 206.281 91.2511 206.031 91.4426C205.786 91.6297 205.492 91.7767 205.149 91.8836C204.811 91.9861 204.43 92.0373 204.007 92.0373C203.37 92.0373 202.831 91.9237 202.39 91.6965C201.949 91.4694 201.615 91.1754 201.387 90.8146C201.16 90.4537 201.047 90.0729 201.047 89.672H202.29C202.307 90.0105 202.405 90.28 202.584 90.4805C202.762 90.6765 202.98 90.8168 203.238 90.9014C203.497 90.9816 203.753 91.0217 204.007 91.0217C204.345 91.0217 204.628 90.9771 204.855 90.8881C205.087 90.799 205.263 90.6765 205.383 90.5206C205.503 90.3647 205.564 90.1865 205.564 89.986Z" fill="white"/>
<path fill-rule="evenodd" clip-rule="evenodd" d="M28.438 23.9338C28.438 33.9559 24.291 38.4486 24.291 38.4486C24.291 38.4486 27.1709 41.6741 27.9772 46.0515C28.7836 50.429 28.5532 60.1054 25.5581 64.2525C21.987 69.2059 17.264 70.2427 13.6929 70.2427H0.560547V7H14.0385C14.0385 7 20.8351 7.34559 23.9454 10.8015C27.9772 15.2941 28.438 18.75 28.438 23.9338ZM8.50909 62.4094H14.4993C16.112 62.4094 20.7199 62.179 20.7199 52.1569C20.7199 42.4915 15.7979 42.5652 13.9419 42.593C13.8513 42.5944 13.768 42.5956 13.6929 42.5956H8.50909V62.4094ZM8.50909 34.7623H14.4993C16.112 34.7623 20.7199 34.5319 20.7199 24.5098C20.7199 14.8444 15.7979 14.9181 13.9419 14.9459C13.8513 14.9473 13.768 14.9485 13.6929 14.9485H8.50909V34.7623ZM108.96 23.9338C108.96 33.9559 104.813 38.4486 104.813 38.4486C104.813 38.4486 107.693 41.6741 108.5 46.0515C109.306 50.429 109.076 60.1054 106.081 64.2525C102.509 69.2059 97.7864 70.2427 94.2154 70.2427H81.083V7H94.5609C94.5609 7 101.358 7.34559 104.468 10.8015C108.5 15.2941 108.96 18.75 108.96 23.9338ZM89.0315 62.4094H95.0217C96.5193 62.4094 101.242 62.179 101.242 52.1569C101.242 42.4915 96.3204 42.5652 94.4643 42.593C94.3737 42.5944 94.2904 42.5956 94.2154 42.5956H89.0315V62.4094ZM89.0315 34.7623H95.0217C96.5193 34.7623 101.242 34.5319 101.242 24.5098C101.242 14.8444 96.3204 14.9181 94.4643 14.9459C94.3737 14.9473 94.2904 14.9485 94.2154 14.9485H89.0315V34.7623ZM40.6489 7.11528H32.7004V70.358H40.6489V7.11528ZM69.5634 48.2403V7.11528H77.5119V70.358H69.5634L54.4727 30.3849V70.0124H46.6393V7.57606H54.4727L69.5634 48.2403ZM163.159 30.9619V22.207H154.405V30.9619H163.159ZM163.22 35.0536V43.8085H154.465V35.0536H163.22ZM163.165 56.6551V47.9002H154.41V56.6551H163.165ZM149.925 34.986V43.7409H141.17V34.986H149.925ZM149.869 56.5875V47.8326H141.114V56.5875H149.869ZM136.55 47.903V56.6579H127.795V47.903H136.55ZM167.826 22.09V61.6023H123.245V17.1366H164.024V8.38165H114.49V16.4454V17.1366V70.3572H122.093H123.245H167.826H176.58V61.6023V22.09H167.826ZM204.458 25.315H215.977L202.614 47.8935L215.977 70.3567H204.458L196.855 57.4548L189.136 70.3567H177.962L191.21 47.8935L177.962 25.315H189.136L196.855 38.3322L204.458 25.315Z" fill="white"/>
</svg>
