<svg width="275" height="102" viewBox="0 0 275 102" fill="none" xmlns="http://www.w3.org/2000/svg">
<g opacity="0.6">
<path d="M0.560547 46.7992C8.79519 39.5601 17.803 33.9833 28.9952 32.5722C28.9952 30.3976 28.9952 28.2616 28.9952 26C45.0102 26 60.9286 26 76.9339 26C76.9339 42.7302 76.9339 59.4605 76.9339 76.3164C61.0542 76.3164 45.1359 76.3164 29.1112 76.3164C29.1112 74.48 29.1112 72.6243 29.1112 70.5946C21.7271 69.8504 15.4931 66.7576 10.2739 61.6544C5.98265 57.4695 2.77385 52.5306 0.560547 46.7992ZM29.2755 36.303C33.7117 36.0227 37.7517 36.9409 41.5405 38.9705C45.3195 41.0002 48.5476 43.6677 51.1862 47.0699C48.1417 51.0519 44.7686 54.4443 40.5933 56.9766C37.7807 58.6873 34.7556 59.6538 31.3921 59.3252C30.7156 59.2575 30.068 58.8612 29.2658 59.1222C29.1788 60.166 29.1692 61.2099 29.2755 62.2923C33.8181 63.1815 37.9837 62.186 41.985 60.3497C46.9239 58.088 51.1669 54.8019 55.0426 51.0422C56.415 49.7084 57.8454 48.4326 59.0246 46.7509C51.0799 37.917 41.6951 32.2533 29.3431 32.6496C29.1305 33.906 29.2175 35.0078 29.2755 36.303ZM29.3335 70.5656C30.0777 70.5656 30.6866 70.556 31.2858 70.5656C36.9495 70.7106 42.449 69.6765 47.8904 68.2654C55.1005 66.3903 62.0981 63.9451 68.4383 59.9147C69.3275 59.3542 70.2361 58.7936 71.0383 57.9141C68.2837 55.8941 65.2585 54.6279 62.504 52.8302C62.1077 53.1685 61.7501 53.4681 61.3925 53.7677C58.2514 56.4256 55.0136 58.9676 51.4761 61.1035C46.4116 64.1674 41.0089 66.197 35.0552 66.6899C33.1512 66.8446 31.2568 66.8832 29.2755 66.6996C29.1885 67.9851 29.1595 69.1739 29.3335 70.5656ZM14.2076 48.1137C18.4023 44.006 23.3218 41.6767 28.9759 40.8842C28.9759 39.3958 28.9759 38.0137 28.9759 36.6412C28.4153 36.5156 26.6852 36.7862 26.1827 36.8635C21.7754 37.5981 17.803 39.3958 14.2173 42.0344C12.033 43.6484 10.0806 45.5041 8.5149 47.6691C9.46208 50.3946 10.6992 52.8399 12.2166 55.1402C14.8069 59.0642 18.0253 62.331 22.2876 64.4477C24.3753 65.4818 26.5403 66.2647 28.9759 66.4097C28.9759 65.0565 28.9759 63.8098 28.9759 62.447C25.3901 61.6738 22.2296 60.079 19.6491 57.4211C17.1168 54.8019 15.2998 51.7477 14.2076 48.1137ZM44.1983 47.0988C40.9509 42.6046 33.5958 39.7921 29.2658 41.2418C29.2175 42.421 29.1498 43.6194 29.3045 44.7889C33.2188 45.7071 34.3206 46.5189 36.4373 49.979C36.9109 50.7619 37.3941 51.5448 37.9257 52.4146C40.0907 50.5686 42.1494 48.8289 44.1983 47.0988ZM29.0049 44.9822C25.3611 44.7309 22.8385 46.5383 20.5576 48.8096C21.4951 52.8786 25.7091 58.175 29.0049 58.349C29.0049 53.9611 29.0049 49.5828 29.0049 44.9822Z" fill="white"/>
<path d="M178.215 35.394C184.652 35.6066 191.011 35.0557 197.342 35.7226C202.513 36.2735 206.591 38.5544 208.718 43.561C210.013 46.6248 210.361 49.8722 210.283 53.1584C210.225 55.3523 209.945 57.527 209.327 59.6533C207.877 64.6985 204.455 67.424 199.381 68.2745C197.951 68.5162 196.501 68.6128 195.051 68.6128C189.677 68.6225 184.294 68.6128 178.92 68.6128C178.698 68.6128 178.476 68.5935 178.195 68.5838C178.215 57.5366 178.215 46.5668 178.215 35.394ZM187.522 61.509C189.813 61.451 191.958 61.654 194.094 61.2867C197.255 60.7455 199.565 59.1314 200.522 55.9806C201.256 53.5643 201.256 51.09 200.638 48.6351C199.913 45.7453 198.057 43.9379 195.206 43.155C192.693 42.4688 190.132 42.7394 187.522 42.6814C187.522 49.0024 187.522 55.159 187.522 61.509Z" fill="white"/>
<path d="M89.4883 68.5351C89.4883 57.4493 89.4883 46.5084 89.4883 35.6449C89.6526 35.3839 89.8459 35.3936 90.0295 35.3936C96.3891 35.4033 102.758 35.3936 109.118 35.4516C110.896 35.4613 112.655 35.8092 114.357 36.3408C119.266 37.8775 121.77 41.4149 122.543 46.3538C122.765 47.7939 122.842 49.234 122.833 50.6837C122.813 56.1542 122.823 61.6343 122.823 67.1047C122.823 67.5686 122.823 68.0229 122.823 68.5545C119.73 68.5545 116.724 68.5545 113.728 68.5545C113.506 68.0325 113.612 67.5686 113.603 67.1047C113.574 61.9146 113.574 56.7147 113.545 51.5246C113.535 49.9299 113.313 48.3641 112.762 46.8467C111.94 44.5368 110.288 43.261 107.891 43.0193C104.962 42.7197 102.014 42.942 98.9794 42.884C98.9794 51.4569 98.9794 59.9525 98.9794 68.5351C95.7899 68.5351 92.6874 68.5351 89.4883 68.5351Z" fill="white"/>
<path d="M266.553 68.5649C263.044 68.5649 259.787 68.5649 256.501 68.5649C255.699 66.6899 255.303 64.7085 254.452 62.8818C249.32 62.8818 244.236 62.8818 239.085 62.8818C238.398 64.7858 237.722 66.6609 237.036 68.5746C233.972 68.5746 230.947 68.5746 227.738 68.5746C232.106 57.479 236.436 46.4899 240.776 35.4717C244.98 35.4717 249.136 35.4717 253.399 35.4717C257.767 46.4319 262.126 57.4114 266.553 68.5649ZM247.087 42.0729C246.981 42.0633 246.865 42.0536 246.759 42.0536C244.903 46.9924 243.047 51.9313 241.163 56.9571C245.029 56.9571 248.663 56.9571 252.5 56.9571C250.673 51.912 248.885 46.9924 247.087 42.0729Z" fill="white"/>
<path d="M149.567 35.4717C152.775 35.4717 155.897 35.4717 159.203 35.4717C155.607 46.5382 152.041 57.5274 148.465 68.5552C143.922 68.5552 139.447 68.5552 134.837 68.5552C131.309 57.595 127.762 46.6058 124.186 35.5103C127.617 35.5103 130.952 35.5103 134.373 35.5103C136.809 44.0639 139.254 52.6272 141.689 61.1904C141.757 61.2001 141.825 61.2098 141.892 61.2291C144.454 52.6368 147.005 44.0543 149.567 35.4717Z" fill="white"/>
<path d="M163.108 35.4824C166.278 35.4824 169.352 35.4824 172.473 35.4824C172.473 46.5006 172.473 57.4705 172.473 68.5273C169.371 68.5273 166.278 68.5273 163.108 68.5273C163.108 57.5381 163.108 46.5779 163.108 35.4824Z" fill="white"/>
<path d="M214.681 35.4824C217.802 35.4824 220.828 35.4824 223.911 35.4824C223.911 46.5006 223.911 57.4705 223.911 68.537C220.857 68.537 217.802 68.537 214.681 68.537C214.681 57.5478 214.681 46.5683 214.681 35.4824Z" fill="white"/>
<path d="M274.489 66.7175C274.479 68.4572 273.242 69.6847 271.473 69.6847C269.656 69.6847 268.313 68.3606 268.361 66.6305C268.409 64.9391 269.714 63.7407 271.502 63.76C273.31 63.7697 274.489 64.9391 274.489 66.7175ZM272.623 65.3644C273.097 66.0893 272.73 66.6402 272.188 67.1041C272.488 67.5004 272.556 67.9546 273 68.0996C273.822 66.7658 273.803 66.3792 272.846 65.1518C271.937 64.4945 270.526 64.5332 269.84 65.2388C269.212 65.8863 269.163 67.3361 269.772 68.0706C269.908 68.2349 270.101 68.5925 270.391 68.1866C270.188 68.3122 270.168 68.4766 270.381 68.5925C271.174 69.0468 271.957 69.0275 272.904 68.3412C271.763 68.5442 271.734 67.5487 271.251 67.1718C270.661 67.3457 271.415 68.5055 270.352 68.2156C270.081 67.2298 270.275 66.2343 270.226 65.1421C271.116 65.2098 271.889 64.9778 272.623 65.3644Z" fill="white"/>
</g>
</svg>
