<svg width="198" height="128" viewBox="0 0 198 128" fill="none" xmlns="http://www.w3.org/2000/svg">
<path d="M145.103 101.787L145.285 106.739L177.212 125.133L180.249 125.133C181.263 125.133 181.635 123.801 180.768 123.279L145.103 101.787Z" fill="white"/>
<path d="M53.1873 101.787L53.0057 106.739L21.0788 125.133L18.0415 125.133C17.0277 125.133 16.6553 123.801 17.5229 123.279L53.1873 101.787Z" fill="white"/>
<path d="M187.962 113.762H10.1041C4.55017 113.762 0 109.038 0 103.271V102.785H197.999V103.271C198.066 109.107 193.516 113.762 187.962 113.762Z" fill="#D8E0EB"/>
<path d="M78.7832 106.41L81.4216 110.608H118.288L120.712 106.41H78.7832Z" fill="white"/>
<path d="M198 106.777H0L0.152456 4.99251C0.156588 2.23401 2.39395 0 5.15245 0H193C195.761 0 198 2.23858 198 5V106.777Z" fill="#1B1E27"/>
<mask id="mask0_1943_138" style="mask-type:alpha" maskUnits="userSpaceOnUse" x="0" y="0" width="198" height="107">
<path d="M198 106.777H0L0.152456 4.99251C0.156588 2.23401 2.39395 0 5.15245 0H193C195.761 0 198 2.23858 198 5V106.777Z" fill="#1B1E27"/>
</mask>
<g mask="url(#mask0_1943_138)">
<mask id="mask1_1943_138" style="mask-type:alpha" maskUnits="userSpaceOnUse" x="98" y="1" width="93" height="75">
<path d="M98.7068 1H190.663V75.5435H98.7068V1Z" fill="url(#paint0_linear_1943_138)"/>
</mask>
<g mask="url(#mask1_1943_138)">
<path d="M167.371 145.841C167.635 146.678 167.869 147.455 168.118 148.233C168.192 148.218 168.265 148.218 168.338 148.204C168.338 147.03 168.338 145.841 168.338 144.667C168.411 144.653 168.485 144.623 168.573 144.609C168.807 145.093 169.041 145.592 169.261 146.076C169.305 146.076 169.349 146.061 169.393 146.061C169.393 145.636 169.437 145.21 169.378 144.799C169.217 143.449 169.012 142.085 168.88 140.735C168.836 140.221 168.983 139.678 168.953 139.165C168.895 138.372 168.807 137.58 168.631 136.802C168.441 135.936 168.148 135.085 167.913 134.234C167.386 132.268 167.005 130.243 166.331 128.335C165.73 126.633 165.628 124.902 165.51 123.155C165.496 122.979 165.569 122.759 165.686 122.612C166.111 122.025 166.258 121.438 165.833 120.719C166.77 120.397 166.697 119.59 166.844 118.856C167.166 117.359 167.063 116.009 165.965 114.806C165.32 114.102 164.822 113.294 164.221 112.561C164.031 112.326 163.767 112.179 163.532 112.003C164.148 110.228 163.972 108.437 163.518 106.647C163.43 106.31 163.21 105.987 162.99 105.708C161.965 104.373 160.91 103.052 159.899 101.717C159.738 101.511 159.577 101.159 159.635 100.939C160.031 99.6036 159.533 98.3857 159.196 97.1531C159.064 96.6395 158.932 96.1112 158.917 95.583C158.859 92.2079 158.419 88.877 157.892 85.5606C157.848 85.3259 157.965 85.003 158.126 84.7976C158.566 84.196 159.049 83.609 159.562 83.0661C159.738 82.8753 160.031 82.8019 160.368 82.6112C160.177 84.4161 159.005 85.6047 158.346 87.1454C158.536 87.1014 158.697 87.1161 158.815 87.0427C160.368 85.9862 161.906 84.8856 162.639 83.0514C162.683 82.934 162.785 82.8313 162.8 82.7286C162.873 81.6133 163.664 81.0411 164.47 80.4688C164.602 80.3661 164.748 80.2633 164.866 80.1313C166.551 78.2237 168.236 76.316 169.935 74.3938C170.184 74.1149 170.419 73.8361 170.682 73.6014C171.034 73.2932 171.195 73.0144 170.961 72.5302C170.873 72.3541 170.99 71.9872 171.137 71.8405C171.928 71.0334 172.338 70.0209 172.719 68.9791C172.792 68.7736 172.895 68.5242 172.836 68.3481C172.543 67.3796 173.041 66.6606 173.51 65.9122C175.005 63.4176 175.415 60.6589 175.693 57.8855C175.722 57.6214 175.503 57.3279 175.385 57.0198C174.184 57.6801 173.671 59.0888 172.177 59.2502C171.854 58.2084 172.587 57.3426 172.616 56.3154C172.074 56.6236 171.547 56.9317 170.887 57.2986C171.137 56.2714 171.327 55.3763 171.561 54.4959C172.03 52.735 171.854 51.0622 170.902 49.492C170.213 48.3475 169.466 47.2322 168.792 46.073C168.016 44.723 167.313 43.3436 166.58 41.979C166.829 41.7589 166.976 41.6268 167.107 41.4947C167.649 40.9224 167.972 40.3208 167.664 39.455C167.049 37.6795 166.521 35.8746 165.921 34.099C165.642 33.248 165.335 33.1452 164.47 33.4387C163.913 33.6295 163.371 33.8202 162.785 34.0257C162.727 33.8789 162.683 33.7762 162.653 33.6588C162.302 32.4849 162.346 32.5289 163.327 31.7365C164.558 30.7534 165.129 29.374 165.173 27.8186C165.232 25.8816 164.851 24.018 163.43 22.624C162.36 21.5822 161.1 20.6137 159.547 20.4816C158.668 20.4082 157.98 20.3202 157.364 19.6158C156.705 18.8528 155.782 18.7501 154.815 18.9849C154.566 19.0436 154.302 19.0289 153.936 19.0436C154.097 18.7207 154.199 18.5153 154.302 18.2952C153.247 16.6517 151.591 15.9473 149.789 15.5071C149.584 15.4484 149.364 15.3017 149.218 15.1256C148.676 14.5386 148.148 13.9957 147.255 14.0544C146.742 14.0984 146.229 14.0544 145.716 14.0544C144.94 14.0544 144.573 13.8196 144.544 13.0712C144.486 11.4571 143.753 10.1365 142.889 8.84515C142.112 7.6859 141.438 6.45329 140.676 5.19133C140.676 5.19133 140.53 5.27937 140.31 5.39677C139.211 3.7973 137.629 2.79947 135.885 1.96306C133.98 1.05327 132.046 0.701096 130.01 1.28805C128.721 1.6549 127.929 2.68208 127.182 3.70926C126.874 4.14948 126.611 4.61904 126.274 5.04459C125.922 5.48481 125.512 5.89568 125.058 6.37992C125.321 6.71742 125.087 6.93753 124.677 7.21634C123.461 8.05275 122.289 8.94787 120.999 9.887C121.615 10.2392 122.23 10.606 122.948 11.0022C122.713 11.4571 122.464 11.9707 122.215 12.4843C122.684 12.8365 123.124 13.1593 123.578 13.5115C123.534 13.7169 123.475 13.9517 123.417 14.2452C123.197 14.2892 122.948 14.3332 122.596 14.3919C123.461 15.5658 124.281 16.681 125.19 17.9137C124.794 17.9724 124.545 18.0164 124.047 18.0897C124.721 18.7501 125.292 19.3077 125.878 19.8946C125.761 19.9533 125.585 20.0414 125.409 20.1294C125.424 20.2028 125.409 20.2908 125.453 20.3349C126.098 21.0539 126.728 21.8023 127.417 22.4773C127.9 22.9468 128.325 23.3724 127.754 24.1501C128.296 24.2381 128.735 24.2968 129.307 24.3849C129.043 24.6637 128.823 24.8544 128.662 25.0599C127.68 26.2631 126.669 27.4371 125.732 28.6843C125.175 29.4327 125.263 29.5941 126.127 30.0931C125.658 30.9588 125.058 31.7659 124.735 32.6757C123.856 35.0529 123.373 37.5181 123.607 40.0713C123.842 42.5806 123.138 44.9578 122.713 47.379C122.582 48.1274 122.113 48.817 121.761 49.6388C120.34 50.1524 119.27 51.2529 118.465 52.7056C117.966 53.6007 117.263 54.3931 116.516 55.1709C116.56 54.9507 116.618 54.7453 116.662 54.5252C115.857 53.7622 115.769 53.7475 114.831 54.2757C114.142 54.6719 113.395 54.9801 112.75 55.4497C112.326 55.7578 112.076 56.3154 111.696 56.7116C111.168 57.2546 110.611 57.7975 110.025 58.2817C109.088 59.0448 108.121 59.7345 107.241 60.5855C106.318 61.466 106.011 62.3611 105.938 63.491C105.879 64.4155 106.04 65.4426 105.674 66.235C105.19 67.2916 105.351 68.3334 105.22 69.3753C105.19 69.6247 105.322 69.8888 105.381 70.1383C105.439 70.1383 105.498 70.1383 105.557 70.1383C105.835 69.61 106.113 69.0671 106.392 68.5388C106.465 68.5242 106.538 68.5095 106.611 68.4948C106.802 69.0084 107.139 69.5367 107.154 70.0503C107.168 70.7693 107.476 71.2389 107.93 71.7084C108.37 72.1486 108.795 72.6035 109.234 73.0438C109.293 73.0144 109.351 72.9851 109.425 72.9557C109.293 72.4421 109.175 71.9285 109.029 71.3122C109.63 71.5617 110.113 71.7084 110.304 72.3981C110.582 73.484 111.403 74.0416 112.604 74.1296C112.384 73.3519 112.164 72.5595 111.945 71.7818C112.018 71.7378 112.091 71.6937 112.164 71.635C112.384 71.6937 112.619 71.7524 112.838 71.8111C113 71.8552 113.234 71.9872 113.307 71.9285C113.879 71.459 114.538 71.8405 115.124 71.6937C115.402 71.6204 115.827 71.4443 115.842 71.2682C115.871 71.0041 115.695 70.6225 115.476 70.4171C114.904 69.8888 114.919 69.7274 115.432 69.1258C116.223 68.1867 117.073 67.2622 117.234 65.9562C117.248 65.8829 117.248 65.7655 117.278 65.7655C118.157 65.5013 118.157 64.5182 118.699 64.0193C119.3 63.4763 119.988 63.0214 120.633 62.5225C120.838 62.3611 121.146 62.1997 121.19 61.9943C121.395 61.1872 122.01 60.8497 122.669 60.4975C123.549 60.0279 124.384 59.4997 125.38 59.0741C124.94 59.8665 124.457 60.6443 124.061 61.4513C123.856 61.8769 123.812 62.3758 123.695 62.8453C123.534 63.5203 123.549 64.2981 123.197 64.8557C120.926 68.5388 119.578 72.6035 118.113 76.6535C116.677 80.5715 115.871 84.5775 115.534 88.7009C115.505 88.9944 115.505 89.3172 115.373 89.552C114.699 90.7406 114.553 92.0612 114.435 93.3525C114.347 94.3503 114.626 95.3775 114.758 96.3754C114.816 96.8156 115.007 97.2558 114.948 97.6667C114.597 100.147 114.919 102.582 115.183 105.033C115.197 105.194 115.139 105.356 115.095 105.517C114.772 106.72 114.45 107.909 114.128 109.112C114.113 109.156 114.084 109.215 114.113 109.259C114.553 110.257 113.717 110.829 113.366 111.578C112.648 113.118 111.989 114.674 111.285 116.273C111.505 116.391 111.681 116.479 111.857 116.567C111.871 116.64 111.901 116.699 111.901 116.728C111.417 118.005 111.989 119.032 112.663 120.059C112.794 120.265 112.912 120.587 112.868 120.822C112.56 122.231 112.12 123.522 111.036 124.623C109.556 126.134 108.003 127.528 106.172 128.599C105.571 128.952 105.117 129.553 104.531 129.92C104.267 130.096 103.784 130.111 103.476 129.993C101.923 129.421 100.516 130.668 100.253 131.828C100.004 132.987 99.9158 134.19 99.7985 135.379C99.7692 135.672 99.9304 135.98 99.9744 136.156C99.0806 137.213 98.2015 138.255 97.3371 139.297C97.3957 139.355 97.4543 139.429 97.5276 139.487C98.5532 138.856 99.3883 137.844 100.956 137.859C99.4616 138.607 99.022 139.942 98.436 141.19C99.652 139.928 101.132 139.165 102.729 138.739C102.084 139.884 101.425 141.058 100.766 142.217C100.824 142.261 100.883 142.305 100.941 142.349C102.436 140.837 103.828 139.15 106.318 139.267C106.025 140.104 105.762 140.881 105.483 141.659C107.08 139.561 109.278 138.695 111.827 138.196C111.637 138.798 111.476 139.297 111.329 139.796C112.692 138.27 114.289 137.228 116.355 136.773C116.252 137.36 116.164 137.873 116.047 138.519C117.952 135.658 120.413 134.645 123.842 135.731C123.197 135.056 122.684 134.513 122.083 133.882C123.168 133.354 124.296 133.178 125.541 133.941C124.882 132.855 124.75 132.752 122.889 132.033C122.992 131.358 123.08 130.654 123.197 129.964C123.358 129.069 123.05 128.35 122.391 127.734C122.215 127.558 122.157 127.249 122.098 126.985C122.025 126.677 122.083 126.325 121.937 126.075C121.761 125.753 121.263 125.518 121.234 125.224C121.146 123.904 121.014 122.51 122.01 121.424C122.333 121.072 122.875 120.94 123.285 120.646C123.607 120.426 123.842 120.03 124.179 119.883C125.072 119.487 124.999 118.445 125.57 117.873C126.23 117.198 126.625 116.391 126.669 115.466C126.699 114.586 126.874 113.603 125.981 112.957C125.922 112.913 125.849 112.781 125.864 112.707C126.039 111.886 125.746 110.917 126.655 110.33C126.977 110.125 127.226 109.802 127.461 109.479C127.871 108.892 128.296 108.203 127.959 107.513C127.021 105.591 127.065 103.478 126.699 101.453C126.596 100.866 126.611 100.381 127.036 99.9118C127.182 99.7504 127.211 99.4275 127.226 99.1634C127.299 98.2243 127.461 97.2998 128.266 96.6835C129.526 95.715 129.907 94.3063 130.2 92.8683C130.772 90.0509 131.241 87.2041 131.827 84.3867C132.193 82.6405 133.043 81.1291 134.42 79.9552C135.153 80.6302 135.87 81.2758 136.574 81.9362C136.662 82.0242 136.764 82.171 136.852 82.1563C137.673 82.0976 137.717 82.7726 137.936 83.2715C138.361 84.2253 138.845 85.1644 139.196 86.1476C139.475 86.9253 139.519 87.7911 139.826 88.5395C140.618 90.4471 141.497 92.3253 142.376 94.1889C143.343 96.2286 144.295 98.283 145.35 100.279C146.83 103.052 148.412 105.767 149.921 108.511C150.141 108.907 150.361 109.421 150.302 109.846C150.097 111.284 150.39 112.487 151.474 113.5C152.016 114.013 152.383 114.468 151.767 115.349C151.372 115.906 151.606 116.904 151.548 117.697C151.548 117.77 151.548 117.843 151.577 117.917C151.972 118.709 151.152 119.56 151.767 120.367C152.265 121.013 152.69 121.732 153.086 122.451C153.687 123.522 154.756 123.845 155.752 124.329C156.016 124.447 156.339 124.652 156.426 124.887C156.851 126.149 157.291 127.425 157.569 128.731C157.716 129.392 157.525 130.111 157.467 130.8C157.379 131.696 157.262 132.591 157.159 133.486C157.13 133.706 157.174 133.985 157.056 134.117C156.397 134.85 156.412 135.775 156.324 136.67C156.133 138.754 155.972 140.852 155.811 142.951C155.767 143.479 155.811 144.007 155.811 144.638C155.958 144.462 156.046 144.345 156.192 144.154C156.031 145.43 155.87 146.634 155.709 147.837C155.782 147.852 155.84 147.881 155.914 147.896C156.353 147.03 156.778 146.164 157.188 145.328C157.335 145.342 157.364 145.342 157.379 145.357C158.404 145.68 158.566 146.34 158.375 147.367C158.199 148.336 158.331 149.363 158.331 150.581C158.917 149.143 159.415 147.881 159.899 146.707C160.104 146.663 160.148 146.634 160.192 146.648C161.672 146.971 161.657 146.971 161.833 148.527C161.906 149.231 162.038 149.921 162.155 150.625C162.17 150.713 162.228 150.801 162.331 151.065C162.565 149.891 162.8 148.879 162.946 147.866C163.034 147.221 163.357 146.971 163.972 146.912C165.217 146.78 165.232 146.751 165.628 147.94C165.891 148.732 166.126 149.524 166.375 150.317C166.389 150.346 166.448 150.361 166.551 150.434C166.551 149.348 166.595 148.321 166.536 147.294C166.521 146.634 166.639 146.149 167.371 145.841ZM148.793 56.0513C149.013 56.0806 149.145 56.1247 149.247 56.11C150.097 56.0073 151.02 56.1247 151.46 55.0388C151.958 53.8209 152.632 52.6763 153.174 51.4877C153.306 51.1942 153.262 50.8127 153.276 50.5339C154.112 49.0078 154.961 47.467 155.767 45.9996C156.133 46.2784 156.426 46.5279 156.749 46.748C156.939 46.8801 157.218 46.9241 157.335 47.1002C157.98 48.0687 158.61 49.0665 159.196 50.0643C159.562 50.6953 160.089 51.3263 160.163 52.0013C160.338 53.5127 160.28 55.0535 160.294 56.5649C160.309 58.3404 160.294 60.116 160.294 61.9356C159.664 61.9649 159.533 62.4932 159.606 63.1535C159.65 63.6671 159.723 64.1807 159.723 64.6796C159.723 65.7361 159.694 66.7926 159.664 67.6437C156.514 69.0231 154.155 70.7693 153.921 74.4084C153.218 73.3959 152.573 72.5448 152.031 71.6204C151.621 70.916 151.24 70.153 151.035 69.3753C150.478 67.2182 150.009 65.0464 149.54 62.9921C149.584 62.7133 149.672 62.5078 149.643 62.3318C149.482 61.5687 149.291 60.8203 149.115 60.0573C148.94 59.3236 149.482 58.3845 148.515 57.8562C148.485 57.8415 148.5 57.7682 148.5 57.7095C148.632 57.1812 148.705 56.6236 148.793 56.0513Z" fill="#0C0D0E"/>
</g>
<path d="M18.9783 23.3044H55.2718V27.511H18.9783V23.3044Z" fill="#282B33"/>
<path d="M18.9783 29.4675H77.3804V35.7284H18.9783V29.4675Z" fill="#282B33"/>
<path d="M18.9783 66.0544C18.9783 65.5142 19.4163 65.0762 19.9565 65.0762H52.2391C52.7794 65.0762 53.2174 65.5142 53.2174 66.0544V98.337C53.2174 98.8773 52.7794 99.3153 52.2391 99.3153H19.9565C19.4163 99.3153 18.9783 98.8773 18.9783 98.337V66.0544Z" fill="#2632A5"/>
<path d="M55.1738 66.0544C55.1738 65.5142 55.6118 65.0762 56.1521 65.0762H88.4347C88.975 65.0762 89.413 65.5142 89.413 66.0544V98.337C89.413 98.8773 88.975 99.3153 88.4347 99.3153H56.1521C55.6118 99.3153 55.1738 98.8773 55.1738 98.337V66.0544Z" fill="#2632A5"/>
<path d="M91.3696 66.0544C91.3696 65.5142 91.8076 65.0762 92.3479 65.0762H124.631C125.171 65.0762 125.609 65.5142 125.609 66.0544V98.337C125.609 98.8773 125.171 99.3153 124.631 99.3153H92.3479C91.8076 99.3153 91.3696 98.8773 91.3696 98.337V66.0544Z" fill="#2632A5"/>
<path d="M127.565 66.0544C127.565 65.5142 128.003 65.0762 128.543 65.0762H160.826C161.366 65.0762 161.804 65.5142 161.804 66.0544V98.337C161.804 98.8773 161.366 99.3153 160.826 99.3153H128.543C128.003 99.3153 127.565 98.8773 127.565 98.337V66.0544Z" fill="#2632A5"/>
<path d="M163.761 66.0544C163.761 65.5142 164.199 65.0762 164.739 65.0762H197.022C197.562 65.0762 198 65.5142 198 66.0544V98.337C198 98.8773 197.562 99.3153 197.022 99.3153H164.739C164.199 99.3153 163.761 98.8773 163.761 98.337V66.0544Z" fill="#2632A5"/>
<g filter="url(#filter0_b_1943_138)">
<path d="M18.9783 57.25H41.1848V62.1413H18.9783V57.25Z" fill="#282B33"/>
</g>
<path d="M0 106.652H14.1522V1.00016H0V106.652Z" fill="url(#paint1_linear_1943_138)"/>
<path fill-rule="evenodd" clip-rule="evenodd" d="M7.07613 42.2076L7.02499 42.3556C6.94134 42.5977 6.71214 42.741 6.4768 42.741H6.38068L6.43737 42.7797C6.64146 42.9192 6.7401 43.1802 6.65458 43.4277L6.61999 43.5279L6.74514 43.4423C6.94399 43.3065 7.20827 43.3065 7.40711 43.4423L7.53226 43.5279L7.49767 43.4277C7.41215 43.1802 7.51079 42.9192 7.71488 42.7797L7.77158 42.741H7.67546C7.44012 42.741 7.21091 42.5977 7.12727 42.3556L7.07613 42.2076ZM7.67546 42.3497C7.59422 42.3497 7.52222 42.3005 7.49712 42.2278L7.25446 41.5254C7.19833 41.3629 6.95392 41.3629 6.89779 41.5254L6.65513 42.2278C6.63003 42.3005 6.55803 42.3497 6.4768 42.3497H5.69154C5.50989 42.3497 5.43436 42.5683 5.58132 42.6687L6.21661 43.1028C6.28233 43.1477 6.30983 43.2273 6.28472 43.3L6.04207 44.0023C5.98593 44.1648 6.18366 44.2999 6.33062 44.1995L6.96591 43.7654C7.03163 43.7205 7.12062 43.7205 7.18634 43.7654L7.82163 44.1995C7.96859 44.2999 8.16632 44.1648 8.11019 44.0023L7.86753 43.3C7.84242 43.2273 7.86993 43.1477 7.93565 43.1028L8.57093 42.6687C8.71789 42.5683 8.64237 42.3497 8.46072 42.3497H7.67546Z" fill="white"/>
<path opacity="0.5" fill-rule="evenodd" clip-rule="evenodd" d="M8.05685 49.7628L8.05658 49.7622C7.96369 49.5579 7.91388 49.4871 7.82116 49.4473C7.74113 49.4135 7.65988 49.4158 7.58381 49.4525C7.43246 49.5261 7.26158 49.5729 7.08051 49.5739C6.89565 49.5749 6.72108 49.5274 6.56739 49.4523C6.49126 49.4154 6.40995 49.4134 6.33202 49.4469L6.33164 49.4471C6.23841 49.487 6.18886 49.5574 6.0958 49.7622L6.09551 49.7628C6.06105 49.8382 5.99532 49.9821 5.93546 50.146C5.87355 50.3156 5.8276 50.4811 5.81926 50.603L5.81923 50.6035C5.80741 50.7728 5.89185 50.8961 6.00767 50.9449L6.0078 50.945C6.10568 50.9863 6.20769 50.9675 6.29267 50.8643C6.36195 50.7764 6.45311 50.6805 6.55962 50.5995C6.66464 50.5195 6.80352 50.4396 6.96521 50.413L6.99056 50.4088H7.16115L7.18649 50.413C7.34956 50.4398 7.48885 50.5203 7.59427 50.601C7.70106 50.6828 7.79193 50.7791 7.86116 50.8664C7.92201 50.94 7.98959 50.9656 8.04807 50.9656C8.07654 50.9656 8.10896 50.9598 8.14359 50.9451L8.14404 50.9449C8.25974 50.8961 8.34441 50.7728 8.33311 50.6032C8.32442 50.4809 8.27837 50.3153 8.21661 50.1459C8.15681 49.9819 8.09119 49.8379 8.05685 49.7628ZM8.64686 50.5816C8.66652 50.8725 8.51714 51.1289 8.26623 51.2347C8.19416 51.2652 8.12013 51.2801 8.04807 51.2801C7.88625 51.2801 7.73164 51.2049 7.61634 51.0638C7.50187 50.9189 7.32253 50.7541 7.13547 50.7233H7.01624C6.83141 50.7537 6.65073 50.9174 6.53799 51.0611C6.36962 51.2679 6.12002 51.3337 5.88548 51.2347C5.63456 51.1289 5.48519 50.8725 5.5055 50.5816C5.5284 50.247 5.73946 49.7852 5.8092 49.6327L5.80948 49.6321C5.90056 49.4317 5.9915 49.2506 6.2078 49.158C6.37028 49.0881 6.54716 49.0929 6.70505 49.1695C6.82193 49.2267 6.94906 49.2601 7.0788 49.2594C7.20657 49.2587 7.3314 49.2256 7.44666 49.1695C7.6052 49.0929 7.78143 49.0888 7.94456 49.158C8.1606 49.2505 8.25183 49.4318 8.34288 49.6321C8.41232 49.784 8.62327 50.2465 8.64686 50.5816Z" fill="#EEEEEE"/>
<g opacity="0.5">
<path d="M7.96004 56.2562L7.93025 56.2761C7.82855 56.3528 7.73777 56.4219 7.65664 56.4839C7.51634 56.4108 7.36053 56.3634 7.19544 56.3478V56.0643C7.19544 56.0245 7.23185 55.9947 7.27157 55.9981C7.52313 56.0278 7.75813 56.1205 7.96004 56.2562Z" fill="#EEEEEE"/>
<path d="M8.17223 56.9825C8.25265 57.1249 8.30613 57.2845 8.32574 57.4544H8.58219C8.62191 57.4544 8.6517 57.418 8.64839 57.3783C8.6186 57.1234 8.52592 56.8884 8.39021 56.6865C8.38842 56.6919 8.38469 56.6973 8.38059 56.7032C8.37712 56.7082 8.37339 56.7136 8.37035 56.7196C8.33874 56.7615 8.30855 56.8016 8.27967 56.8399L8.27659 56.844C8.23975 56.8929 8.20505 56.939 8.17223 56.9825Z" fill="#EEEEEE"/>
<path d="M8.33098 57.6895C8.31254 57.9524 8.21333 58.193 8.05801 58.3867L8.22475 58.5534C8.25454 58.5832 8.30088 58.5799 8.32405 58.5468C8.50278 58.3217 8.61201 58.0536 8.64842 57.7656C8.65173 57.7259 8.62194 57.6895 8.58222 57.6895H8.33098Z" fill="#EEEEEE"/>
<path d="M6.0957 58.3885C5.94018 58.1953 5.84058 57.9552 5.8215 57.6927H5.5668C5.53039 57.6894 5.5006 57.7258 5.50391 57.7655C5.53701 58.0535 5.64955 58.3216 5.82829 58.55C5.85146 58.5798 5.90111 58.5831 5.92759 58.5566L6.0957 58.3885Z" fill="#EEEEEE"/>
<path d="M5.82651 57.4544C5.85592 57.1996 5.96148 56.9679 6.11987 56.7828L5.92758 56.5905C5.8978 56.5608 5.85146 56.5641 5.82829 56.5972C5.65617 56.8156 5.54032 57.087 5.50391 57.3783C5.5006 57.418 5.53039 57.4544 5.57011 57.4544H5.82651Z" fill="#EEEEEE"/>
<path d="M6.29143 56.6169C6.47821 56.4677 6.70846 56.3705 6.96013 56.3475V56.0609C6.96013 56.0245 6.92373 55.9947 6.88401 55.9981C6.59273 56.0345 6.32132 56.1503 6.10286 56.3224C6.07307 56.3456 6.06976 56.3952 6.09624 56.4217L6.29143 56.6169Z" fill="#EEEEEE"/>
<path d="M8.06914 56.4647C8.14526 56.4117 8.23794 56.5044 8.18167 56.5772C8.13689 56.6363 8.09001 56.6983 8.04243 56.7612C7.83679 57.0332 7.6181 57.3224 7.49983 57.4676C7.50645 57.5007 7.51307 57.5338 7.51307 57.5702C7.51307 57.8118 7.31778 58.0071 7.07616 58.0071C6.83453 58.0071 6.63925 57.8118 6.63925 57.5702C6.63925 57.3286 6.83453 57.1333 7.07616 57.1333C7.11257 57.1333 7.14566 57.1399 7.17876 57.1465C7.3575 57.0042 7.75469 56.703 8.06914 56.4647Z" fill="#EEEEEE"/>
</g>
<g opacity="0.5">
<path fill-rule="evenodd" clip-rule="evenodd" d="M7.0384 64.1828C7.18489 64.1828 7.30365 64.064 7.30365 63.9175C7.30365 63.7711 7.18489 63.6523 7.0384 63.6523C6.8919 63.6523 6.77314 63.7711 6.77314 63.9175C6.77314 64.064 6.8919 64.1828 7.0384 64.1828ZM7.0384 64.5741C7.40101 64.5741 7.69496 64.2802 7.69496 63.9175C7.69496 63.5549 7.40101 63.261 7.0384 63.261C6.67579 63.261 6.38184 63.5549 6.38184 63.9175C6.38184 64.2802 6.67579 64.5741 7.0384 64.5741Z" fill="white"/>
<path fill-rule="evenodd" clip-rule="evenodd" d="M7.95902 66.0076C7.93618 65.5189 7.53266 65.1296 7.03822 65.1296C6.54378 65.1296 6.14026 65.5189 6.11742 66.0076C6.12514 66.0086 6.13377 66.0095 6.14336 66.0103C6.23179 66.018 6.34751 66.0147 6.50795 66.0068C6.52929 66.0058 6.55128 66.0046 6.57387 66.0035C6.71191 65.9965 6.87198 65.9884 7.03822 65.9884C7.20446 65.9884 7.36453 65.9965 7.50257 66.0035C7.52516 66.0046 7.54715 66.0058 7.56849 66.0068C7.72893 66.0147 7.84465 66.018 7.93308 66.0103C7.94267 66.0095 7.9513 66.0086 7.95902 66.0076ZM7.48134 66.3942C7.98852 66.4199 8.35134 66.4382 8.35134 66.0514C8.35134 65.3262 7.76344 64.7383 7.03822 64.7383C6.313 64.7383 5.7251 65.3262 5.7251 66.0514C5.7251 66.4382 6.08792 66.4199 6.5951 66.3942C6.73353 66.3872 6.88272 66.3797 7.03822 66.3797C7.19372 66.3797 7.34291 66.3872 7.48134 66.3942Z" fill="white"/>
</g>
<g filter="url(#filter1_b_1943_138)">
<path d="M3.85254 8.07608C3.85254 6.33919 5.26057 4.93115 6.99747 4.93115C8.73436 4.93115 10.1424 6.33919 10.1424 8.07608C10.1424 9.81298 8.73436 11.221 6.99747 11.221C5.26057 11.221 3.85254 9.81298 3.85254 8.07608Z" fill="#9B99AD" fill-opacity="0.15"/>
</g>
<path fill-rule="evenodd" clip-rule="evenodd" d="M7.318 8.7168C7.14638 8.80959 7.00967 8.8389 6.83358 8.8389C6.27165 8.8389 5.81815 8.38541 5.81815 7.82853C5.81815 7.27164 6.27165 6.81815 6.83358 6.81815C7.39551 6.81815 7.84901 7.27164 7.84901 7.82853C7.84901 8.08961 7.74988 8.32709 7.58626 8.50674C7.49478 8.60717 7.43505 8.65352 7.318 8.7168ZM7.81876 8.71851C8.03297 8.48333 8.1635 8.17111 8.1635 7.82853C8.1635 7.09682 7.56807 6.50366 6.83358 6.50366C6.09909 6.50366 5.50366 7.09682 5.50366 7.82853C5.50366 8.56023 6.09909 9.15339 6.83358 9.15339C7.06321 9.15339 7.27924 9.09542 7.46773 8.99336L8.06054 9.58392C8.1471 9.67015 8.28745 9.67015 8.37401 9.58392C8.46057 9.49768 8.46057 9.35787 8.37401 9.27164L7.81876 8.71851Z" fill="#EEEEEE"/>
</g>
<defs>
<filter id="filter0_b_1943_138" x="8.97827" y="47.25" width="42.2065" height="24.8914" filterUnits="userSpaceOnUse" color-interpolation-filters="sRGB">
<feFlood flood-opacity="0" result="BackgroundImageFix"/>
<feGaussianBlur in="BackgroundImage" stdDeviation="5"/>
<feComposite in2="SourceAlpha" operator="in" result="effect1_backgroundBlur_1943_138"/>
<feBlend mode="normal" in="SourceGraphic" in2="effect1_backgroundBlur_1943_138" result="shape"/>
</filter>
<filter id="filter1_b_1943_138" x="-6.14746" y="-5.06885" width="26.2898" height="26.2898" filterUnits="userSpaceOnUse" color-interpolation-filters="sRGB">
<feFlood flood-opacity="0" result="BackgroundImageFix"/>
<feGaussianBlur in="BackgroundImage" stdDeviation="5"/>
<feComposite in2="SourceAlpha" operator="in" result="effect1_backgroundBlur_1943_138"/>
<feBlend mode="normal" in="SourceGraphic" in2="effect1_backgroundBlur_1943_138" result="shape"/>
</filter>
<linearGradient id="paint0_linear_1943_138" x1="144.685" y1="45.2367" x2="144.685" y2="71.0257" gradientUnits="userSpaceOnUse">
<stop stop-color="#C4C4C4"/>
<stop offset="1" stop-color="#C4C4C4" stop-opacity="0"/>
</linearGradient>
<linearGradient id="paint1_linear_1943_138" x1="14.1522" y1="45.6631" x2="-7.44532e-08" y2="45.6631" gradientUnits="userSpaceOnUse">
<stop stop-color="#191B20" stop-opacity="0"/>
<stop offset="1" stop-color="#191B20" stop-opacity="0.8"/>
</linearGradient>
</defs>
</svg>
