<svg width="153" height="128" viewBox="0 0 153 128" fill="none" xmlns="http://www.w3.org/2000/svg">
<mask id="mask0_1943_304" style="mask-type:alpha" maskUnits="userSpaceOnUse" x="0" y="0" width="153" height="128">
<rect width="153" height="128" fill="url(#paint0_linear_1943_304)"/>
</mask>
<g mask="url(#mask0_1943_304)">
<path d="M130.09 314.174H23.2061C10.3327 314.174 0 303.82 0 290.92V23.2533C0 10.3537 10.502 0 23.2061 0H130.09C142.963 0 153.296 10.3537 153.296 23.2533V290.92C153.296 303.82 142.794 314.174 130.09 314.174Z" fill="#D8E0EB"/>
<path d="M130.125 7.97742L109.29 7.80768C106.58 7.80768 104.209 10.1839 104.209 13.0694V16.8035C104.209 19.6889 102.007 22.0652 99.1269 22.0652L58.6433 21.8954C55.9331 21.8954 53.5616 19.5192 53.5616 16.6337V12.8996C53.5616 10.0142 51.3596 7.63794 48.48 7.63794H41.1964H23.0719C14.0944 7.63794 6.64128 14.9364 6.64128 23.9322L5.625 286.677C5.625 295.673 12.9086 303.141 21.8862 303.141L128.939 303.65C137.917 303.65 145.37 296.352 145.37 287.356L146.555 24.4414C146.386 15.4456 139.102 7.97742 130.125 7.97742Z" fill="#1F232E"/>
<mask id="mask1_1943_304" style="mask-type:alpha" maskUnits="userSpaceOnUse" x="5" y="7" width="142" height="297">
<path d="M130.125 7.97742L109.29 7.80768C106.58 7.80768 104.209 10.1839 104.209 13.0694V16.8035C104.209 19.6889 102.007 22.0652 99.1269 22.0652L58.6433 21.8954C55.9331 21.8954 53.5616 19.5192 53.5616 16.6337V12.8996C53.5616 10.0142 51.3596 7.63794 48.48 7.63794H41.1964H23.0719C14.0944 7.63794 6.64128 14.9364 6.64128 23.9322L5.625 286.677C5.625 295.673 12.9086 303.141 21.8862 303.141L128.939 303.65C137.917 303.65 145.37 296.352 145.37 287.356L146.555 24.4414C146.386 15.4456 139.102 7.97742 130.125 7.97742Z" fill="#1B1E27"/>
</mask>
<g mask="url(#mask1_1943_304)">
<path opacity="0.3" d="M125.945 230.785C126.339 232.02 126.689 233.169 127.061 234.317C127.17 234.296 127.28 234.296 127.389 234.274C127.389 232.54 127.389 230.785 127.389 229.051C127.498 229.03 127.608 228.986 127.739 228.965C128.089 229.68 128.439 230.417 128.767 231.132C128.833 231.132 128.898 231.11 128.964 231.11C128.964 230.482 129.03 229.853 128.942 229.246C128.702 227.253 128.395 225.237 128.198 223.243C128.133 222.485 128.352 221.683 128.308 220.925C128.22 219.754 128.089 218.584 127.827 217.435C127.542 216.157 127.105 214.9 126.755 213.643C125.967 210.739 125.398 207.748 124.392 204.931C123.495 202.417 123.342 199.86 123.167 197.281C123.145 197.021 123.254 196.696 123.429 196.479C124.064 195.612 124.282 194.746 123.648 193.684C125.048 193.207 124.939 192.015 125.158 190.931C125.639 188.721 125.486 186.727 123.845 184.95C122.882 183.91 122.139 182.718 121.242 181.634C120.957 181.288 120.563 181.071 120.213 180.811C121.132 178.189 120.87 175.545 120.192 172.901C120.06 172.402 119.732 171.926 119.404 171.514C117.873 169.542 116.298 167.591 114.788 165.619C114.547 165.316 114.307 164.796 114.394 164.471C114.985 162.499 114.241 160.7 113.738 158.879C113.541 158.121 113.344 157.341 113.322 156.561C113.235 151.576 112.579 146.657 111.791 141.759C111.725 141.412 111.9 140.936 112.141 140.632C112.797 139.744 113.519 138.877 114.285 138.075C114.547 137.793 114.985 137.685 115.488 137.403C115.204 140.069 113.454 141.824 112.469 144.1C112.754 144.035 112.994 144.056 113.169 143.948C115.488 142.388 117.785 140.762 118.879 138.053C118.945 137.88 119.098 137.728 119.12 137.576C119.229 135.929 120.41 135.084 121.614 134.239C121.81 134.087 122.029 133.936 122.204 133.741C124.72 130.923 127.236 128.106 129.774 125.267C130.145 124.855 130.495 124.444 130.889 124.097C131.414 123.642 131.655 123.23 131.305 122.515C131.174 122.255 131.349 121.713 131.567 121.496C132.749 120.304 133.361 118.809 133.93 117.27C134.039 116.967 134.193 116.599 134.105 116.339C133.668 114.908 134.411 113.846 135.111 112.741C137.343 109.057 137.955 104.983 138.371 100.887C138.415 100.497 138.087 100.063 137.912 99.6082C136.118 100.583 135.352 102.664 133.121 102.902C132.639 101.364 133.733 100.085 133.777 98.568C132.968 99.0231 132.18 99.4782 131.196 100.02C131.567 98.503 131.852 97.1811 132.202 95.8808C132.902 93.2802 132.639 90.8097 131.217 88.4908C130.189 86.8005 129.073 85.1534 128.067 83.4414C126.908 81.4476 125.858 79.4105 124.764 77.3951C125.136 77.07 125.354 76.875 125.551 76.6799C126.361 75.8348 126.842 74.9462 126.383 73.6676C125.464 71.0454 124.676 68.3798 123.779 65.7576C123.364 64.5006 122.904 64.3489 121.614 64.7824C120.782 65.0641 119.973 65.3458 119.098 65.6492C119.01 65.4325 118.945 65.2808 118.901 65.1074C118.376 63.3737 118.441 63.4387 119.907 62.2685C121.745 60.8165 122.598 58.7794 122.664 56.4822C122.751 53.6216 122.182 50.8694 120.06 48.8106C118.463 47.2719 116.582 45.8416 114.263 45.6466C112.95 45.5382 111.922 45.4082 111.003 44.3679C110.019 43.241 108.641 43.0893 107.197 43.4361C106.825 43.5228 106.431 43.5011 105.884 43.5228C106.125 43.046 106.278 42.7426 106.431 42.4175C104.856 39.9903 102.384 38.9501 99.6932 38.3C99.3869 38.2133 99.0588 37.9966 98.84 37.7365C98.0306 36.8697 97.243 36.0678 95.9086 36.1545C95.1429 36.2195 94.3772 36.1545 93.6115 36.1545C92.452 36.1545 91.9051 35.8078 91.8614 34.7025C91.7739 32.3187 90.68 30.3682 89.3893 28.4612C88.2299 26.7491 87.2235 24.9287 86.086 23.065C86.086 23.065 85.8672 23.195 85.5391 23.3684C83.8983 21.0062 81.5356 19.5326 78.9323 18.2973C76.0884 16.9537 73.2007 16.4336 70.1598 17.3004C68.2347 17.8422 67.0533 19.3592 65.9376 20.8762C65.4782 21.5263 65.0844 22.2198 64.5813 22.8483C64.0562 23.4984 63.4437 24.1052 62.7655 24.8204C63.1593 25.3188 62.8093 25.6439 62.1967 26.0556C60.381 27.2909 58.6309 28.6129 56.7057 29.9998C57.6245 30.5199 58.5433 31.0617 59.6153 31.6469C59.2653 32.3187 58.8934 33.0772 58.5215 33.8357C59.2215 34.3558 59.8778 34.8325 60.556 35.3527C60.4904 35.6561 60.4028 36.0028 60.3153 36.4362C59.9872 36.5012 59.6153 36.5663 59.0903 36.6529C60.381 38.3867 61.6061 40.0337 62.9624 41.8541C62.3717 41.9408 61.9998 42.0058 61.256 42.1141C62.2624 43.0893 63.1155 43.9128 63.9906 44.7797C63.8156 44.8664 63.5531 44.9964 63.2906 45.1264C63.3124 45.2348 63.2906 45.3648 63.3562 45.4298C64.3188 46.4917 65.2594 47.597 66.2877 48.5939C67.0096 49.2873 67.644 49.9158 66.7908 51.0644C67.6002 51.1944 68.2565 51.2811 69.1097 51.4111C68.716 51.8229 68.3878 52.1046 68.1472 52.408C66.6814 54.1851 65.1719 55.9188 63.7718 57.7608C62.9405 58.8661 63.0718 59.1045 64.3625 59.8413C63.6625 61.1199 62.7655 62.3118 62.2842 63.6555C60.9716 67.1662 60.2497 70.807 60.5997 74.5778C60.9498 78.2836 59.8997 81.7944 59.2653 85.3702C59.0684 86.4754 58.3683 87.4939 57.8433 88.7076C55.7213 89.466 54.1243 91.0914 52.9211 93.2369C52.1772 94.5588 51.1272 95.7291 50.0115 96.8777C50.0771 96.5526 50.1646 96.2492 50.2302 95.9241C49.027 94.7972 48.8958 94.7755 47.4957 95.5557C46.4675 96.1408 45.3518 96.5959 44.3892 97.2894C43.7548 97.7445 43.3829 98.568 42.8141 99.1531C42.0265 99.955 41.1952 100.757 40.3201 101.472C38.92 102.599 37.4762 103.617 36.1636 104.874C34.7853 106.175 34.326 107.497 34.2166 109.165C34.1291 110.531 34.3697 112.048 33.8228 113.218C33.1009 114.778 33.3415 116.317 33.1446 117.856C33.1009 118.224 33.2977 118.614 33.3853 118.982C33.4728 118.982 33.5603 118.982 33.6478 118.982C34.0634 118.202 34.4791 117.4 34.8947 116.62C35.0041 116.599 35.1135 116.577 35.2229 116.555C35.5073 117.314 36.0104 118.094 36.0323 118.852C36.0542 119.914 36.5136 120.608 37.1918 121.301C37.8481 121.951 38.4825 122.623 39.1388 123.273C39.2263 123.23 39.3138 123.187 39.4232 123.143C39.2263 122.385 39.0513 121.626 38.8325 120.716C39.7295 121.085 40.4514 121.301 40.7358 122.32C41.1515 123.924 42.3765 124.747 44.1704 124.877C43.8423 123.728 43.5141 122.558 43.186 121.41C43.2953 121.345 43.4047 121.28 43.5141 121.193C43.8423 121.28 44.1923 121.366 44.5204 121.453C44.7611 121.518 45.1111 121.713 45.2205 121.626C46.0737 120.933 47.0581 121.496 47.9332 121.28C48.3488 121.171 48.9833 120.911 49.0051 120.651C49.0489 120.261 48.7864 119.698 48.4582 119.394C47.605 118.614 47.6269 118.376 48.3926 117.487C49.5739 116.1 50.8428 114.735 51.0834 112.806C51.1053 112.698 51.1053 112.524 51.149 112.524C52.4616 112.134 52.4616 110.682 53.2711 109.945C54.168 109.144 55.1962 108.472 56.1588 107.735C56.4651 107.497 56.9245 107.258 56.9901 106.955C57.2964 105.763 58.2152 105.264 59.1996 104.744C60.5122 104.051 61.7592 103.271 63.2468 102.642C62.5905 103.812 61.8686 104.961 61.2779 106.153C60.9716 106.781 60.906 107.518 60.731 108.212C60.4904 109.209 60.5122 110.357 59.9872 111.181C56.5963 116.62 54.5837 122.623 52.396 128.605C50.2521 134.391 49.0489 140.307 48.5457 146.397C48.502 146.83 48.502 147.307 48.3051 147.654C47.2988 149.409 47.08 151.359 46.905 153.267C46.7737 154.74 47.1894 156.257 47.3863 157.731C47.4738 158.381 47.7582 159.031 47.6707 159.638C47.1456 163.3 47.6269 166.898 48.0207 170.517C48.0426 170.755 47.9551 170.994 47.8894 171.232C47.4081 173.009 46.9269 174.765 46.4456 176.542C46.4237 176.607 46.38 176.693 46.4237 176.758C47.08 178.232 45.833 179.077 45.308 180.182C44.236 182.458 43.2516 184.755 42.2015 187.117C42.5297 187.291 42.7922 187.421 43.0547 187.551C43.0766 187.659 43.1203 187.746 43.1203 187.789C42.3984 189.674 43.2516 191.191 44.2579 192.708C44.4548 193.012 44.6298 193.489 44.5642 193.835C44.1048 195.916 43.4485 197.823 41.8296 199.448C39.6201 201.68 37.3012 203.739 34.5666 205.321C33.6696 205.841 32.9915 206.73 32.1164 207.272C31.7226 207.532 31.0007 207.553 30.5413 207.38C28.2224 206.535 26.1222 208.377 25.7284 210.089C25.3565 211.801 25.2253 213.578 25.0503 215.333C25.0065 215.767 25.2472 216.222 25.3128 216.482C23.9783 218.042 22.6657 219.581 21.375 221.12C21.4625 221.206 21.55 221.315 21.6594 221.401C23.1908 220.469 24.4377 218.974 26.7785 218.996C24.5471 220.101 23.8908 222.073 23.0157 223.915C24.8315 222.051 27.041 220.925 29.4256 220.296C28.463 221.986 27.4786 223.72 26.4941 225.432C26.5816 225.497 26.6691 225.562 26.7566 225.627C28.9881 223.395 31.0663 220.903 34.7854 221.076C34.3478 222.311 33.954 223.46 33.5384 224.609C35.9229 221.51 39.2044 220.231 43.011 219.494C42.7266 220.383 42.4859 221.12 42.2672 221.856C44.3017 219.603 46.6862 218.064 49.7708 217.392C49.6177 218.259 49.4864 219.017 49.3114 219.971C52.1554 215.745 55.8306 214.25 60.9498 215.853C59.9872 214.857 59.2215 214.055 58.3246 213.123C59.9434 212.343 61.6279 212.083 63.4874 213.21C62.503 211.606 62.3061 211.454 59.5278 210.392C59.6809 209.395 59.8122 208.355 59.9872 207.337C60.2278 206.015 59.7684 204.953 58.784 204.043C58.5215 203.782 58.434 203.327 58.3465 202.937C58.2371 202.482 58.3246 201.962 58.1058 201.594C57.8433 201.117 57.0995 200.77 57.0557 200.337C56.9245 198.386 56.7276 196.328 58.2152 194.724C58.6965 194.204 59.5059 194.009 60.1184 193.575C60.5997 193.25 60.9498 192.665 61.4529 192.448C62.7874 191.863 62.678 190.325 63.5312 189.479C64.5156 188.482 65.1063 187.291 65.1719 185.925C65.2157 184.625 65.4782 183.173 64.1438 182.219C64.0562 182.154 63.9469 181.959 63.9687 181.851C64.2312 180.637 63.7937 179.207 65.1501 178.34C65.6314 178.037 66.0033 177.56 66.3533 177.083C66.9658 176.216 67.6003 175.198 67.0971 174.179C65.697 171.34 65.7626 168.22 65.2157 165.229C65.0626 164.362 65.0844 163.647 65.7189 162.954C65.9376 162.715 65.9814 162.238 66.0033 161.848C66.1126 160.461 66.3533 159.096 67.5565 158.186C69.4379 156.756 70.0067 154.675 70.4442 152.551C71.2974 148.39 71.9974 144.186 72.8725 140.025C73.4194 137.446 74.6883 135.214 76.7447 133.481C77.8385 134.477 78.9104 135.431 79.9605 136.406C80.0918 136.536 80.2449 136.753 80.3762 136.731C81.6013 136.645 81.6669 137.641 81.995 138.378C82.6295 139.787 83.3514 141.174 83.8764 142.626C84.2921 143.774 84.3577 145.053 84.8171 146.158C85.9985 148.976 87.3111 151.75 88.6236 154.502C90.0675 157.514 91.4895 160.548 93.0646 163.495C95.2741 167.591 97.6368 171.601 99.8901 175.653C100.218 176.238 100.546 176.997 100.459 177.625C100.153 179.749 100.59 181.526 102.209 183.021C103.018 183.78 103.565 184.452 102.647 185.752C102.056 186.575 102.406 188.049 102.318 189.219C102.318 189.328 102.318 189.436 102.362 189.544C102.953 190.715 101.728 191.972 102.647 193.164C103.39 194.117 104.025 195.179 104.615 196.241C105.512 197.823 107.109 198.3 108.597 199.015C108.991 199.188 109.472 199.492 109.603 199.838C110.238 201.702 110.894 203.587 111.31 205.516C111.528 206.491 111.244 207.553 111.157 208.572C111.025 209.894 110.85 211.216 110.697 212.538C110.653 212.863 110.719 213.275 110.544 213.47C109.56 214.553 109.581 215.918 109.45 217.24C109.166 220.318 108.925 223.417 108.684 226.516C108.619 227.296 108.684 228.076 108.684 229.008C108.903 228.748 109.035 228.575 109.253 228.293C109.013 230.178 108.772 231.955 108.531 233.732C108.641 233.754 108.728 233.797 108.838 233.819C109.494 232.54 110.128 231.262 110.741 230.026C110.96 230.048 111.003 230.048 111.025 230.07C112.557 230.547 112.797 231.522 112.513 233.039C112.25 234.469 112.447 235.986 112.447 237.785C113.322 235.661 114.066 233.797 114.788 232.064C115.094 231.999 115.16 231.955 115.226 231.977C117.435 232.454 117.413 232.454 117.676 234.751C117.785 235.791 117.982 236.81 118.157 237.85C118.179 237.98 118.266 238.11 118.42 238.5C118.77 236.766 119.12 235.271 119.338 233.776C119.47 232.822 119.951 232.454 120.87 232.367C122.729 232.172 122.751 232.129 123.342 233.884C123.736 235.054 124.086 236.224 124.458 237.395C124.479 237.438 124.567 237.46 124.72 237.568C124.72 235.964 124.786 234.447 124.698 232.93C124.676 231.955 124.851 231.24 125.945 230.785ZM98.2056 98.1779C98.5337 98.2213 98.7306 98.2863 98.8838 98.2646C100.153 98.1129 101.531 98.2863 102.187 96.6826C102.931 94.8839 103.937 93.1935 104.747 91.4381C104.944 91.0047 104.878 90.4413 104.9 90.0295C106.147 87.7757 107.416 85.5002 108.619 83.3331C109.166 83.7448 109.603 84.1132 110.085 84.4383C110.369 84.6333 110.785 84.6983 110.96 84.9584C111.922 86.3887 112.863 87.8624 113.738 89.336C114.285 90.2679 115.072 91.1998 115.182 92.1966C115.444 94.4288 115.357 96.7043 115.379 98.9364C115.401 101.559 115.379 104.181 115.379 106.868C114.438 106.911 114.241 107.692 114.351 108.667C114.416 109.425 114.526 110.184 114.526 110.921C114.526 112.481 114.482 114.041 114.438 115.298C109.735 117.335 106.212 119.914 105.862 125.289C104.812 123.793 103.85 122.537 103.04 121.171C102.428 120.131 101.859 119.004 101.553 117.856C100.721 114.67 100.021 111.462 99.3213 108.428C99.3869 108.017 99.5182 107.713 99.4744 107.453C99.2338 106.326 98.9494 105.221 98.6869 104.094C98.4244 103.011 99.2338 101.624 97.7899 100.844C97.7462 100.822 97.7681 100.713 97.7681 100.627C97.965 99.8466 98.0743 99.0231 98.2056 98.1779Z" fill="black"/>
<path d="M19.6222 17.9462C18.3244 19.2441 18.2059 21.2815 19.2665 22.7146L18.1748 23.8064C17.9626 24.0186 17.9626 24.3628 18.1748 24.5753C18.387 24.7875 18.7312 24.7875 18.9436 24.5753L20.0353 23.4835C21.4684 24.5442 23.5058 24.4257 24.8036 23.1278C26.2321 21.6992 26.2321 19.3748 24.8036 17.9464C23.3751 16.518 21.0505 16.5178 19.6222 17.9462ZM24.0348 22.3589C23.162 23.2317 21.8139 23.3461 20.8164 22.7025L21.2473 22.2715C21.4595 22.0593 21.4595 21.7151 21.2473 21.5026C21.0351 21.2904 20.6909 21.2904 20.4785 21.5026L20.0475 21.9336C19.4039 20.936 19.5183 19.5878 20.3911 18.715C21.3956 17.7105 23.0302 17.7105 24.0348 18.715C25.0393 19.7196 25.0393 21.3543 24.0348 22.3589ZM20.7316 24.8934C20.9438 25.1056 20.9438 25.4498 20.7316 25.6623L18.4281 27.9658C18.2159 28.1781 17.8717 28.1781 17.6593 27.9658C17.447 27.7536 17.447 27.4094 17.6593 27.197L19.9629 24.8934C20.1751 24.6812 20.5193 24.6812 20.7316 24.8934ZM14.7842 25.0906C14.5719 24.8784 14.5719 24.5342 14.7842 24.3217L17.0878 22.018C17.3001 21.8057 17.6442 21.8057 17.8567 22.018C18.0689 22.2302 18.0689 22.5744 17.8567 22.7868L15.553 25.0906C15.3406 25.3031 14.9966 25.3031 14.7842 25.0906Z" fill="white"/>
<path d="M138.375 21.9375C138.375 25.3548 135.605 28.125 132.188 28.125C128.77 28.125 126 25.3548 126 21.9375C126 18.5202 128.77 15.75 132.188 15.75C135.605 15.75 138.375 18.5202 138.375 21.9375Z" fill="#2632A5"/>
<path fill-rule="evenodd" clip-rule="evenodd" d="M132.188 26.6971C134.816 26.6971 136.947 24.5662 136.947 21.9375C136.947 19.3088 134.816 17.1779 132.188 17.1779C129.559 17.1779 127.428 19.3088 127.428 21.9375C127.428 24.5662 129.559 26.6971 132.188 26.6971ZM132.188 28.125C135.605 28.125 138.375 25.3548 138.375 21.9375C138.375 18.5202 135.605 15.75 132.188 15.75C128.77 15.75 126 18.5202 126 21.9375C126 25.3548 128.77 28.125 132.188 28.125Z" fill="white"/>
</g>
</g>
<defs>
<linearGradient id="paint0_linear_1943_304" x1="76.5" y1="32.5549" x2="76.5" y2="128" gradientUnits="userSpaceOnUse">
<stop stop-color="white"/>
<stop offset="1" stop-color="white" stop-opacity="0"/>
</linearGradient>
</defs>
</svg>
