<svg width="35" height="35" viewBox="0 0 35 35" fill="none" xmlns="http://www.w3.org/2000/svg">
<path d="M17.2417 0.639648C7.86794 0.639648 0.241699 8.26589 0.241699 17.6396C0.241699 27.0127 7.86794 34.6396 17.2417 34.6396C26.6148 34.6396 34.2417 27.0127 34.2417 17.6396C34.2417 8.26589 26.6161 0.639648 17.2417 0.639648ZM24.8255 13.7488C24.833 13.9173 24.8371 14.0871 24.8371 14.2569C24.8371 19.4276 20.9025 25.3878 13.7035 25.3878C11.4938 25.3878 9.43674 24.742 7.70565 23.6314C8.01174 23.6676 8.32331 23.6861 8.63898 23.6861C10.4728 23.6861 12.1594 23.0603 13.4988 22.0112C11.7869 21.9797 10.3413 20.8485 9.84349 19.2934C10.0818 19.3386 10.3276 19.3639 10.5789 19.3639C10.9357 19.3639 11.2822 19.3173 11.6102 19.2276C9.82021 18.8688 8.4719 17.2877 8.4719 15.3909C8.4719 15.3744 8.4719 15.3573 8.47259 15.3416C8.99986 15.634 9.60314 15.8106 10.2441 15.8305C9.19501 15.13 8.50409 13.9316 8.50409 12.5744C8.50409 11.8568 8.6965 11.1844 9.03341 10.6064C10.9624 12.9743 13.8466 14.5315 17.0979 14.6958C17.0308 14.4089 16.9972 14.1111 16.9972 13.8036C16.9972 11.6432 18.7489 9.89084 20.9093 9.89084C22.0351 9.89084 23.0506 10.3661 23.7655 11.1262C24.6577 10.9509 25.4931 10.6263 26.2512 10.1764C25.9567 11.0905 25.3384 11.8568 24.5283 12.3416C25.3206 12.2471 26.0766 12.0376 26.7757 11.726C26.2539 12.5094 25.5904 13.1989 24.8255 13.7488Z" fill="white"/>
</svg>
