<svg width="35" height="35" viewBox="0 0 35 35" fill="none" xmlns="http://www.w3.org/2000/svg">
<path d="M17.2417 0.639648C7.86794 0.639648 0.241699 8.26589 0.241699 17.6396C0.241699 27.0127 7.86794 34.6396 17.2417 34.6396C26.6148 34.6396 34.2417 27.0127 34.2417 17.6396C34.2417 8.26589 26.6161 0.639648 17.2417 0.639648ZM21.4694 18.2381H18.7037C18.7037 22.6569 18.7037 28.096 18.7037 28.096H14.6053C14.6053 28.096 14.6053 22.7097 14.6053 18.2381H12.6572V14.754H14.6053V12.5005C14.6053 10.8865 15.3723 8.36449 18.7413 8.36449L21.7783 8.37613V11.7582C21.7783 11.7582 19.9328 11.7582 19.574 11.7582C19.2152 11.7582 18.705 11.9376 18.705 12.7073V14.7547H21.8276L21.4694 18.2381Z" fill="white"/>
</svg>
